<?xml version="1.0" encoding="UTF-8" standalone="no"?>
<!DOCTYPE svg PUBLIC "-//W3C//DTD SVG 1.1//EN"
 "http://www.w3.org/Graphics/SVG/1.1/DTD/svg11.dtd">
<!-- Generated by graphviz version 2.47.3 (20210619.1520)
 -->
<!-- Title: dependencies Pages: 1 -->
<svg width="1409pt" height="247pt"
 viewBox="0.00 0.00 1409.00 246.80" xmlns="http://www.w3.org/2000/svg" xmlns:xlink="http://www.w3.org/1999/xlink">
<g id="graph0" class="graph" transform="scale(1 1) rotate(0) translate(4 242.8)">
<title>dependencies</title>
<polygon fill="white" stroke="transparent" points="-4,4 -4,-242.8 1405,-242.8 1405,4 -4,4"/>
<text text-anchor="middle" x="700.5" y="-8.2" font-family="sans-serif" font-size="14.00">dependencies</text>
<g id="clust1" class="cluster">
<title>cluster_ClaimModule</title>
<polygon fill="none" stroke="black" stroke-dasharray="1,5" points="8,-32.8 8,-230.8 1393,-230.8 1393,-32.8 8,-32.8"/>
</g>
<g id="clust4" class="cluster">
<title>cluster_ClaimModule_exports</title>
<polygon fill="none" stroke="black" points="566,-170.8 566,-222.8 678,-222.8 678,-170.8 566,-170.8"/>
</g>
<g id="clust6" class="cluster">
<title>cluster_ClaimModule_providers</title>
<polygon fill="none" stroke="black" points="1241,-40.8 1241,-92.8 1385,-92.8 1385,-40.8 1241,-40.8"/>
</g>
<g id="clust3" class="cluster">
<title>cluster_ClaimModule_imports</title>
<polygon fill="none" stroke="black" points="16,-40.8 16,-92.8 1233,-92.8 1233,-40.8 16,-40.8"/>
</g>
<!-- CaptchaModule -->
<g id="node1" class="node">
<title>CaptchaModule</title>
<polygon fill="#8dd3c7" stroke="black" points="1224.92,-84.8 1221.92,-88.8 1200.92,-88.8 1197.92,-84.8 1119.08,-84.8 1119.08,-48.8 1224.92,-48.8 1224.92,-84.8"/>
<text text-anchor="middle" x="1172" y="-62.6" font-family="Times,serif" font-size="14.00">CaptchaModule</text>
</g>
<!-- ClaimModule -->
<g id="node10" class="node">
<title>ClaimModule</title>
<polygon fill="#8dd3c7" stroke="black" points="668.77,-149.8 665.77,-153.8 644.77,-153.8 641.77,-149.8 575.23,-149.8 575.23,-113.8 668.77,-113.8 668.77,-149.8"/>
<text text-anchor="middle" x="622" y="-127.6" font-family="Times,serif" font-size="14.00">ClaimModule</text>
</g>
<!-- CaptchaModule&#45;&gt;ClaimModule -->
<g id="edge1" class="edge">
<title>CaptchaModule&#45;&gt;ClaimModule</title>
<path fill="none" stroke="black" d="M1172,-84.93C1172,-105.37 1172,-135.8 1172,-135.8 1172,-135.8 678.89,-135.8 678.89,-135.8"/>
<polygon fill="black" stroke="black" points="678.89,-132.3 668.89,-135.8 678.89,-139.3 678.89,-132.3"/>
</g>
<!-- ClaimReviewModule -->
<g id="node2" class="node">
<title>ClaimReviewModule</title>
<polygon fill="#8dd3c7" stroke="black" points="1101.04,-84.8 1098.04,-88.8 1077.04,-88.8 1074.04,-84.8 964.96,-84.8 964.96,-48.8 1101.04,-48.8 1101.04,-84.8"/>
<text text-anchor="middle" x="1033" y="-62.6" font-family="Times,serif" font-size="14.00">ClaimReviewModule</text>
</g>
<!-- ClaimReviewModule&#45;&gt;ClaimModule -->
<g id="edge2" class="edge">
<title>ClaimReviewModule&#45;&gt;ClaimModule</title>
<path fill="none" stroke="black" d="M1033,-85.07C1033,-103.36 1033,-128.8 1033,-128.8 1033,-128.8 679.15,-128.8 679.15,-128.8"/>
<polygon fill="black" stroke="black" points="679.15,-125.3 669.15,-128.8 679.15,-132.3 679.15,-125.3"/>
</g>
<!-- ClaimReviewTaskModule -->
<g id="node3" class="node">
<title>ClaimReviewTaskModule</title>
<polygon fill="#8dd3c7" stroke="black" points="946.75,-84.8 943.75,-88.8 922.75,-88.8 919.75,-84.8 783.25,-84.8 783.25,-48.8 946.75,-48.8 946.75,-84.8"/>
<text text-anchor="middle" x="865" y="-62.6" font-family="Times,serif" font-size="14.00">ClaimReviewTaskModule</text>
</g>
<!-- ClaimReviewTaskModule&#45;&gt;ClaimModule -->
<g id="edge3" class="edge">
<title>ClaimReviewTaskModule&#45;&gt;ClaimModule</title>
<path fill="none" stroke="black" d="M865,-84.81C865,-100.85 865,-121.8 865,-121.8 865,-121.8 678.85,-121.8 678.85,-121.8"/>
<polygon fill="black" stroke="black" points="678.85,-118.3 668.85,-121.8 678.85,-125.3 678.85,-118.3"/>
</g>
<!-- ClaimRevisionModule -->
<g id="node4" class="node">
<title>ClaimRevisionModule</title>
<polygon fill="#8dd3c7" stroke="black" points="764.55,-84.8 761.55,-88.8 740.55,-88.8 737.55,-84.8 621.45,-84.8 621.45,-48.8 764.55,-48.8 764.55,-84.8"/>
<text text-anchor="middle" x="693" y="-62.6" font-family="Times,serif" font-size="14.00">ClaimRevisionModule</text>
</g>
<!-- ClaimRevisionModule&#45;&gt;ClaimModule -->
<g id="edge4" class="edge">
<title>ClaimRevisionModule&#45;&gt;ClaimModule</title>
<path fill="none" stroke="black" d="M645.06,-84.91C645.06,-84.91 645.06,-103.79 645.06,-103.79"/>
<polygon fill="black" stroke="black" points="641.56,-103.79 645.06,-113.79 648.56,-103.79 641.56,-103.79"/>
</g>
<!-- HistoryModule -->
<g id="node5" class="node">
<title>HistoryModule</title>
<polygon fill="#8dd3c7" stroke="black" points="602.54,-84.8 599.54,-88.8 578.54,-88.8 575.54,-84.8 501.46,-84.8 501.46,-48.8 602.54,-48.8 602.54,-84.8"/>
<text text-anchor="middle" x="552" y="-62.6" font-family="Times,serif" font-size="14.00">HistoryModule</text>
</g>
<!-- HistoryModule&#45;&gt;ClaimModule -->
<g id="edge5" class="edge">
<title>HistoryModule&#45;&gt;ClaimModule</title>
<path fill="none" stroke="black" d="M588.94,-84.91C588.94,-84.91 588.94,-103.79 588.94,-103.79"/>
<polygon fill="black" stroke="black" points="585.44,-103.79 588.94,-113.79 592.44,-103.79 585.44,-103.79"/>
</g>
<!-- ParserModule -->
<g id="node6" class="node">
<title>ParserModule</title>
<polygon fill="#8dd3c7" stroke="black" points="483.03,-84.8 480.03,-88.8 459.03,-88.8 456.03,-84.8 388.97,-84.8 388.97,-48.8 483.03,-48.8 483.03,-84.8"/>
<text text-anchor="middle" x="436" y="-62.6" font-family="Times,serif" font-size="14.00">ParserModule</text>
</g>
<!-- ParserModule&#45;&gt;ClaimModule -->
<g id="edge6" class="edge">
<title>ParserModule&#45;&gt;ClaimModule</title>
<path fill="none" stroke="black" d="M436,-84.81C436,-100.85 436,-121.8 436,-121.8 436,-121.8 565.06,-121.8 565.06,-121.8"/>
<polygon fill="black" stroke="black" points="565.06,-125.3 575.06,-121.8 565.06,-118.3 565.06,-125.3"/>
</g>
<!-- PersonalityModule -->
<g id="node7" class="node">
<title>PersonalityModule</title>
<polygon fill="#8dd3c7" stroke="black" points="370.04,-84.8 367.04,-88.8 346.04,-88.8 343.04,-84.8 247.96,-84.8 247.96,-48.8 370.04,-48.8 370.04,-84.8"/>
<text text-anchor="middle" x="309" y="-62.6" font-family="Times,serif" font-size="14.00">PersonalityModule</text>
</g>
<!-- PersonalityModule&#45;&gt;ClaimModule -->
<g id="edge7" class="edge">
<title>PersonalityModule&#45;&gt;ClaimModule</title>
<path fill="none" stroke="black" d="M309,-85.07C309,-103.36 309,-128.8 309,-128.8 309,-128.8 565.14,-128.8 565.14,-128.8"/>
<polygon fill="black" stroke="black" points="565.14,-132.3 575.14,-128.8 565.14,-125.3 565.14,-132.3"/>
</g>
<!-- SourceModule -->
<g id="node8" class="node">
<title>SourceModule</title>
<polygon fill="#8dd3c7" stroke="black" points="230.42,-84.8 227.42,-88.8 206.42,-88.8 203.42,-84.8 131.58,-84.8 131.58,-48.8 230.42,-48.8 230.42,-84.8"/>
<text text-anchor="middle" x="181" y="-62.6" font-family="Times,serif" font-size="14.00">SourceModule</text>
</g>
<!-- SourceModule&#45;&gt;ClaimModule -->
<g id="edge8" class="edge">
<title>SourceModule&#45;&gt;ClaimModule</title>
<path fill="none" stroke="black" d="M181,-84.93C181,-105.37 181,-135.8 181,-135.8 181,-135.8 565.22,-135.8 565.22,-135.8"/>
<polygon fill="black" stroke="black" points="565.22,-139.3 575.22,-135.8 565.22,-132.3 565.22,-139.3"/>
</g>
<!-- ViewModule -->
<g id="node9" class="node">
<title>ViewModule</title>
<polygon fill="#8dd3c7" stroke="black" points="113.87,-84.8 110.87,-88.8 89.87,-88.8 86.87,-84.8 24.13,-84.8 24.13,-48.8 113.87,-48.8 113.87,-84.8"/>
<text text-anchor="middle" x="69" y="-62.6" font-family="Times,serif" font-size="14.00">ViewModule</text>
</g>
<!-- ViewModule&#45;&gt;ClaimModule -->
<g id="edge9" class="edge">
<title>ViewModule&#45;&gt;ClaimModule</title>
<path fill="none" stroke="black" d="M69,-84.81C69,-107.29 69,-142.8 69,-142.8 69,-142.8 564.85,-142.8 564.85,-142.8"/>
<polygon fill="black" stroke="black" points="564.85,-146.3 574.85,-142.8 564.85,-139.3 564.85,-146.3"/>
</g>
<!-- ClaimService  -->
<g id="node11" class="node">
<title>ClaimService </title>
<polygon fill="#fb8072" stroke="black" points="669.7,-214.8 574.3,-214.8 574.3,-178.8 669.7,-178.8 669.7,-214.8"/>
<text text-anchor="middle" x="622" y="-192.6" font-family="Times,serif" font-size="14.00">ClaimService </text>
</g>
<!-- ClaimModule&#45;&gt;ClaimService  -->
<g id="edge10" class="edge">
<title>ClaimModule&#45;&gt;ClaimService </title>
<path fill="none" stroke="black" stroke-dasharray="5,2" d="M622,-149.91C622,-149.91 622,-168.79 622,-168.79"/>
<polygon fill="black" stroke="black" points="618.5,-168.79 622,-178.79 625.5,-168.79 618.5,-168.79"/>
</g>
<!-- ClaimService -->
<g id="node12" class="node">
<title>ClaimService</title>
<ellipse fill="#fdb462" stroke="black" cx="1313" cy="-66.8" rx="63.7" ry="18"/>
<text text-anchor="middle" x="1313" y="-62.6" font-family="Times,serif" font-size="14.00">ClaimService</text>
</g>
<!-- ClaimService&#45;&gt;ClaimModule -->
<g id="edge11" class="edge">
<title>ClaimService&#45;&gt;ClaimModule</title>
<path fill="none" stroke="black" d="M1313,-84.81C1313,-107.29 1313,-142.8 1313,-142.8 1313,-142.8 678.95,-142.8 678.95,-142.8"/>
<polygon fill="black" stroke="black" points="678.95,-139.3 668.95,-142.8 678.95,-146.3 678.95,-139.3"/>
</g>
</g>
</svg>
