<?xml version="1.0" encoding="UTF-8" standalone="no"?>
<!DOCTYPE svg PUBLIC "-//W3C//DTD SVG 1.1//EN"
 "http://www.w3.org/Graphics/SVG/1.1/DTD/svg11.dtd">
<!-- Generated by graphviz version 2.47.3 (20210619.1520)
 -->
<!-- Title: dependencies Pages: 1 -->
<svg width="594pt" height="247pt"
 viewBox="0.00 0.00 594.00 246.80" xmlns="http://www.w3.org/2000/svg" xmlns:xlink="http://www.w3.org/1999/xlink">
<g id="graph0" class="graph" transform="scale(1 1) rotate(0) translate(4 242.8)">
<title>dependencies</title>
<polygon fill="white" stroke="transparent" points="-4,4 -4,-242.8 590,-242.8 590,4 -4,4"/>
<text text-anchor="middle" x="293" y="-8.2" font-family="sans-serif" font-size="14.00">dependencies</text>
<g id="clust1" class="cluster">
<title>cluster_ClaimRevisionModule</title>
<polygon fill="none" stroke="black" stroke-dasharray="1,5" points="8,-32.8 8,-230.8 578,-230.8 578,-32.8 8,-32.8"/>
</g>
<g id="clust4" class="cluster">
<title>cluster_ClaimRevisionModule_exports</title>
<polygon fill="none" stroke="black" points="157,-170.8 157,-222.8 319,-222.8 319,-170.8 157,-170.8"/>
</g>
<g id="clust6" class="cluster">
<title>cluster_ClaimRevisionModule_providers</title>
<polygon fill="none" stroke="black" points="358,-40.8 358,-92.8 570,-92.8 570,-40.8 358,-40.8"/>
</g>
<g id="clust3" class="cluster">
<title>cluster_ClaimRevisionModule_imports</title>
<polygon fill="none" stroke="black" points="16,-40.8 16,-92.8 350,-92.8 350,-40.8 16,-40.8"/>
</g>
<!-- ParserModule -->
<g id="node1" class="node">
<title>ParserModule</title>
<polygon fill="#8dd3c7" stroke="black" points="342.03,-84.8 339.03,-88.8 318.03,-88.8 315.03,-84.8 247.97,-84.8 247.97,-48.8 342.03,-48.8 342.03,-84.8"/>
<text text-anchor="middle" x="295" y="-62.6" font-family="Times,serif" font-size="14.00">ParserModule</text>
</g>
<!-- ClaimRevisionModule -->
<g id="node4" class="node">
<title>ClaimRevisionModule</title>
<polygon fill="#8dd3c7" stroke="black" points="309.55,-149.8 306.55,-153.8 285.55,-153.8 282.55,-149.8 166.45,-149.8 166.45,-113.8 309.55,-113.8 309.55,-149.8"/>
<text text-anchor="middle" x="238" y="-127.6" font-family="Times,serif" font-size="14.00">ClaimRevisionModule</text>
</g>
<!-- ParserModule&#45;&gt;ClaimRevisionModule -->
<g id="edge1" class="edge">
<title>ParserModule&#45;&gt;ClaimRevisionModule</title>
<path fill="none" stroke="black" d="M278.76,-84.91C278.76,-84.91 278.76,-103.79 278.76,-103.79"/>
<polygon fill="black" stroke="black" points="275.26,-103.79 278.76,-113.79 282.26,-103.79 275.26,-103.79"/>
</g>
<!-- SourceModule -->
<g id="node2" class="node">
<title>SourceModule</title>
<polygon fill="#8dd3c7" stroke="black" points="230.42,-84.8 227.42,-88.8 206.42,-88.8 203.42,-84.8 131.58,-84.8 131.58,-48.8 230.42,-48.8 230.42,-84.8"/>
<text text-anchor="middle" x="181" y="-62.6" font-family="Times,serif" font-size="14.00">SourceModule</text>
</g>
<!-- SourceModule&#45;&gt;ClaimRevisionModule -->
<g id="edge2" class="edge">
<title>SourceModule&#45;&gt;ClaimRevisionModule</title>
<path fill="none" stroke="black" d="M198.22,-84.91C198.22,-84.91 198.22,-103.79 198.22,-103.79"/>
<polygon fill="black" stroke="black" points="194.72,-103.79 198.22,-113.79 201.72,-103.79 194.72,-103.79"/>
</g>
<!-- ViewModule -->
<g id="node3" class="node">
<title>ViewModule</title>
<polygon fill="#8dd3c7" stroke="black" points="113.87,-84.8 110.87,-88.8 89.87,-88.8 86.87,-84.8 24.13,-84.8 24.13,-48.8 113.87,-48.8 113.87,-84.8"/>
<text text-anchor="middle" x="69" y="-62.6" font-family="Times,serif" font-size="14.00">ViewModule</text>
</g>
<!-- ViewModule&#45;&gt;ClaimRevisionModule -->
<g id="edge3" class="edge">
<title>ViewModule&#45;&gt;ClaimRevisionModule</title>
<path fill="none" stroke="black" d="M69,-84.91C69,-104.14 69,-131.8 69,-131.8 69,-131.8 156.33,-131.8 156.33,-131.8"/>
<polygon fill="black" stroke="black" points="156.33,-135.3 166.33,-131.8 156.33,-128.3 156.33,-135.3"/>
</g>
<!-- ClaimRevisionService  -->
<g id="node5" class="node">
<title>ClaimRevisionService </title>
<polygon fill="#fb8072" stroke="black" points="310.98,-214.8 165.02,-214.8 165.02,-178.8 310.98,-178.8 310.98,-214.8"/>
<text text-anchor="middle" x="238" y="-192.6" font-family="Times,serif" font-size="14.00">ClaimRevisionService </text>
</g>
<!-- ClaimRevisionModule&#45;&gt;ClaimRevisionService  -->
<g id="edge4" class="edge">
<title>ClaimRevisionModule&#45;&gt;ClaimRevisionService </title>
<path fill="none" stroke="black" stroke-dasharray="5,2" d="M238,-149.91C238,-149.91 238,-168.79 238,-168.79"/>
<polygon fill="black" stroke="black" points="234.5,-168.79 238,-178.79 241.5,-168.79 234.5,-168.79"/>
</g>
<!-- ClaimRevisionService -->
<g id="node6" class="node">
<title>ClaimRevisionService</title>
<ellipse fill="#fdb462" stroke="black" cx="464" cy="-66.8" rx="97.87" ry="18"/>
<text text-anchor="middle" x="464" y="-62.6" font-family="Times,serif" font-size="14.00">ClaimRevisionService</text>
</g>
<!-- ClaimRevisionService&#45;&gt;ClaimRevisionModule -->
<g id="edge5" class="edge">
<title>ClaimRevisionService&#45;&gt;ClaimRevisionModule</title>
<path fill="none" stroke="black" d="M464,-84.91C464,-104.14 464,-131.8 464,-131.8 464,-131.8 319.82,-131.8 319.82,-131.8"/>
<polygon fill="black" stroke="black" points="319.82,-128.3 309.82,-131.8 319.82,-135.3 319.82,-128.3"/>
</g>
</g>
</svg>
