<?xml version="1.0" encoding="UTF-8" standalone="no"?>
<!DOCTYPE svg PUBLIC "-//W3C//DTD SVG 1.1//EN"
 "http://www.w3.org/Graphics/SVG/1.1/DTD/svg11.dtd">
<!-- Generated by graphviz version 2.47.3 (20210619.1520)
 -->
<!-- Title: dependencies Pages: 1 -->
<svg width="846pt" height="247pt"
 viewBox="0.00 0.00 846.00 246.80" xmlns="http://www.w3.org/2000/svg" xmlns:xlink="http://www.w3.org/1999/xlink">
<g id="graph0" class="graph" transform="scale(1 1) rotate(0) translate(4 242.8)">
<title>dependencies</title>
<polygon fill="white" stroke="transparent" points="-4,4 -4,-242.8 842,-242.8 842,4 -4,4"/>
<text text-anchor="middle" x="419" y="-8.2" font-family="sans-serif" font-size="14.00">dependencies</text>
<g id="clust1" class="cluster">
<title>cluster_ClaimRevisionModule</title>
<polygon fill="none" stroke="black" stroke-dasharray="1,5" points="8,-32.8 8,-230.8 830,-230.8 830,-32.8 8,-32.8"/>
</g>
<g id="clust4" class="cluster">
<title>cluster_ClaimRevisionModule_exports</title>
<polygon fill="none" stroke="black" points="379,-170.8 379,-222.8 541,-222.8 541,-170.8 379,-170.8"/>
</g>
<g id="clust3" class="cluster">
<title>cluster_ClaimRevisionModule_imports</title>
<polygon fill="none" stroke="black" points="236,-40.8 236,-92.8 822,-92.8 822,-40.8 236,-40.8"/>
</g>
<g id="clust6" class="cluster">
<title>cluster_ClaimRevisionModule_providers</title>
<polygon fill="none" stroke="black" points="16,-40.8 16,-92.8 228,-92.8 228,-40.8 16,-40.8"/>
</g>
<!-- ParagraphModule -->
<g id="node1" class="node">
<title>ParagraphModule</title>
<polygon fill="#8dd3c7" stroke="black" points="814.3,-84.8 811.3,-88.8 790.3,-88.8 787.3,-84.8 697.7,-84.8 697.7,-48.8 814.3,-48.8 814.3,-84.8"/>
<text text-anchor="middle" x="756" y="-62.6" font-family="Times,serif" font-size="14.00">ParagraphModule</text>
</g>
<!-- ClaimRevisionModule -->
<g id="node6" class="node">
<title>ClaimRevisionModule</title>
<polygon fill="#8dd3c7" stroke="black" points="531.55,-149.8 528.55,-153.8 507.55,-153.8 504.55,-149.8 388.45,-149.8 388.45,-113.8 531.55,-113.8 531.55,-149.8"/>
<text text-anchor="middle" x="460" y="-127.6" font-family="Times,serif" font-size="14.00">ClaimRevisionModule</text>
</g>
<!-- ParagraphModule&#45;&gt;ClaimRevisionModule -->
<g id="edge1" class="edge">
<title>ParagraphModule&#45;&gt;ClaimRevisionModule</title>
<path fill="none" stroke="black" d="M756,-85.08C756,-106.12 756,-137.8 756,-137.8 756,-137.8 541.65,-137.8 541.65,-137.8"/>
<polygon fill="black" stroke="black" points="541.65,-134.3 531.65,-137.8 541.65,-141.3 541.65,-134.3"/>
</g>
<!-- ParserModule -->
<g id="node2" class="node">
<title>ParserModule</title>
<polygon fill="#8dd3c7" stroke="black" points="680.03,-84.8 677.03,-88.8 656.03,-88.8 653.03,-84.8 585.97,-84.8 585.97,-48.8 680.03,-48.8 680.03,-84.8"/>
<text text-anchor="middle" x="633" y="-62.6" font-family="Times,serif" font-size="14.00">ParserModule</text>
</g>
<!-- ParserModule&#45;&gt;ClaimRevisionModule -->
<g id="edge2" class="edge">
<title>ParserModule&#45;&gt;ClaimRevisionModule</title>
<path fill="none" stroke="black" d="M633,-84.82C633,-102.17 633,-125.8 633,-125.8 633,-125.8 541.61,-125.8 541.61,-125.8"/>
<polygon fill="black" stroke="black" points="541.61,-122.3 531.61,-125.8 541.61,-129.3 541.61,-122.3"/>
</g>
<!-- SourceModule -->
<g id="node3" class="node">
<title>SourceModule</title>
<polygon fill="#8dd3c7" stroke="black" points="568.42,-84.8 565.42,-88.8 544.42,-88.8 541.42,-84.8 469.58,-84.8 469.58,-48.8 568.42,-48.8 568.42,-84.8"/>
<text text-anchor="middle" x="519" y="-62.6" font-family="Times,serif" font-size="14.00">SourceModule</text>
</g>
<!-- SourceModule&#45;&gt;ClaimRevisionModule -->
<g id="edge3" class="edge">
<title>SourceModule&#45;&gt;ClaimRevisionModule</title>
<path fill="none" stroke="black" d="M500.78,-84.91C500.78,-84.91 500.78,-103.79 500.78,-103.79"/>
<polygon fill="black" stroke="black" points="497.28,-103.79 500.78,-113.79 504.28,-103.79 497.28,-103.79"/>
</g>
<!-- SpeechModule -->
<g id="node4" class="node">
<title>SpeechModule</title>
<polygon fill="#8dd3c7" stroke="black" points="451.98,-84.8 448.98,-88.8 427.98,-88.8 424.98,-84.8 352.02,-84.8 352.02,-48.8 451.98,-48.8 451.98,-84.8"/>
<text text-anchor="middle" x="402" y="-62.6" font-family="Times,serif" font-size="14.00">SpeechModule</text>
</g>
<!-- SpeechModule&#45;&gt;ClaimRevisionModule -->
<g id="edge4" class="edge">
<title>SpeechModule&#45;&gt;ClaimRevisionModule</title>
<path fill="none" stroke="black" d="M420.11,-84.91C420.11,-84.91 420.11,-103.79 420.11,-103.79"/>
<polygon fill="black" stroke="black" points="416.61,-103.79 420.11,-113.79 423.61,-103.79 416.61,-103.79"/>
</g>
<!-- ViewModule -->
<g id="node5" class="node">
<title>ViewModule</title>
<polygon fill="#8dd3c7" stroke="black" points="333.87,-84.8 330.87,-88.8 309.87,-88.8 306.87,-84.8 244.13,-84.8 244.13,-48.8 333.87,-48.8 333.87,-84.8"/>
<text text-anchor="middle" x="289" y="-62.6" font-family="Times,serif" font-size="14.00">ViewModule</text>
</g>
<!-- ViewModule&#45;&gt;ClaimRevisionModule -->
<g id="edge5" class="edge">
<title>ViewModule&#45;&gt;ClaimRevisionModule</title>
<path fill="none" stroke="black" d="M289,-84.82C289,-102.17 289,-125.8 289,-125.8 289,-125.8 377.98,-125.8 377.98,-125.8"/>
<polygon fill="black" stroke="black" points="377.98,-129.3 387.98,-125.8 377.98,-122.3 377.98,-129.3"/>
</g>
<!-- ClaimRevisionService  -->
<g id="node7" class="node">
<title>ClaimRevisionService </title>
<polygon fill="#fb8072" stroke="black" points="532.98,-214.8 387.02,-214.8 387.02,-178.8 532.98,-178.8 532.98,-214.8"/>
<text text-anchor="middle" x="460" y="-192.6" font-family="Times,serif" font-size="14.00">ClaimRevisionService </text>
</g>
<!-- ClaimRevisionModule&#45;&gt;ClaimRevisionService  -->
<g id="edge6" class="edge">
<title>ClaimRevisionModule&#45;&gt;ClaimRevisionService </title>
<path fill="none" stroke="black" stroke-dasharray="5,2" d="M460,-149.91C460,-149.91 460,-168.79 460,-168.79"/>
<polygon fill="black" stroke="black" points="456.5,-168.79 460,-178.79 463.5,-168.79 456.5,-168.79"/>
</g>
<!-- ClaimRevisionService -->
<g id="node8" class="node">
<title>ClaimRevisionService</title>
<ellipse fill="#fdb462" stroke="black" cx="122" cy="-66.8" rx="97.87" ry="18"/>
<text text-anchor="middle" x="122" y="-62.6" font-family="Times,serif" font-size="14.00">ClaimRevisionService</text>
</g>
<!-- ClaimRevisionService&#45;&gt;ClaimRevisionModule -->
<g id="edge7" class="edge">
<title>ClaimRevisionService&#45;&gt;ClaimRevisionModule</title>
<path fill="none" stroke="black" d="M122,-85.08C122,-106.12 122,-137.8 122,-137.8 122,-137.8 378.32,-137.8 378.32,-137.8"/>
<polygon fill="black" stroke="black" points="378.32,-141.3 388.32,-137.8 378.32,-134.3 378.32,-141.3"/>
</g>
</g>
</svg>
