<svg id="principal_logo_inverse" xmlns="http://www.w3.org/2000/svg" viewBox="0 0 1920 1080">
    <defs>
        <style>.cls-1{fill:#11273a;}.cls-2{fill:#e8e8e8;}</style>
    </defs>
<!--    <rect class="cls-1" x="-12.87" y="-7.96" width="1953.87" height="1105.96" rx="2"/>-->
    <path class="cls-2" d="M571.55,488.74H529.43a.29.29,0,0,0-.3.28v10.79a.28.28,0,0,1-.49.19q-13-14.87-36-14.85-25.73,0-43.07,19.39T432.19,553q0,29.07,17.35,48.47t43.07,19.42q23,0,36-14.85a.28.28,0,0,1,.49.19v10.79a.29.29,0,0,0,.3.28h42.12a.29.29,0,0,0,.3-.28V489A.29.29,0,0,0,571.55,488.74Zm-49.87,84.63q-7.44,7.7-19.53,7.7t-19.56-7.7q-7.45-7.73-7.45-20.33t7.45-20.33Q490,525,502.15,525t19.53,7.7q7.46,7.74,7.45,20.33T521.68,573.37Z"/>
    <path class="cls-2" d="M786.35,504.43q-18.76-19.29-47.59-19.28-29.84,0-49.13,19.53T670.35,553.3q0,29.3,19.68,48.49t52.35,19.14q36,0,55.08-23.66a.28.28,0,0,0-.05-.42L767,575.55a.32.32,0,0,0-.37,0q-9.47,8.85-23.22,8.84-22.08,0-28.64-15.27a.3.3,0,0,1,.28-.41H803.1a.29.29,0,0,0,.28-.24,68,68,0,0,0,1.74-15.71Q805.12,523.72,786.35,504.43Zm-23.28,34.71H714.48a.3.3,0,0,1-.3-.37q5.51-17.61,25.11-17.63,18.83,0,24.06,17.63A.29.29,0,0,1,763.07,539.14Z"/>
    <path class="cls-2" d="M879.75,529.63h26.17a.29.29,0,0,0,.29-.29V489a.29.29,0,0,0-.29-.29H879.75a.29.29,0,0,1-.29-.29V453.12a.29.29,0,0,0-.37-.28L837,465.53a.29.29,0,0,0-.21.27v22.65a.28.28,0,0,1-.28.29H817.76a.29.29,0,0,0-.29.29v40.31a.29.29,0,0,0,.29.29h18.72a.28.28,0,0,1,.28.29v38q0,30.62,15.57,42.31t53.62,7.1a.28.28,0,0,0,.26-.29v-38a.29.29,0,0,0-.31-.28q-14.16.72-20.27-1.3t-6.17-10.55v-37A.29.29,0,0,1,879.75,529.63Z"/>
    <path class="cls-2" d="M1058.23,540.44v76.62a.29.29,0,0,1-.28.28h-42.14a.29.29,0,0,1-.28-.28V545.85c0-6.71-1.76-11.74-5.27-15.18s-8.19-5.15-14-5.15c-6.71,0-11.88,2-15.57,6s-5.52,9.84-5.52,17.38v68.13a.29.29,0,0,1-.28.28H932.74a.29.29,0,0,1-.28-.28V427.15a.46.46,0,0,1,.33-.44l41.76-13a.47.47,0,0,1,.61.44v86.6a.28.28,0,0,0,.51.16q11.58-15.74,35.22-15.73,20.85,0,34.09,14.27T1058.23,540.44Z"/>
    <path class="cls-2" d="M1197.38,504.43q-18.8-19.29-47.59-19.28-29.83,0-49.12,19.53t-19.29,48.62q0,29.3,19.68,48.49t52.32,19.14q36.11,0,55.11-23.66a.3.3,0,0,0,0-.42L1178,575.55a.31.31,0,0,0-.37,0q-9.48,8.85-23.23,8.84-22.11,0-28.63-15.27a.28.28,0,0,1,.25-.41h88.06a.33.33,0,0,0,.3-.24,68,68,0,0,0,1.74-15.71Q1216.15,523.72,1197.38,504.43Zm-23.3,34.71h-48.59a.3.3,0,0,1-.28-.37q5.51-17.61,25.09-17.63,18.83,0,24.06,17.63A.28.28,0,0,1,1174.08,539.14Z"/>
    <path class="cls-2" d="M1262.19,471.23a25,25,0,0,0,24.69-24.69,23.32,23.32,0,0,0-7.33-17.24,24.53,24.53,0,0,0-34.72,0,23.32,23.32,0,0,0-7.33,17.24,25,25,0,0,0,24.69,24.69Z"/><rect class="cls-2" x="1240.84" y="488.74" width="42.7" height="128.6" rx="0.29"/>
    <path class="cls-2" d="M1447.61,488.74h-42.12a.29.29,0,0,0-.3.28v10.79a.28.28,0,0,1-.49.19q-13-14.87-36-14.85-25.73,0-43.07,19.39T1308.22,553q0,29.07,17.38,48.47t43.07,19.42q23,0,36-14.85a.28.28,0,0,1,.49.19v10.79a.29.29,0,0,0,.3.28h42.12a.27.27,0,0,0,.28-.28V489A.27.27,0,0,0,1447.61,488.74Zm-49.87,84.63c-5,5.13-11.48,7.7-19.56,7.7s-14.57-2.57-19.53-7.7-7.45-11.93-7.45-20.33,2.48-15.17,7.45-20.33,11.48-7.7,19.53-7.7,14.57,2.58,19.56,7.7,7.45,11.93,7.45,20.33S1402.71,568.22,1397.74,573.37Z"/>
    <path class="cls-2" d="M661,619.19c-4.76,2.12-12.16,3.72-22.21,3.72-30.7,0-40.75-20.12-40.75-49.75V428a.47.47,0,0,1,.33-.45l44.57-13.89a.47.47,0,0,1,.61.45V574.76c0,9,4.22,11.62,7.4,11.62a16.93,16.93,0,0,0,4.76-.51Z"/>
    <path class="cls-2" d="M1570.66,292.37V745.21a2.87,2.87,0,0,1-2.83,2.9h-80.71a2.32,2.32,0,0,1-2.32-2.32V717.67a2.32,2.32,0,0,1,2.32-2.32H1537V322.23H343.48V715.35H915.8a2.85,2.85,0,0,1,2.85,2.86v27a2.87,2.87,0,0,1-2.85,2.9H312.64a2.85,2.85,0,0,1-2.83-2.9V292.37a2.9,2.9,0,0,1,2.9-2.9H1567.83A2.88,2.88,0,0,1,1570.66,292.37Z"/>
    <path class="cls-2" d="M1000.23,668.62c-8.94-.62-16,1.37-20.85,5.92s-7.4,11.25-7.4,19.94v1.1h-9.36a1.43,1.43,0,0,0-1.44,1.44v8.14a1.43,1.43,0,0,0,1.44,1.44H972v54a1.44,1.44,0,0,0,1.45,1.44h8.39a1.44,1.44,0,0,0,1.45-1.44v-54h16.86a1.44,1.44,0,0,0,1.45-1.44V697a1.44,1.44,0,0,0-1.45-1.44H983.27v-1.1c0-5.64,1.35-9.68,4-12s7-3.3,12.72-2.83a1.39,1.39,0,0,0,1.1-.38,1.42,1.42,0,0,0,.47-1.06v-8.14A1.45,1.45,0,0,0,1000.23,668.62Z"/>
    <path class="cls-2" d="M1072.1,695.58h-8.4a1.45,1.45,0,0,0-1.44,1.44v8c-6-7.26-14.08-10.93-24.25-10.93a33,33,0,0,0-24.22,10.09,35.37,35.37,0,0,0,0,49.33,33,33,0,0,0,24.22,10.1c10.17,0,18.29-3.67,24.25-10.93v8a1.45,1.45,0,0,0,1.44,1.44h8.4a1.45,1.45,0,0,0,1.44-1.44V697A1.45,1.45,0,0,0,1072.1,695.58Zm-16.66,50.08a23.87,23.87,0,0,1-33.55,0,23.14,23.14,0,0,1-5.13-7.66,24.05,24.05,0,0,1-1.69-9.19,22.8,22.8,0,0,1,6.82-16.85,23.87,23.87,0,0,1,33.55,0,24.23,24.23,0,0,1,0,33.7Z"/>
    <path class="cls-2" d="M1152.55,744.34l-7-4.06a1.44,1.44,0,0,0-2,.54,23.65,23.65,0,1,1-20.23-35.74,23.11,23.11,0,0,1,12,3.17,18.35,18.35,0,0,1,7.62,8.43,1.47,1.47,0,0,0,.87.79,1.45,1.45,0,0,0,1.17-.12l6.87-4a1.44,1.44,0,0,0,.6-1.84A28.26,28.26,0,0,0,1141,698.77a33.77,33.77,0,0,0-17.66-4.72c-9.93,0-18.32,3.37-24.93,10a35.71,35.71,0,0,0,0,49.46c6.61,6.66,15,10,24.93,10a34.44,34.44,0,0,0,17.64-4.65,30.85,30.85,0,0,0,12.13-12.66A1.45,1.45,0,0,0,1152.55,744.34Z"/>
    <path class="cls-2" d="M1201.41,695.58h-16.86V679.22a1.45,1.45,0,0,0-1.87-1.38l-8.39,2.54a1.44,1.44,0,0,0-1,1.38v13.82h-11.91a1.44,1.44,0,0,0-1.45,1.44v8.14a1.44,1.44,0,0,0,1.45,1.44h11.91v37.09c0,7.89,2.48,13.35,7.38,16.25,3.15,1.85,7.34,2.79,12.51,2.79a57.44,57.44,0,0,0,8.47-.7,1.45,1.45,0,0,0,1.23-1.43v-7.38a1.42,1.42,0,0,0-.45-1,1.39,1.39,0,0,0-1.06-.4c-4,.17-7.41.23-10.09.19-2.32,0-4-.63-5.06-1.82s-1.65-3.38-1.65-6.46V706.6h16.86a1.44,1.44,0,0,0,1.45-1.44V697A1.44,1.44,0,0,0,1201.41,695.58Z"/>
    <path class="cls-2" d="M1232.24,746.44a8.44,8.44,0,1,0,6,14.42h0a8.44,8.44,0,0,0-6-14.42Z"/>
    <path class="cls-2" d="M1308.85,704.07a35.52,35.52,0,0,0-49.45,0,35.19,35.19,0,0,0,0,49.47,35.49,35.49,0,0,0,49.45,0,35.19,35.19,0,0,0,0-49.47Zm-8,41.59a23.87,23.87,0,0,1-33.55,0,23.14,23.14,0,0,1-5.13-7.66,24.05,24.05,0,0,1-1.69-9.19,22.8,22.8,0,0,1,6.82-16.85,23.87,23.87,0,0,1,33.55,0,24.15,24.15,0,0,1,0,33.7Z"/>
    <path class="cls-2" d="M1363.85,694.56c-8.11,0-14.36,2.71-18.65,8.07V697a1.43,1.43,0,0,0-1.44-1.44h-8.4a1.44,1.44,0,0,0-1.44,1.44V760.6a1.44,1.44,0,0,0,1.44,1.44h8.4a1.43,1.43,0,0,0,1.44-1.44V725.25c0-6.83,1.76-11.85,5.24-14.94a19.52,19.52,0,0,1,13.41-4.72,1.45,1.45,0,0,0,1.44-1.45V696A1.44,1.44,0,0,0,1363.85,694.56Z"/>
    <path class="cls-2" d="M1438.35,695.58H1430a1.45,1.45,0,0,0-1.46,1.44v8c-6-7.26-14.08-10.93-24.22-10.93A33,33,0,0,0,1380,704.14a35.42,35.42,0,0,0,0,49.33,33,33,0,0,0,24.25,10.1c10.14,0,18.26-3.67,24.22-10.93v5.41c0,6.17-1.9,10.9-5.82,14.52s-9.38,5.41-16.24,5.41c-10.86,0-17.89-3.53-21.47-10.77a1.41,1.41,0,0,0-.88-.74,1.47,1.47,0,0,0-1.14.12l-7.38,4.19a1.49,1.49,0,0,0-.58,1.91c5.43,10.83,16,16.31,31.45,16.31a35.52,35.52,0,0,0,23.43-8.21c6.59-5.53,9.93-13.18,9.93-22.74V697A1.45,1.45,0,0,0,1438.35,695.58Zm-16.66,50.08a23.87,23.87,0,0,1-33.55,0,24.23,24.23,0,0,1,0-33.7,23.87,23.87,0,0,1,33.55,0,24.23,24.23,0,0,1,0,33.7Z"/>
</svg>
