<?xml version="1.0" encoding="UTF-8" standalone="no"?>
<!DOCTYPE svg PUBLIC "-//W3C//DTD SVG 1.1//EN"
 "http://www.w3.org/Graphics/SVG/1.1/DTD/svg11.dtd">
<!-- Generated by graphviz version 2.47.3 (20210619.1520)
 -->
<!-- Title: dependencies Pages: 1 -->
<svg width="294pt" height="247pt"
 viewBox="0.00 0.00 294.00 246.80" xmlns="http://www.w3.org/2000/svg" xmlns:xlink="http://www.w3.org/1999/xlink">
<g id="graph0" class="graph" transform="scale(1 1) rotate(0) translate(4 242.8)">
<title>dependencies</title>
<polygon fill="white" stroke="transparent" points="-4,4 -4,-242.8 290,-242.8 290,4 -4,4"/>
<text text-anchor="middle" x="143" y="-8.2" font-family="sans-serif" font-size="14.00">dependencies</text>
<g id="clust1" class="cluster">
<title>cluster_UsersModule</title>
<polygon fill="none" stroke="black" stroke-dasharray="1,5" points="8,-32.8 8,-230.8 278,-230.8 278,-32.8 8,-32.8"/>
</g>
<g id="clust3" class="cluster">
<title>cluster_UsersModule_imports</title>
<polygon fill="none" stroke="black" points="164,-40.8 164,-92.8 270,-92.8 270,-40.8 164,-40.8"/>
</g>
<g id="clust6" class="cluster">
<title>cluster_UsersModule_providers</title>
<polygon fill="none" stroke="black" points="16,-40.8 16,-92.8 156,-92.8 156,-40.8 16,-40.8"/>
</g>
<g id="clust4" class="cluster">
<title>cluster_UsersModule_exports</title>
<polygon fill="none" stroke="black" points="95,-170.8 95,-222.8 205,-222.8 205,-170.8 95,-170.8"/>
</g>
<!-- ViewModule -->
<g id="node1" class="node">
<title>ViewModule</title>
<polygon fill="#8dd3c7" stroke="black" points="261.87,-84.8 258.87,-88.8 237.87,-88.8 234.87,-84.8 172.13,-84.8 172.13,-48.8 261.87,-48.8 261.87,-84.8"/>
<text text-anchor="middle" x="217" y="-62.6" font-family="Times,serif" font-size="14.00">ViewModule</text>
</g>
<!-- UsersModule -->
<g id="node2" class="node">
<title>UsersModule</title>
<polygon fill="#8dd3c7" stroke="black" points="195.92,-149.8 192.92,-153.8 171.92,-153.8 168.92,-149.8 104.08,-149.8 104.08,-113.8 195.92,-113.8 195.92,-149.8"/>
<text text-anchor="middle" x="150" y="-127.6" font-family="Times,serif" font-size="14.00">UsersModule</text>
</g>
<!-- ViewModule&#45;&gt;UsersModule -->
<g id="edge1" class="edge">
<title>ViewModule&#45;&gt;UsersModule</title>
<path fill="none" stroke="black" d="M183.89,-84.91C183.89,-84.91 183.89,-103.79 183.89,-103.79"/>
<polygon fill="black" stroke="black" points="180.39,-103.79 183.89,-113.79 187.39,-103.79 180.39,-103.79"/>
</g>
<!-- UsersService  -->
<g id="node3" class="node">
<title>UsersService </title>
<polygon fill="#fb8072" stroke="black" points="196.85,-214.8 103.15,-214.8 103.15,-178.8 196.85,-178.8 196.85,-214.8"/>
<text text-anchor="middle" x="150" y="-192.6" font-family="Times,serif" font-size="14.00">UsersService </text>
</g>
<!-- UsersModule&#45;&gt;UsersService  -->
<g id="edge2" class="edge">
<title>UsersModule&#45;&gt;UsersService </title>
<path fill="none" stroke="black" stroke-dasharray="5,2" d="M150,-149.91C150,-149.91 150,-168.79 150,-168.79"/>
<polygon fill="black" stroke="black" points="146.5,-168.79 150,-178.79 153.5,-168.79 146.5,-168.79"/>
</g>
<!-- UsersService -->
<g id="node4" class="node">
<title>UsersService</title>
<ellipse fill="#fdb462" stroke="black" cx="86" cy="-66.8" rx="61.95" ry="18"/>
<text text-anchor="middle" x="86" y="-62.6" font-family="Times,serif" font-size="14.00">UsersService</text>
</g>
<!-- UsersService&#45;&gt;UsersModule -->
<g id="edge3" class="edge">
<title>UsersService&#45;&gt;UsersModule</title>
<path fill="none" stroke="black" d="M126.13,-80.58C126.13,-80.58 126.13,-103.35 126.13,-103.35"/>
<polygon fill="black" stroke="black" points="122.63,-103.35 126.13,-113.35 129.63,-103.35 122.63,-103.35"/>
</g>
</g>
</svg>
