<?xml version="1.0" encoding="UTF-8" standalone="no"?>
<!DOCTYPE svg PUBLIC "-//W3C//DTD SVG 1.1//EN"
 "http://www.w3.org/Graphics/SVG/1.1/DTD/svg11.dtd">
<!-- Generated by graphviz version 2.47.3 (20210619.1520)
 -->
<!-- Title: dependencies Pages: 1 -->
<svg width="460pt" height="174pt"
 viewBox="0.00 0.00 460.00 173.80" xmlns="http://www.w3.org/2000/svg" xmlns:xlink="http://www.w3.org/1999/xlink">
<g id="graph0" class="graph" transform="scale(1 1) rotate(0) translate(4 169.8)">
<title>dependencies</title>
<polygon fill="white" stroke="transparent" points="-4,4 -4,-169.8 456,-169.8 456,4 -4,4"/>
<text text-anchor="middle" x="226" y="-8.2" font-family="sans-serif" font-size="14.00">dependencies</text>
<g id="clust1" class="cluster">
<title>cluster_AuthModule</title>
<polygon fill="none" stroke="black" stroke-dasharray="1,5" points="8,-32.8 8,-157.8 444,-157.8 444,-32.8 8,-32.8"/>
</g>
<g id="clust3" class="cluster">
<title>cluster_AuthModule_imports</title>
<polygon fill="none" stroke="black" points="328,-40.8 328,-92.8 436,-92.8 436,-40.8 328,-40.8"/>
</g>
<g id="clust6" class="cluster">
<title>cluster_AuthModule_providers</title>
<polygon fill="none" stroke="black" points="16,-40.8 16,-92.8 320,-92.8 320,-40.8 16,-40.8"/>
</g>
<!-- UsersModule -->
<g id="node1" class="node">
<title>UsersModule</title>
<polygon fill="#8dd3c7" stroke="black" points="427.92,-84.8 424.92,-88.8 403.92,-88.8 400.92,-84.8 336.08,-84.8 336.08,-48.8 427.92,-48.8 427.92,-84.8"/>
<text text-anchor="middle" x="382" y="-62.6" font-family="Times,serif" font-size="14.00">UsersModule</text>
</g>
<!-- AuthModule -->
<g id="node2" class="node">
<title>AuthModule</title>
<polygon fill="#8dd3c7" stroke="black" points="285.55,-149.8 282.55,-153.8 261.55,-153.8 258.55,-149.8 198.45,-149.8 198.45,-113.8 285.55,-113.8 285.55,-149.8"/>
<text text-anchor="middle" x="242" y="-127.6" font-family="Times,serif" font-size="14.00">AuthModule</text>
</g>
<!-- UsersModule&#45;&gt;AuthModule -->
<g id="edge1" class="edge">
<title>UsersModule&#45;&gt;AuthModule</title>
<path fill="none" stroke="black" d="M382,-84.91C382,-104.14 382,-131.8 382,-131.8 382,-131.8 295.91,-131.8 295.91,-131.8"/>
<polygon fill="black" stroke="black" points="295.91,-128.3 285.91,-131.8 295.91,-135.3 295.91,-128.3"/>
</g>
<!-- LocalSerializer -->
<g id="node3" class="node">
<title>LocalSerializer</title>
<ellipse fill="#fdb462" stroke="black" cx="242" cy="-66.8" rx="70.03" ry="18"/>
<text text-anchor="middle" x="242" y="-62.6" font-family="Times,serif" font-size="14.00">LocalSerializer</text>
</g>
<!-- LocalSerializer&#45;&gt;AuthModule -->
<g id="edge2" class="edge">
<title>LocalSerializer&#45;&gt;AuthModule</title>
<path fill="none" stroke="black" d="M242,-84.91C242,-84.91 242,-103.79 242,-103.79"/>
<polygon fill="black" stroke="black" points="238.5,-103.79 242,-113.79 245.5,-103.79 238.5,-103.79"/>
</g>
<!-- LocalStrategy -->
<g id="node4" class="node">
<title>LocalStrategy</title>
<ellipse fill="#fdb462" stroke="black" cx="89" cy="-66.8" rx="65.41" ry="18"/>
<text text-anchor="middle" x="89" y="-62.6" font-family="Times,serif" font-size="14.00">LocalStrategy</text>
</g>
<!-- LocalStrategy&#45;&gt;AuthModule -->
<g id="edge3" class="edge">
<title>LocalStrategy&#45;&gt;AuthModule</title>
<path fill="none" stroke="black" d="M89,-84.91C89,-104.14 89,-131.8 89,-131.8 89,-131.8 188.16,-131.8 188.16,-131.8"/>
<polygon fill="black" stroke="black" points="188.16,-135.3 198.16,-131.8 188.16,-128.3 188.16,-135.3"/>
</g>
</g>
</svg>
