<?xml version="1.0" encoding="UTF-8" standalone="no"?>
<!DOCTYPE svg PUBLIC "-//W3C//DTD SVG 1.1//EN"
 "http://www.w3.org/Graphics/SVG/1.1/DTD/svg11.dtd">
<!-- Generated by graphviz version 2.47.3 (20210619.1520)
 -->
<!-- Title: dependencies Pages: 1 -->
<svg width="746pt" height="247pt"
 viewBox="0.00 0.00 746.00 246.80" xmlns="http://www.w3.org/2000/svg" xmlns:xlink="http://www.w3.org/1999/xlink">
<g id="graph0" class="graph" transform="scale(1 1) rotate(0) translate(4 242.8)">
<title>dependencies</title>
<polygon fill="white" stroke="transparent" points="-4,4 -4,-242.8 742,-242.8 742,4 -4,4"/>
<text text-anchor="middle" x="369" y="-8.2" font-family="sans-serif" font-size="14.00">dependencies</text>
<g id="clust1" class="cluster">
<title>cluster_PersonalityModule</title>
<polygon fill="none" stroke="black" stroke-dasharray="1,5" points="8,-32.8 8,-230.8 730,-230.8 730,-32.8 8,-32.8"/>
</g>
<g id="clust6" class="cluster">
<title>cluster_PersonalityModule_providers</title>
<polygon fill="none" stroke="black" points="412,-40.8 412,-92.8 722,-92.8 722,-40.8 412,-40.8"/>
</g>
<g id="clust4" class="cluster">
<title>cluster_PersonalityModule_exports</title>
<polygon fill="none" stroke="black" points="258,-170.8 258,-222.8 398,-222.8 398,-170.8 258,-170.8"/>
</g>
<g id="clust3" class="cluster">
<title>cluster_PersonalityModule_imports</title>
<polygon fill="none" stroke="black" points="16,-40.8 16,-92.8 404,-92.8 404,-40.8 16,-40.8"/>
</g>
<!-- ClaimReviewModule -->
<g id="node1" class="node">
<title>ClaimReviewModule</title>
<polygon fill="#8dd3c7" stroke="black" points="396.04,-84.8 393.04,-88.8 372.04,-88.8 369.04,-84.8 259.96,-84.8 259.96,-48.8 396.04,-48.8 396.04,-84.8"/>
<text text-anchor="middle" x="328" y="-62.6" font-family="Times,serif" font-size="14.00">ClaimReviewModule</text>
</g>
<!-- PersonalityModule -->
<g id="node4" class="node">
<title>PersonalityModule</title>
<polygon fill="#8dd3c7" stroke="black" points="389.04,-149.8 386.04,-153.8 365.04,-153.8 362.04,-149.8 266.96,-149.8 266.96,-113.8 389.04,-113.8 389.04,-149.8"/>
<text text-anchor="middle" x="328" y="-127.6" font-family="Times,serif" font-size="14.00">PersonalityModule</text>
</g>
<!-- ClaimReviewModule&#45;&gt;PersonalityModule -->
<g id="edge1" class="edge">
<title>ClaimReviewModule&#45;&gt;PersonalityModule</title>
<path fill="none" stroke="black" d="M328,-84.91C328,-84.91 328,-103.79 328,-103.79"/>
<polygon fill="black" stroke="black" points="324.5,-103.79 328,-113.79 331.5,-103.79 324.5,-103.79"/>
</g>
<!-- ViewModule -->
<g id="node2" class="node">
<title>ViewModule</title>
<polygon fill="#8dd3c7" stroke="black" points="241.87,-84.8 238.87,-88.8 217.87,-88.8 214.87,-84.8 152.13,-84.8 152.13,-48.8 241.87,-48.8 241.87,-84.8"/>
<text text-anchor="middle" x="197" y="-62.6" font-family="Times,serif" font-size="14.00">ViewModule</text>
</g>
<!-- ViewModule&#45;&gt;PersonalityModule -->
<g id="edge2" class="edge">
<title>ViewModule&#45;&gt;PersonalityModule</title>
<path fill="none" stroke="black" d="M197,-84.82C197,-102.17 197,-125.8 197,-125.8 197,-125.8 256.72,-125.8 256.72,-125.8"/>
<polygon fill="black" stroke="black" points="256.72,-129.3 266.72,-125.8 256.72,-122.3 256.72,-129.3"/>
</g>
<!-- WikidataModule -->
<g id="node3" class="node">
<title>WikidataModule</title>
<polygon fill="#8dd3c7" stroke="black" points="134.37,-84.8 131.37,-88.8 110.37,-88.8 107.37,-84.8 23.63,-84.8 23.63,-48.8 134.37,-48.8 134.37,-84.8"/>
<text text-anchor="middle" x="79" y="-62.6" font-family="Times,serif" font-size="14.00">WikidataModule</text>
</g>
<!-- WikidataModule&#45;&gt;PersonalityModule -->
<g id="edge3" class="edge">
<title>WikidataModule&#45;&gt;PersonalityModule</title>
<path fill="none" stroke="black" d="M79,-85.08C79,-106.12 79,-137.8 79,-137.8 79,-137.8 256.77,-137.8 256.77,-137.8"/>
<polygon fill="black" stroke="black" points="256.77,-141.3 266.77,-137.8 256.77,-134.3 256.77,-141.3"/>
</g>
<!-- PersonalityService  -->
<g id="node5" class="node">
<title>PersonalityService </title>
<polygon fill="#fb8072" stroke="black" points="390.47,-214.8 265.53,-214.8 265.53,-178.8 390.47,-178.8 390.47,-214.8"/>
<text text-anchor="middle" x="328" y="-192.6" font-family="Times,serif" font-size="14.00">PersonalityService </text>
</g>
<!-- PersonalityModule&#45;&gt;PersonalityService  -->
<g id="edge4" class="edge">
<title>PersonalityModule&#45;&gt;PersonalityService </title>
<path fill="none" stroke="black" stroke-dasharray="5,2" d="M328,-149.91C328,-149.91 328,-168.79 328,-168.79"/>
<polygon fill="black" stroke="black" points="324.5,-168.79 328,-178.79 331.5,-168.79 324.5,-168.79"/>
</g>
<!-- PersonalityService -->
<g id="node6" class="node">
<title>PersonalityService</title>
<ellipse fill="#fdb462" stroke="black" cx="631" cy="-66.8" rx="83.38" ry="18"/>
<text text-anchor="middle" x="631" y="-62.6" font-family="Times,serif" font-size="14.00">PersonalityService</text>
</g>
<!-- PersonalityService&#45;&gt;PersonalityModule -->
<g id="edge5" class="edge">
<title>PersonalityService&#45;&gt;PersonalityModule</title>
<path fill="none" stroke="black" d="M631,-85.08C631,-106.12 631,-137.8 631,-137.8 631,-137.8 399.32,-137.8 399.32,-137.8"/>
<polygon fill="black" stroke="black" points="399.32,-134.3 389.32,-137.8 399.32,-141.3 399.32,-134.3"/>
</g>
<!-- UtilService -->
<g id="node7" class="node">
<title>UtilService</title>
<ellipse fill="#fdb462" stroke="black" cx="475" cy="-66.8" rx="55.03" ry="18"/>
<text text-anchor="middle" x="475" y="-62.6" font-family="Times,serif" font-size="14.00">UtilService</text>
</g>
<!-- UtilService&#45;&gt;PersonalityModule -->
<g id="edge6" class="edge">
<title>UtilService&#45;&gt;PersonalityModule</title>
<path fill="none" stroke="black" d="M475,-84.82C475,-102.17 475,-125.8 475,-125.8 475,-125.8 399.06,-125.8 399.06,-125.8"/>
<polygon fill="black" stroke="black" points="399.06,-122.3 389.06,-125.8 399.06,-129.3 399.06,-122.3"/>
</g>
</g>
</svg>
