<svg
  viewBox="0 0 2560 1440"
  xmlns="http://www.w3.org/2000/svg"
>
<path fill="#F5F5F5" 
	d="
M1623.683594,626.681824 
	C1647.214844,610.154175 1673.624268,604.700928 1701.384644,604.044189 
	C1724.861694,603.488770 1747.979492,605.764404 1770.105103,614.212891 
	C1802.527588,626.592957 1821.157959,651.246460 1830.956543,683.521973 
	C1836.570679,702.014160 1838.275391,721.048828 1838.277344,740.278870 
	C1838.287720,843.604797 1838.283081,946.930786 1838.283691,1050.256714 
	C1838.283691,1051.407837 1838.283691,1052.558960 1838.283691,1054.107910 
	C1790.472534,1054.107910 1742.943237,1054.107910 1694.970215,1054.107910 
	C1694.970215,1052.118286 1694.970215,1050.161865 1694.970215,1048.205444 
	C1694.970215,951.045715 1695.088867,853.885559 1694.804443,756.726685 
	C1694.772583,745.847595 1693.529541,734.714539 1690.965332,724.156555 
	C1686.327026,705.059143 1671.549072,694.317505 1651.870972,692.917358 
	C1620.422729,690.679688 1604.524292,710.116333 1600.149170,735.047729 
	C1598.948730,741.888489 1598.701050,748.966370 1598.694702,755.936096 
	C1598.605469,853.262390 1598.633911,950.588806 1598.633911,1047.915161 
	C1598.633911,1049.887207 1598.634033,1051.859253 1598.634033,1054.167480 
	C1551.039429,1054.167480 1503.817383,1054.167480 1456.171509,1054.167480 
	C1456.171509,1051.992798 1456.171631,1050.032959 1456.171631,1048.073242 
	C1456.171631,951.080139 1456.302124,854.086670 1455.993286,757.094543 
	C1455.957642,745.899658 1454.603271,734.429260 1451.878784,723.584473 
	C1447.122314,704.652527 1432.466187,694.287354 1412.870239,692.910522 
	C1378.548340,690.499146 1362.663696,713.953552 1360.051392,742.450562 
	C1359.641602,746.921204 1359.643555,751.439758 1359.642578,755.936157 
	C1359.621582,853.429199 1359.627197,950.922241 1359.627563,1048.415283 
	C1359.627563,1050.220337 1359.627563,1052.025391 1359.627563,1054.167114 
	C1311.849121,1054.167114 1264.444336,1054.167114 1216.674561,1054.167114 
	C1216.674561,907.108154 1216.674561,760.086365 1216.674561,612.778931 
	C1264.211914,612.778931 1311.628174,612.778931 1359.487305,612.778931 
	C1359.487305,629.152588 1359.487305,645.400757 1359.487305,661.648865 
	C1360.020996,662.034424 1360.554688,662.419983 1361.088501,662.805542 
	C1361.284668,662.031860 1361.314819,661.161499 1361.700806,660.498291 
	C1380.181885,628.746765 1408.567505,611.774475 1444.145264,606.211670 
	C1472.133179,601.835571 1499.934692,603.116272 1527.067993,611.942871 
	C1554.612061,620.903137 1573.844238,639.139526 1585.746338,665.355225 
	C1586.494751,667.004028 1587.216187,668.665100 1588.270264,671.042053 
	C1596.639160,653.106384 1607.646240,638.075989 1623.683594,626.681824 
z"/>
<path fill="#F5F5F5" 
	d="
M2548.823730,1014.000122 
	C2548.823730,1027.967896 2548.823730,1041.435669 2548.823730,1055.202637 
	C2501.391846,1055.202637 2454.316895,1055.202637 2406.896240,1055.202637 
	C2406.896240,1040.129639 2406.896240,1025.201294 2406.896240,1009.534058 
	C2405.866943,1010.305298 2405.302002,1010.560669 2404.978027,1010.995605 
	C2384.674805,1038.237915 2357.139648,1054.173706 2324.226318,1060.040039 
	C2293.534912,1065.510254 2262.445312,1066.191040 2232.353027,1056.416748 
	C2183.211670,1040.455078 2153.420654,1006.136169 2142.319092,956.109009 
	C2138.595947,939.331726 2136.516357,921.890320 2136.221680,904.708984 
	C2135.404297,857.069153 2135.803223,809.406006 2135.957275,761.752808 
	C2136.047607,733.850098 2140.770996,706.747742 2152.272217,681.163757 
	C2169.011475,643.927307 2198.183350,620.720459 2236.968506,610.366211 
	C2276.553955,599.798279 2316.105469,601.033569 2354.441406,616.962769 
	C2373.240723,624.774231 2388.798828,637.098572 2401.699463,652.805298 
	C2403.143799,654.563660 2404.543213,656.358582 2406.787598,659.168030 
	C2406.787598,642.917480 2406.787598,627.915771 2406.787598,612.709351 
	C2454.267578,612.709351 2501.199463,612.709351 2548.823730,612.709351 
	C2548.823730,746.418396 2548.823730,879.959229 2548.823730,1014.000122 
M2345.464355,692.647827 
	C2341.139404,692.777039 2336.786133,692.635559 2332.493896,693.080750 
	C2309.745117,695.440491 2293.829834,706.824585 2285.752197,728.618103 
	C2281.242188,740.786560 2279.144043,753.407715 2279.078125,766.257751 
	C2278.854492,809.895386 2278.757324,853.536316 2279.083496,897.172424 
	C2279.164062,907.927002 2280.260498,918.812744 2282.243896,929.384033 
	C2285.771729,948.184448 2294.976807,963.319824 2313.825195,970.509338 
	C2325.856445,975.098633 2338.540527,975.730896 2351.231201,974.905640 
	C2376.473633,973.263977 2393.617188,959.414062 2401.156494,935.267822 
	C2405.728516,920.625183 2406.782471,905.567078 2406.814941,890.392029 
	C2406.893066,854.081909 2406.986328,817.770508 2406.754150,781.461670 
	C2406.682861,770.330627 2406.134033,759.138733 2404.799316,748.096130 
	C2403.190186,734.783264 2399.425049,721.944519 2390.439453,711.481567 
	C2378.925781,698.074829 2363.661621,692.986694 2345.464355,692.647827 
z"/>
<path fill="#F5F5F5" 
	d="
M265.635986,1029.643555 
	C245.285172,1047.558228 221.650223,1058.096069 195.395844,1061.239990 
	C164.733887,1064.911743 133.869949,1065.777710 104.193130,1054.495117 
	C59.021500,1037.321655 31.500992,1004.638733 20.045588,957.976501 
	C14.926840,937.125854 13.415022,915.917236 13.413892,894.543518 
	C13.411600,851.214905 13.300051,807.885742 13.474827,764.557800 
	C13.589961,736.015259 17.751652,708.124695 29.494305,681.852844 
	C46.301422,644.250366 75.669090,620.803528 114.821953,610.330566 
	C153.548645,599.971619 192.301697,601.123962 230.022125,616.013916 
	C250.463806,624.083191 267.106445,637.359070 280.830322,654.410583 
	C281.806641,655.623657 282.834839,656.794922 284.662323,658.962036 
	C284.662323,642.780396 284.662323,627.883118 284.662323,612.743896 
	C331.897186,612.743896 378.666077,612.743896 425.729736,612.743896 
	C425.729736,760.232422 425.729736,907.618774 425.729736,1055.255127 
	C378.921570,1055.255127 332.152893,1055.255127 284.671021,1055.255127 
	C284.671021,1040.196777 284.671021,1025.208008 284.671021,1009.792175 
	C278.034637,1016.723999 271.965179,1023.063660 265.635986,1029.643555 
M205.453140,693.804993 
	C185.265533,697.220886 171.200119,708.103088 163.875931,727.488525 
	C159.165588,739.955750 156.979721,752.874878 156.920425,766.090210 
	C156.725220,809.583679 156.558395,853.079834 156.883499,896.571228 
	C156.966400,907.660034 158.133240,918.879883 160.170105,929.783997 
	C163.654770,948.438660 172.946442,963.331055 191.581238,970.462097 
	C203.944534,975.193298 216.984009,975.985718 229.984665,974.792480 
	C256.054260,972.399780 271.843079,958.986328 279.447357,933.898743 
	C283.702332,919.861023 284.645905,905.438232 284.689758,890.935669 
	C284.805145,852.774048 284.932526,814.610107 284.601654,776.450989 
	C284.505310,765.337891 283.585968,754.123779 281.805206,743.157043 
	C278.587250,723.339539 269.824188,706.797302 250.443863,698.116516 
	C236.301025,691.781738 221.382202,691.661255 205.453140,693.804993 
z"/>
<path fill="#F5F5F5" 
	d="

M994.095093,888.000000 
	C994.095093,796.187317 994.095093,704.874573 994.095093,613.196838 
	C1041.559204,613.196838 1088.787109,613.196838 1136.302979,613.196838 
	C1136.302979,761.068237 1136.302979,908.980164 1136.302979,1057.198730 
	C1090.398804,1057.198730 1044.657227,1057.198730 998.499817,1057.198730 
	C998.499817,1039.487061 998.499817,1021.897949 998.499817,1003.210388 
	C997.196594,1004.611511 996.507019,1005.143555 996.083984,1005.837891 
	C976.474487,1038.024536 947.160461,1055.682617 910.814392,1062.788086 
	C909.201172,1063.103394 907.494690,1062.992432 905.831604,1062.993408 
	C885.831726,1063.005371 865.831238,1062.895874 845.832214,1063.027588 
	C820.278137,1063.195923 798.011169,1054.076782 778.202148,1038.695801 
	C754.412048,1020.223633 742.828491,994.607178 738.194275,965.671692 
	C736.123108,952.739685 735.132385,939.500549 735.101257,926.397339 
	C734.856934,823.565308 734.964355,720.732422 734.963379,617.899841 
	C734.963379,616.419006 734.963379,614.938171 734.963379,613.148560 
	C782.262512,613.148560 829.318481,613.148560 876.925903,613.148560 
	C876.925903,615.099670 876.925415,617.044739 876.925903,618.989868 
	C876.950256,718.488953 876.895996,817.988281 877.147400,917.486816 
	C877.167786,925.543030 878.507935,933.800720 880.585144,941.605347 
	C885.219543,959.017944 897.073242,969.525940 914.336121,974.254883 
	C928.180115,978.047119 942.078735,977.955017 955.802734,974.306763 
	C977.826355,968.452148 990.689575,952.974976 992.883789,928.927612 
	C994.106506,915.526428 993.743469,901.980652 994.095093,888.000000 
z"/>
<path fill="#F5F5F5" 
	d="
M652.930786,914.000000 
	C652.930786,960.977661 652.930786,1007.455322 652.930786,1054.218018 
	C605.519287,1054.218018 558.409607,1054.218018 510.910461,1054.218018 
	C510.910461,856.221252 510.910461,658.192566 510.910461,460.009155 
	C558.170166,460.009155 605.285767,460.009155 652.930786,460.009155 
	C652.930786,611.290039 652.930786,762.395020 652.930786,914.000000 
z"/>
<path fill="#F5F5F5" 
	d="
M1919.921631,723.000000 
	C1919.927368,680.668457 1919.932495,638.836853 1919.946045,597.005310 
	C1919.946167,596.678711 1920.057983,596.352112 1920.228760,595.417175 
	C1967.389893,618.657104 2014.648193,618.386780 2062.120605,595.345825 
	C2062.120605,748.750916 2062.120605,901.531677 2062.120605,1054.656250 
	C2014.980835,1054.656250 1967.753296,1054.656250 1919.921631,1054.656250 
	C1919.921631,944.338440 1919.921631,833.919250 1919.921631,723.000000 
z"/>
<path fill="#FFF500" 
	d="
M1926.916748,427.984344 
	C1941.147095,400.366913 1968.538452,385.179138 1998.455200,388.045227 
	C2034.480225,391.496490 2063.060547,423.921509 2062.264160,460.437683 
	C2061.038574,516.623840 2001.599365,549.510559 1953.375122,520.684204 
	C1922.553955,502.260590 1910.706909,461.122620 1926.916748,427.984344 
z"/>

</svg>