<?xml version="1.0" encoding="UTF-8" standalone="no"?>
<!DOCTYPE svg PUBLIC "-//W3C//DTD SVG 1.1//EN"
 "http://www.w3.org/Graphics/SVG/1.1/DTD/svg11.dtd">
<!-- Generated by graphviz version 2.47.3 (20210619.1520)
 -->
<!-- Title: dependencies Pages: 1 -->
<svg width="1028pt" height="247pt"
 viewBox="0.00 0.00 1028.00 246.80" xmlns="http://www.w3.org/2000/svg" xmlns:xlink="http://www.w3.org/1999/xlink">
<g id="graph0" class="graph" transform="scale(1 1) rotate(0) translate(4 242.8)">
<title>dependencies</title>
<polygon fill="white" stroke="transparent" points="-4,4 -4,-242.8 1024,-242.8 1024,4 -4,4"/>
<text text-anchor="middle" x="510" y="-8.2" font-family="sans-serif" font-size="14.00">dependencies</text>
<g id="clust1" class="cluster">
<title>cluster_PersonalityModule</title>
<polygon fill="none" stroke="black" stroke-dasharray="1,5" points="8,-32.8 8,-230.8 1012,-230.8 1012,-32.8 8,-32.8"/>
</g>
<g id="clust3" class="cluster">
<title>cluster_PersonalityModule_imports</title>
<polygon fill="none" stroke="black" points="334,-40.8 334,-92.8 1004,-92.8 1004,-40.8 334,-40.8"/>
</g>
<g id="clust4" class="cluster">
<title>cluster_PersonalityModule_exports</title>
<polygon fill="none" stroke="black" points="445,-170.8 445,-222.8 585,-222.8 585,-170.8 445,-170.8"/>
</g>
<g id="clust6" class="cluster">
<title>cluster_PersonalityModule_providers</title>
<polygon fill="none" stroke="black" points="16,-40.8 16,-92.8 326,-92.8 326,-40.8 16,-40.8"/>
</g>
<!-- ClaimReviewModule -->
<g id="node1" class="node">
<title>ClaimReviewModule</title>
<polygon fill="#8dd3c7" stroke="black" points="996.04,-84.8 993.04,-88.8 972.04,-88.8 969.04,-84.8 859.96,-84.8 859.96,-48.8 996.04,-48.8 996.04,-84.8"/>
<text text-anchor="middle" x="928" y="-62.6" font-family="Times,serif" font-size="14.00">ClaimReviewModule</text>
</g>
<!-- PersonalityModule -->
<g id="node6" class="node">
<title>PersonalityModule</title>
<polygon fill="#8dd3c7" stroke="black" points="576.04,-149.8 573.04,-153.8 552.04,-153.8 549.04,-149.8 453.96,-149.8 453.96,-113.8 576.04,-113.8 576.04,-149.8"/>
<text text-anchor="middle" x="515" y="-127.6" font-family="Times,serif" font-size="14.00">PersonalityModule</text>
</g>
<!-- ClaimReviewModule&#45;&gt;PersonalityModule -->
<g id="edge1" class="edge">
<title>ClaimReviewModule&#45;&gt;PersonalityModule</title>
<path fill="none" stroke="black" d="M928,-85.08C928,-106.12 928,-137.8 928,-137.8 928,-137.8 586.38,-137.8 586.38,-137.8"/>
<polygon fill="black" stroke="black" points="586.38,-134.3 576.38,-137.8 586.38,-141.3 586.38,-134.3"/>
</g>
<!-- ClaimRevisionModule -->
<g id="node2" class="node">
<title>ClaimRevisionModule</title>
<polygon fill="#8dd3c7" stroke="black" points="841.55,-84.8 838.55,-88.8 817.55,-88.8 814.55,-84.8 698.45,-84.8 698.45,-48.8 841.55,-48.8 841.55,-84.8"/>
<text text-anchor="middle" x="770" y="-62.6" font-family="Times,serif" font-size="14.00">ClaimRevisionModule</text>
</g>
<!-- ClaimRevisionModule&#45;&gt;PersonalityModule -->
<g id="edge2" class="edge">
<title>ClaimRevisionModule&#45;&gt;PersonalityModule</title>
<path fill="none" stroke="black" d="M770,-84.82C770,-102.17 770,-125.8 770,-125.8 770,-125.8 586.08,-125.8 586.08,-125.8"/>
<polygon fill="black" stroke="black" points="586.08,-122.3 576.08,-125.8 586.08,-129.3 586.08,-122.3"/>
</g>
<!-- HistoryModule -->
<g id="node3" class="node">
<title>HistoryModule</title>
<polygon fill="#8dd3c7" stroke="black" points="679.54,-84.8 676.54,-88.8 655.54,-88.8 652.54,-84.8 578.46,-84.8 578.46,-48.8 679.54,-48.8 679.54,-84.8"/>
<text text-anchor="middle" x="629" y="-62.6" font-family="Times,serif" font-size="14.00">HistoryModule</text>
</g>
<!-- HistoryModule&#45;&gt;PersonalityModule -->
<g id="edge3" class="edge">
<title>HistoryModule&#45;&gt;PersonalityModule</title>
<path fill="none" stroke="black" d="M578.43,-66.8C572.27,-66.8 568.1,-66.8 568.1,-66.8 568.1,-66.8 568.1,-103.69 568.1,-103.69"/>
<polygon fill="black" stroke="black" points="564.6,-103.69 568.1,-113.69 571.6,-103.69 564.6,-103.69"/>
</g>
<!-- ViewModule -->
<g id="node4" class="node">
<title>ViewModule</title>
<polygon fill="#8dd3c7" stroke="black" points="559.87,-84.8 556.87,-88.8 535.87,-88.8 532.87,-84.8 470.13,-84.8 470.13,-48.8 559.87,-48.8 559.87,-84.8"/>
<text text-anchor="middle" x="515" y="-62.6" font-family="Times,serif" font-size="14.00">ViewModule</text>
</g>
<!-- ViewModule&#45;&gt;PersonalityModule -->
<g id="edge4" class="edge">
<title>ViewModule&#45;&gt;PersonalityModule</title>
<path fill="none" stroke="black" d="M515,-84.91C515,-84.91 515,-103.79 515,-103.79"/>
<polygon fill="black" stroke="black" points="511.5,-103.79 515,-113.79 518.5,-103.79 511.5,-103.79"/>
</g>
<!-- WikidataModule -->
<g id="node5" class="node">
<title>WikidataModule</title>
<polygon fill="#8dd3c7" stroke="black" points="452.37,-84.8 449.37,-88.8 428.37,-88.8 425.37,-84.8 341.63,-84.8 341.63,-48.8 452.37,-48.8 452.37,-84.8"/>
<text text-anchor="middle" x="397" y="-62.6" font-family="Times,serif" font-size="14.00">WikidataModule</text>
</g>
<!-- WikidataModule&#45;&gt;PersonalityModule -->
<g id="edge5" class="edge">
<title>WikidataModule&#45;&gt;PersonalityModule</title>
<path fill="none" stroke="black" d="M452.6,-66.8C458.21,-66.8 461.9,-66.8 461.9,-66.8 461.9,-66.8 461.9,-103.69 461.9,-103.69"/>
<polygon fill="black" stroke="black" points="458.4,-103.69 461.9,-113.69 465.4,-103.69 458.4,-103.69"/>
</g>
<!-- PersonalityService  -->
<g id="node7" class="node">
<title>PersonalityService </title>
<polygon fill="#fb8072" stroke="black" points="577.47,-214.8 452.53,-214.8 452.53,-178.8 577.47,-178.8 577.47,-214.8"/>
<text text-anchor="middle" x="515" y="-192.6" font-family="Times,serif" font-size="14.00">PersonalityService </text>
</g>
<!-- PersonalityModule&#45;&gt;PersonalityService  -->
<g id="edge6" class="edge">
<title>PersonalityModule&#45;&gt;PersonalityService </title>
<path fill="none" stroke="black" stroke-dasharray="5,2" d="M515,-149.91C515,-149.91 515,-168.79 515,-168.79"/>
<polygon fill="black" stroke="black" points="511.5,-168.79 515,-178.79 518.5,-168.79 511.5,-168.79"/>
</g>
<!-- PersonalityService -->
<g id="node8" class="node">
<title>PersonalityService</title>
<ellipse fill="#fdb462" stroke="black" cx="235" cy="-66.8" rx="83.38" ry="18"/>
<text text-anchor="middle" x="235" y="-62.6" font-family="Times,serif" font-size="14.00">PersonalityService</text>
</g>
<!-- PersonalityService&#45;&gt;PersonalityModule -->
<g id="edge7" class="edge">
<title>PersonalityService&#45;&gt;PersonalityModule</title>
<path fill="none" stroke="black" d="M235,-84.82C235,-102.17 235,-125.8 235,-125.8 235,-125.8 443.9,-125.8 443.9,-125.8"/>
<polygon fill="black" stroke="black" points="443.9,-129.3 453.9,-125.8 443.9,-122.3 443.9,-129.3"/>
</g>
<!-- UtilService -->
<g id="node9" class="node">
<title>UtilService</title>
<ellipse fill="#fdb462" stroke="black" cx="79" cy="-66.8" rx="55.03" ry="18"/>
<text text-anchor="middle" x="79" y="-62.6" font-family="Times,serif" font-size="14.00">UtilService</text>
</g>
<!-- UtilService&#45;&gt;PersonalityModule -->
<g id="edge8" class="edge">
<title>UtilService&#45;&gt;PersonalityModule</title>
<path fill="none" stroke="black" d="M79,-85.08C79,-106.12 79,-137.8 79,-137.8 79,-137.8 443.92,-137.8 443.92,-137.8"/>
<polygon fill="black" stroke="black" points="443.92,-141.3 453.92,-137.8 443.92,-134.3 443.92,-141.3"/>
</g>
</g>
</svg>
