<?xml version="1.0" encoding="UTF-8" standalone="no"?>
<!DOCTYPE svg PUBLIC "-//W3C//DTD SVG 1.1//EN"
 "http://www.w3.org/Graphics/SVG/1.1/DTD/svg11.dtd">
<!-- Generated by graphviz version 2.47.3 (20210619.1520)
 -->
<!-- Title: dependencies Pages: 1 -->
<svg width="280pt" height="247pt"
 viewBox="0.00 0.00 280.00 246.80" xmlns="http://www.w3.org/2000/svg" xmlns:xlink="http://www.w3.org/1999/xlink">
<g id="graph0" class="graph" transform="scale(1 1) rotate(0) translate(4 242.8)">
<title>dependencies</title>
<polygon fill="white" stroke="transparent" points="-4,4 -4,-242.8 276,-242.8 276,4 -4,4"/>
<text text-anchor="middle" x="136" y="-8.2" font-family="sans-serif" font-size="14.00">dependencies</text>
<g id="clust1" class="cluster">
<title>cluster_OryModule</title>
<polygon fill="none" stroke="black" stroke-dasharray="1,5" points="8,-32.8 8,-230.8 264,-230.8 264,-32.8 8,-32.8"/>
</g>
<g id="clust4" class="cluster">
<title>cluster_OryModule_exports</title>
<polygon fill="none" stroke="black" points="91,-170.8 91,-222.8 191,-222.8 191,-170.8 91,-170.8"/>
</g>
<g id="clust3" class="cluster">
<title>cluster_OryModule_imports</title>
<polygon fill="none" stroke="black" points="150,-40.8 150,-92.8 256,-92.8 256,-40.8 150,-40.8"/>
</g>
<g id="clust6" class="cluster">
<title>cluster_OryModule_providers</title>
<polygon fill="none" stroke="black" points="16,-40.8 16,-92.8 142,-92.8 142,-40.8 16,-40.8"/>
</g>
<!-- ViewModule -->
<g id="node1" class="node">
<title>ViewModule</title>
<polygon fill="#8dd3c7" stroke="black" points="247.87,-84.8 244.87,-88.8 223.87,-88.8 220.87,-84.8 158.13,-84.8 158.13,-48.8 247.87,-48.8 247.87,-84.8"/>
<text text-anchor="middle" x="203" y="-62.6" font-family="Times,serif" font-size="14.00">ViewModule</text>
</g>
<!-- OryModule -->
<g id="node2" class="node">
<title>OryModule</title>
<polygon fill="#8dd3c7" stroke="black" points="181.82,-149.8 178.82,-153.8 157.82,-153.8 154.82,-149.8 100.18,-149.8 100.18,-113.8 181.82,-113.8 181.82,-149.8"/>
<text text-anchor="middle" x="141" y="-127.6" font-family="Times,serif" font-size="14.00">OryModule</text>
</g>
<!-- ViewModule&#45;&gt;OryModule -->
<g id="edge1" class="edge">
<title>ViewModule&#45;&gt;OryModule</title>
<path fill="none" stroke="black" d="M169.86,-84.91C169.86,-84.91 169.86,-103.79 169.86,-103.79"/>
<polygon fill="black" stroke="black" points="166.36,-103.79 169.86,-113.79 173.36,-103.79 166.36,-103.79"/>
</g>
<!-- OryService  -->
<g id="node3" class="node">
<title>OryService </title>
<polygon fill="#fb8072" stroke="black" points="182.75,-214.8 99.25,-214.8 99.25,-178.8 182.75,-178.8 182.75,-214.8"/>
<text text-anchor="middle" x="141" y="-192.6" font-family="Times,serif" font-size="14.00">OryService </text>
</g>
<!-- OryModule&#45;&gt;OryService  -->
<g id="edge2" class="edge">
<title>OryModule&#45;&gt;OryService </title>
<path fill="none" stroke="black" stroke-dasharray="5,2" d="M141,-149.91C141,-149.91 141,-168.79 141,-168.79"/>
<polygon fill="black" stroke="black" points="137.5,-168.79 141,-178.79 144.5,-168.79 137.5,-168.79"/>
</g>
<!-- OryService -->
<g id="node4" class="node">
<title>OryService</title>
<ellipse fill="#fdb462" stroke="black" cx="79" cy="-66.8" rx="55.01" ry="18"/>
<text text-anchor="middle" x="79" y="-62.6" font-family="Times,serif" font-size="14.00">OryService</text>
</g>
<!-- OryService&#45;&gt;OryModule -->
<g id="edge3" class="edge">
<title>OryService&#45;&gt;OryModule</title>
<path fill="none" stroke="black" d="M117.17,-79.95C117.17,-79.95 117.17,-103.49 117.17,-103.49"/>
<polygon fill="black" stroke="black" points="113.67,-103.49 117.17,-113.49 120.67,-103.49 113.67,-103.49"/>
</g>
</g>
</svg>
