<?xml version="1.0" encoding="UTF-8" standalone="no"?>
<!DOCTYPE svg PUBLIC "-//W3C//DTD SVG 1.1//EN"
 "http://www.w3.org/Graphics/SVG/1.1/DTD/svg11.dtd">
<!-- Generated by graphviz version 2.47.3 (20210619.1520)
 -->
<!-- Title: dependencies Pages: 1 -->
<svg width="1028pt" height="247pt"
 viewBox="0.00 0.00 1028.00 246.80" xmlns="http://www.w3.org/2000/svg" xmlns:xlink="http://www.w3.org/1999/xlink">
<g id="graph0" class="graph" transform="scale(1 1) rotate(0) translate(4 242.8)">
<title>dependencies</title>
<polygon fill="white" stroke="transparent" points="-4,4 -4,-242.8 1024,-242.8 1024,4 -4,4"/>
<text text-anchor="middle" x="510" y="-8.2" font-family="sans-serif" font-size="14.00">dependencies</text>
<g id="clust1" class="cluster">
<title>cluster_PersonalityModule</title>
<polygon fill="none" stroke="black" stroke-dasharray="1,5" points="8,-32.8 8,-230.8 1012,-230.8 1012,-32.8 8,-32.8"/>
</g>
<g id="clust6" class="cluster">
<title>cluster_PersonalityModule_providers</title>
<polygon fill="none" stroke="black" points="694,-40.8 694,-92.8 1004,-92.8 1004,-40.8 694,-40.8"/>
</g>
<g id="clust4" class="cluster">
<title>cluster_PersonalityModule_exports</title>
<polygon fill="none" stroke="black" points="382,-170.8 382,-222.8 522,-222.8 522,-170.8 382,-170.8"/>
</g>
<g id="clust3" class="cluster">
<title>cluster_PersonalityModule_imports</title>
<polygon fill="none" stroke="black" points="16,-40.8 16,-92.8 686,-92.8 686,-40.8 16,-40.8"/>
</g>
<!-- ClaimReviewModule -->
<g id="node1" class="node">
<title>ClaimReviewModule</title>
<polygon fill="#8dd3c7" stroke="black" points="678.04,-84.8 675.04,-88.8 654.04,-88.8 651.04,-84.8 541.96,-84.8 541.96,-48.8 678.04,-48.8 678.04,-84.8"/>
<text text-anchor="middle" x="610" y="-62.6" font-family="Times,serif" font-size="14.00">ClaimReviewModule</text>
</g>
<!-- PersonalityModule -->
<g id="node6" class="node">
<title>PersonalityModule</title>
<polygon fill="#8dd3c7" stroke="black" points="513.04,-149.8 510.04,-153.8 489.04,-153.8 486.04,-149.8 390.96,-149.8 390.96,-113.8 513.04,-113.8 513.04,-149.8"/>
<text text-anchor="middle" x="452" y="-127.6" font-family="Times,serif" font-size="14.00">PersonalityModule</text>
</g>
<!-- ClaimReviewModule&#45;&gt;PersonalityModule -->
<g id="edge1" class="edge">
<title>ClaimReviewModule&#45;&gt;PersonalityModule</title>
<path fill="none" stroke="black" d="M610,-84.83C610,-101.2 610,-122.8 610,-122.8 610,-122.8 523.09,-122.8 523.09,-122.8"/>
<polygon fill="black" stroke="black" points="523.09,-119.3 513.09,-122.8 523.09,-126.3 523.09,-119.3"/>
</g>
<!-- ClaimRevisionModule -->
<g id="node2" class="node">
<title>ClaimRevisionModule</title>
<polygon fill="#8dd3c7" stroke="black" points="523.55,-84.8 520.55,-88.8 499.55,-88.8 496.55,-84.8 380.45,-84.8 380.45,-48.8 523.55,-48.8 523.55,-84.8"/>
<text text-anchor="middle" x="452" y="-62.6" font-family="Times,serif" font-size="14.00">ClaimRevisionModule</text>
</g>
<!-- ClaimRevisionModule&#45;&gt;PersonalityModule -->
<g id="edge2" class="edge">
<title>ClaimRevisionModule&#45;&gt;PersonalityModule</title>
<path fill="none" stroke="black" d="M452,-84.91C452,-84.91 452,-103.79 452,-103.79"/>
<polygon fill="black" stroke="black" points="448.5,-103.79 452,-113.79 455.5,-103.79 448.5,-103.79"/>
</g>
<!-- HistoryModule -->
<g id="node3" class="node">
<title>HistoryModule</title>
<polygon fill="#8dd3c7" stroke="black" points="361.54,-84.8 358.54,-88.8 337.54,-88.8 334.54,-84.8 260.46,-84.8 260.46,-48.8 361.54,-48.8 361.54,-84.8"/>
<text text-anchor="middle" x="311" y="-62.6" font-family="Times,serif" font-size="14.00">HistoryModule</text>
</g>
<!-- HistoryModule&#45;&gt;PersonalityModule -->
<g id="edge3" class="edge">
<title>HistoryModule&#45;&gt;PersonalityModule</title>
<path fill="none" stroke="black" d="M311,-84.83C311,-101.2 311,-122.8 311,-122.8 311,-122.8 380.57,-122.8 380.57,-122.8"/>
<polygon fill="black" stroke="black" points="380.57,-126.3 390.57,-122.8 380.57,-119.3 380.57,-126.3"/>
</g>
<!-- ViewModule -->
<g id="node4" class="node">
<title>ViewModule</title>
<polygon fill="#8dd3c7" stroke="black" points="241.87,-84.8 238.87,-88.8 217.87,-88.8 214.87,-84.8 152.13,-84.8 152.13,-48.8 241.87,-48.8 241.87,-84.8"/>
<text text-anchor="middle" x="197" y="-62.6" font-family="Times,serif" font-size="14.00">ViewModule</text>
</g>
<!-- ViewModule&#45;&gt;PersonalityModule -->
<g id="edge4" class="edge">
<title>ViewModule&#45;&gt;PersonalityModule</title>
<path fill="none" stroke="black" d="M197,-84.91C197,-104.14 197,-131.8 197,-131.8 197,-131.8 380.92,-131.8 380.92,-131.8"/>
<polygon fill="black" stroke="black" points="380.92,-135.3 390.92,-131.8 380.92,-128.3 380.92,-135.3"/>
</g>
<!-- WikidataModule -->
<g id="node5" class="node">
<title>WikidataModule</title>
<polygon fill="#8dd3c7" stroke="black" points="134.37,-84.8 131.37,-88.8 110.37,-88.8 107.37,-84.8 23.63,-84.8 23.63,-48.8 134.37,-48.8 134.37,-84.8"/>
<text text-anchor="middle" x="79" y="-62.6" font-family="Times,serif" font-size="14.00">WikidataModule</text>
</g>
<!-- WikidataModule&#45;&gt;PersonalityModule -->
<g id="edge5" class="edge">
<title>WikidataModule&#45;&gt;PersonalityModule</title>
<path fill="none" stroke="black" d="M79,-85.09C79,-107.01 79,-140.8 79,-140.8 79,-140.8 380.82,-140.8 380.82,-140.8"/>
<polygon fill="black" stroke="black" points="380.82,-144.3 390.82,-140.8 380.82,-137.3 380.82,-144.3"/>
</g>
<!-- PersonalityService  -->
<g id="node7" class="node">
<title>PersonalityService </title>
<polygon fill="#fb8072" stroke="black" points="514.47,-214.8 389.53,-214.8 389.53,-178.8 514.47,-178.8 514.47,-214.8"/>
<text text-anchor="middle" x="452" y="-192.6" font-family="Times,serif" font-size="14.00">PersonalityService </text>
</g>
<!-- PersonalityModule&#45;&gt;PersonalityService  -->
<g id="edge6" class="edge">
<title>PersonalityModule&#45;&gt;PersonalityService </title>
<path fill="none" stroke="black" stroke-dasharray="5,2" d="M452,-149.91C452,-149.91 452,-168.79 452,-168.79"/>
<polygon fill="black" stroke="black" points="448.5,-168.79 452,-178.79 455.5,-168.79 448.5,-168.79"/>
</g>
<!-- PersonalityService -->
<g id="node8" class="node">
<title>PersonalityService</title>
<ellipse fill="#fdb462" stroke="black" cx="913" cy="-66.8" rx="83.38" ry="18"/>
<text text-anchor="middle" x="913" y="-62.6" font-family="Times,serif" font-size="14.00">PersonalityService</text>
</g>
<!-- PersonalityService&#45;&gt;PersonalityModule -->
<g id="edge7" class="edge">
<title>PersonalityService&#45;&gt;PersonalityModule</title>
<path fill="none" stroke="black" d="M913,-85.09C913,-107.01 913,-140.8 913,-140.8 913,-140.8 523.22,-140.8 523.22,-140.8"/>
<polygon fill="black" stroke="black" points="523.22,-137.3 513.22,-140.8 523.22,-144.3 523.22,-137.3"/>
</g>
<!-- UtilService -->
<g id="node9" class="node">
<title>UtilService</title>
<ellipse fill="#fdb462" stroke="black" cx="757" cy="-66.8" rx="55.03" ry="18"/>
<text text-anchor="middle" x="757" y="-62.6" font-family="Times,serif" font-size="14.00">UtilService</text>
</g>
<!-- UtilService&#45;&gt;PersonalityModule -->
<g id="edge8" class="edge">
<title>UtilService&#45;&gt;PersonalityModule</title>
<path fill="none" stroke="black" d="M757,-84.91C757,-104.14 757,-131.8 757,-131.8 757,-131.8 523.35,-131.8 523.35,-131.8"/>
<polygon fill="black" stroke="black" points="523.35,-128.3 513.35,-131.8 523.35,-135.3 523.35,-128.3"/>
</g>
</g>
</svg>
