<?xml version="1.0" encoding="UTF-8" standalone="no"?>
<!DOCTYPE svg PUBLIC "-//W3C//DTD SVG 1.1//EN"
 "http://www.w3.org/Graphics/SVG/1.1/DTD/svg11.dtd">
<!-- Generated by graphviz version 2.47.3 (20210619.1520)
 -->
<!-- Title: dependencies Pages: 1 -->
<svg width="788pt" height="247pt"
 viewBox="0.00 0.00 788.00 246.80" xmlns="http://www.w3.org/2000/svg" xmlns:xlink="http://www.w3.org/1999/xlink">
<g id="graph0" class="graph" transform="scale(1 1) rotate(0) translate(4 242.8)">
<title>dependencies</title>
<polygon fill="white" stroke="transparent" points="-4,4 -4,-242.8 784,-242.8 784,4 -4,4"/>
<text text-anchor="middle" x="390" y="-8.2" font-family="sans-serif" font-size="14.00">dependencies</text>
<g id="clust1" class="cluster">
<title>cluster_ClaimReviewTaskModule</title>
<polygon fill="none" stroke="black" stroke-dasharray="1,5" points="8,-32.8 8,-230.8 772,-230.8 772,-32.8 8,-32.8"/>
</g>
<g id="clust3" class="cluster">
<title>cluster_ClaimReviewTaskModule_imports</title>
<polygon fill="none" stroke="black" points="264,-40.8 264,-92.8 764,-92.8 764,-40.8 264,-40.8"/>
</g>
<g id="clust4" class="cluster">
<title>cluster_ClaimReviewTaskModule_exports</title>
<polygon fill="none" stroke="black" points="338,-170.8 338,-222.8 520,-222.8 520,-170.8 338,-170.8"/>
</g>
<g id="clust6" class="cluster">
<title>cluster_ClaimReviewTaskModule_providers</title>
<polygon fill="none" stroke="black" points="16,-40.8 16,-92.8 256,-92.8 256,-40.8 16,-40.8"/>
</g>
<!-- CaptchaModule -->
<g id="node1" class="node">
<title>CaptchaModule</title>
<polygon fill="#8dd3c7" stroke="black" points="755.92,-84.8 752.92,-88.8 731.92,-88.8 728.92,-84.8 650.08,-84.8 650.08,-48.8 755.92,-48.8 755.92,-84.8"/>
<text text-anchor="middle" x="703" y="-62.6" font-family="Times,serif" font-size="14.00">CaptchaModule</text>
</g>
<!-- ClaimReviewTaskModule -->
<g id="node5" class="node">
<title>ClaimReviewTaskModule</title>
<polygon fill="#8dd3c7" stroke="black" points="510.75,-149.8 507.75,-153.8 486.75,-153.8 483.75,-149.8 347.25,-149.8 347.25,-113.8 510.75,-113.8 510.75,-149.8"/>
<text text-anchor="middle" x="429" y="-127.6" font-family="Times,serif" font-size="14.00">ClaimReviewTaskModule</text>
</g>
<!-- CaptchaModule&#45;&gt;ClaimReviewTaskModule -->
<g id="edge1" class="edge">
<title>CaptchaModule&#45;&gt;ClaimReviewTaskModule</title>
<path fill="none" stroke="black" d="M703,-84.91C703,-104.14 703,-131.8 703,-131.8 703,-131.8 520.84,-131.8 520.84,-131.8"/>
<polygon fill="black" stroke="black" points="520.84,-128.3 510.84,-131.8 520.84,-135.3 520.84,-128.3"/>
</g>
<!-- ClaimReviewModule -->
<g id="node2" class="node">
<title>ClaimReviewModule</title>
<polygon fill="#8dd3c7" stroke="black" points="632.04,-84.8 629.04,-88.8 608.04,-88.8 605.04,-84.8 495.96,-84.8 495.96,-48.8 632.04,-48.8 632.04,-84.8"/>
<text text-anchor="middle" x="564" y="-62.6" font-family="Times,serif" font-size="14.00">ClaimReviewModule</text>
</g>
<!-- ClaimReviewModule&#45;&gt;ClaimReviewTaskModule -->
<g id="edge2" class="edge">
<title>ClaimReviewModule&#45;&gt;ClaimReviewTaskModule</title>
<path fill="none" stroke="black" d="M503.3,-84.91C503.3,-84.91 503.3,-103.79 503.3,-103.79"/>
<polygon fill="black" stroke="black" points="499.8,-103.79 503.3,-113.79 506.8,-103.79 499.8,-103.79"/>
</g>
<!-- ReportModule -->
<g id="node3" class="node">
<title>ReportModule</title>
<polygon fill="#8dd3c7" stroke="black" points="477.65,-84.8 474.65,-88.8 453.65,-88.8 450.65,-84.8 380.35,-84.8 380.35,-48.8 477.65,-48.8 477.65,-84.8"/>
<text text-anchor="middle" x="429" y="-62.6" font-family="Times,serif" font-size="14.00">ReportModule</text>
</g>
<!-- ReportModule&#45;&gt;ClaimReviewTaskModule -->
<g id="edge3" class="edge">
<title>ReportModule&#45;&gt;ClaimReviewTaskModule</title>
<path fill="none" stroke="black" d="M429,-84.91C429,-84.91 429,-103.79 429,-103.79"/>
<polygon fill="black" stroke="black" points="425.5,-103.79 429,-113.79 432.5,-103.79 425.5,-103.79"/>
</g>
<!-- ViewModule -->
<g id="node4" class="node">
<title>ViewModule</title>
<polygon fill="#8dd3c7" stroke="black" points="361.87,-84.8 358.87,-88.8 337.87,-88.8 334.87,-84.8 272.13,-84.8 272.13,-48.8 361.87,-48.8 361.87,-84.8"/>
<text text-anchor="middle" x="317" y="-62.6" font-family="Times,serif" font-size="14.00">ViewModule</text>
</g>
<!-- ViewModule&#45;&gt;ClaimReviewTaskModule -->
<g id="edge4" class="edge">
<title>ViewModule&#45;&gt;ClaimReviewTaskModule</title>
<path fill="none" stroke="black" d="M354.53,-84.91C354.53,-84.91 354.53,-103.79 354.53,-103.79"/>
<polygon fill="black" stroke="black" points="351.03,-103.79 354.53,-113.79 358.03,-103.79 351.03,-103.79"/>
</g>
<!-- ClaimReviewTaskService  -->
<g id="node6" class="node">
<title>ClaimReviewTaskService </title>
<polygon fill="#fb8072" stroke="black" points="511.68,-214.8 346.32,-214.8 346.32,-178.8 511.68,-178.8 511.68,-214.8"/>
<text text-anchor="middle" x="429" y="-192.6" font-family="Times,serif" font-size="14.00">ClaimReviewTaskService </text>
</g>
<!-- ClaimReviewTaskModule&#45;&gt;ClaimReviewTaskService  -->
<g id="edge5" class="edge">
<title>ClaimReviewTaskModule&#45;&gt;ClaimReviewTaskService </title>
<path fill="none" stroke="black" stroke-dasharray="5,2" d="M429,-149.91C429,-149.91 429,-168.79 429,-168.79"/>
<polygon fill="black" stroke="black" points="425.5,-168.79 429,-178.79 432.5,-168.79 425.5,-168.79"/>
</g>
<!-- ClaimReviewTaskService -->
<g id="node7" class="node">
<title>ClaimReviewTaskService</title>
<ellipse fill="#fdb462" stroke="black" cx="136" cy="-66.8" rx="111.73" ry="18"/>
<text text-anchor="middle" x="136" y="-62.6" font-family="Times,serif" font-size="14.00">ClaimReviewTaskService</text>
</g>
<!-- ClaimReviewTaskService&#45;&gt;ClaimReviewTaskModule -->
<g id="edge6" class="edge">
<title>ClaimReviewTaskService&#45;&gt;ClaimReviewTaskModule</title>
<path fill="none" stroke="black" d="M136,-84.91C136,-104.14 136,-131.8 136,-131.8 136,-131.8 336.99,-131.8 336.99,-131.8"/>
<polygon fill="black" stroke="black" points="336.99,-135.3 346.99,-131.8 336.99,-128.3 336.99,-135.3"/>
</g>
</g>
</svg>
