<?xml version="1.0" encoding="UTF-8" standalone="no"?>
<!DOCTYPE svg PUBLIC "-//W3C//DTD SVG 1.1//EN"
 "http://www.w3.org/Graphics/SVG/1.1/DTD/svg11.dtd">
<!-- Generated by graphviz version 2.47.3 (20210619.1520)
 -->
<!-- Title: dependencies Pages: 1 -->
<svg width="612pt" height="247pt"
 viewBox="0.00 0.00 612.00 246.80" xmlns="http://www.w3.org/2000/svg" xmlns:xlink="http://www.w3.org/1999/xlink">
<g id="graph0" class="graph" transform="scale(1 1) rotate(0) translate(4 242.8)">
<title>dependencies</title>
<polygon fill="white" stroke="transparent" points="-4,4 -4,-242.8 608,-242.8 608,4 -4,4"/>
<text text-anchor="middle" x="302" y="-8.2" font-family="sans-serif" font-size="14.00">dependencies</text>
<g id="clust1" class="cluster">
<title>cluster_ClaimReviewModule</title>
<polygon fill="none" stroke="black" stroke-dasharray="1,5" points="8,-32.8 8,-230.8 596,-230.8 596,-32.8 8,-32.8"/>
</g>
<g id="clust4" class="cluster">
<title>cluster_ClaimReviewModule_exports</title>
<polygon fill="none" stroke="black" points="179,-170.8 179,-222.8 333,-222.8 333,-170.8 179,-170.8"/>
</g>
<g id="clust6" class="cluster">
<title>cluster_ClaimReviewModule_providers</title>
<polygon fill="none" stroke="black" points="258,-40.8 258,-92.8 588,-92.8 588,-40.8 258,-40.8"/>
</g>
<g id="clust3" class="cluster">
<title>cluster_ClaimReviewModule_imports</title>
<polygon fill="none" stroke="black" points="16,-40.8 16,-92.8 250,-92.8 250,-40.8 16,-40.8"/>
</g>
<!-- HistoryModule -->
<g id="node1" class="node">
<title>HistoryModule</title>
<polygon fill="#8dd3c7" stroke="black" points="241.54,-84.8 238.54,-88.8 217.54,-88.8 214.54,-84.8 140.46,-84.8 140.46,-48.8 241.54,-48.8 241.54,-84.8"/>
<text text-anchor="middle" x="191" y="-62.6" font-family="Times,serif" font-size="14.00">HistoryModule</text>
</g>
<!-- ClaimReviewModule -->
<g id="node3" class="node">
<title>ClaimReviewModule</title>
<polygon fill="#8dd3c7" stroke="black" points="324.04,-149.8 321.04,-153.8 300.04,-153.8 297.04,-149.8 187.96,-149.8 187.96,-113.8 324.04,-113.8 324.04,-149.8"/>
<text text-anchor="middle" x="256" y="-127.6" font-family="Times,serif" font-size="14.00">ClaimReviewModule</text>
</g>
<!-- HistoryModule&#45;&gt;ClaimReviewModule -->
<g id="edge1" class="edge">
<title>HistoryModule&#45;&gt;ClaimReviewModule</title>
<path fill="none" stroke="black" d="M214.75,-84.91C214.75,-84.91 214.75,-103.79 214.75,-103.79"/>
<polygon fill="black" stroke="black" points="211.25,-103.79 214.75,-113.79 218.25,-103.79 211.25,-103.79"/>
</g>
<!-- SourceModule -->
<g id="node2" class="node">
<title>SourceModule</title>
<polygon fill="#8dd3c7" stroke="black" points="122.42,-84.8 119.42,-88.8 98.42,-88.8 95.42,-84.8 23.58,-84.8 23.58,-48.8 122.42,-48.8 122.42,-84.8"/>
<text text-anchor="middle" x="73" y="-62.6" font-family="Times,serif" font-size="14.00">SourceModule</text>
</g>
<!-- SourceModule&#45;&gt;ClaimReviewModule -->
<g id="edge2" class="edge">
<title>SourceModule&#45;&gt;ClaimReviewModule</title>
<path fill="none" stroke="black" d="M73,-84.91C73,-104.14 73,-131.8 73,-131.8 73,-131.8 177.86,-131.8 177.86,-131.8"/>
<polygon fill="black" stroke="black" points="177.86,-135.3 187.86,-131.8 177.86,-128.3 177.86,-135.3"/>
</g>
<!-- ClaimReviewService  -->
<g id="node4" class="node">
<title>ClaimReviewService </title>
<polygon fill="#fb8072" stroke="black" points="325.46,-214.8 186.54,-214.8 186.54,-178.8 325.46,-178.8 325.46,-214.8"/>
<text text-anchor="middle" x="256" y="-192.6" font-family="Times,serif" font-size="14.00">ClaimReviewService </text>
</g>
<!-- ClaimReviewModule&#45;&gt;ClaimReviewService  -->
<g id="edge3" class="edge">
<title>ClaimReviewModule&#45;&gt;ClaimReviewService </title>
<path fill="none" stroke="black" stroke-dasharray="5,2" d="M256,-149.91C256,-149.91 256,-168.79 256,-168.79"/>
<polygon fill="black" stroke="black" points="252.5,-168.79 256,-178.79 259.5,-168.79 252.5,-168.79"/>
</g>
<!-- ClaimReviewService -->
<g id="node5" class="node">
<title>ClaimReviewService</title>
<ellipse fill="#fdb462" stroke="black" cx="487" cy="-66.8" rx="93.19" ry="18"/>
<text text-anchor="middle" x="487" y="-62.6" font-family="Times,serif" font-size="14.00">ClaimReviewService</text>
</g>
<!-- ClaimReviewService&#45;&gt;ClaimReviewModule -->
<g id="edge4" class="edge">
<title>ClaimReviewService&#45;&gt;ClaimReviewModule</title>
<path fill="none" stroke="black" d="M487,-84.91C487,-104.14 487,-131.8 487,-131.8 487,-131.8 334.06,-131.8 334.06,-131.8"/>
<polygon fill="black" stroke="black" points="334.06,-128.3 324.06,-131.8 334.06,-135.3 334.06,-128.3"/>
</g>
<!-- UtilService -->
<g id="node6" class="node">
<title>UtilService</title>
<ellipse fill="#fdb462" stroke="black" cx="321" cy="-66.8" rx="55.03" ry="18"/>
<text text-anchor="middle" x="321" y="-62.6" font-family="Times,serif" font-size="14.00">UtilService</text>
</g>
<!-- UtilService&#45;&gt;ClaimReviewModule -->
<g id="edge5" class="edge">
<title>UtilService&#45;&gt;ClaimReviewModule</title>
<path fill="none" stroke="black" d="M295.13,-82.87C295.13,-82.87 295.13,-103.62 295.13,-103.62"/>
<polygon fill="black" stroke="black" points="291.63,-103.62 295.13,-113.62 298.63,-103.62 291.63,-103.62"/>
</g>
</g>
</svg>
