<?xml version="1.0" encoding="UTF-8" standalone="no"?>
<!DOCTYPE svg PUBLIC "-//W3C//DTD SVG 1.1//EN"
 "http://www.w3.org/Graphics/SVG/1.1/DTD/svg11.dtd">
<!-- Generated by graphviz version 2.47.3 (20210619.1520)
 -->
<!-- Title: dependencies Pages: 1 -->
<svg width="492pt" height="247pt"
 viewBox="0.00 0.00 492.00 246.80" xmlns="http://www.w3.org/2000/svg" xmlns:xlink="http://www.w3.org/1999/xlink">
<g id="graph0" class="graph" transform="scale(1 1) rotate(0) translate(4 242.8)">
<title>dependencies</title>
<polygon fill="white" stroke="transparent" points="-4,4 -4,-242.8 488,-242.8 488,4 -4,4"/>
<text text-anchor="middle" x="242" y="-8.2" font-family="sans-serif" font-size="14.00">dependencies</text>
<g id="clust1" class="cluster">
<title>cluster_ClaimReviewModule</title>
<polygon fill="none" stroke="black" stroke-dasharray="1,5" points="8,-32.8 8,-230.8 476,-230.8 476,-32.8 8,-32.8"/>
</g>
<g id="clust3" class="cluster">
<title>cluster_ClaimReviewModule_imports</title>
<polygon fill="none" stroke="black" points="354,-40.8 354,-92.8 468,-92.8 468,-40.8 354,-40.8"/>
</g>
<g id="clust4" class="cluster">
<title>cluster_ClaimReviewModule_exports</title>
<polygon fill="none" stroke="black" points="168,-170.8 168,-222.8 322,-222.8 322,-170.8 168,-170.8"/>
</g>
<g id="clust6" class="cluster">
<title>cluster_ClaimReviewModule_providers</title>
<polygon fill="none" stroke="black" points="16,-40.8 16,-92.8 346,-92.8 346,-40.8 16,-40.8"/>
</g>
<!-- SourceModule -->
<g id="node1" class="node">
<title>SourceModule</title>
<polygon fill="#8dd3c7" stroke="black" points="460.42,-84.8 457.42,-88.8 436.42,-88.8 433.42,-84.8 361.58,-84.8 361.58,-48.8 460.42,-48.8 460.42,-84.8"/>
<text text-anchor="middle" x="411" y="-62.6" font-family="Times,serif" font-size="14.00">SourceModule</text>
</g>
<!-- ClaimReviewModule -->
<g id="node2" class="node">
<title>ClaimReviewModule</title>
<polygon fill="#8dd3c7" stroke="black" points="313.04,-149.8 310.04,-153.8 289.04,-153.8 286.04,-149.8 176.96,-149.8 176.96,-113.8 313.04,-113.8 313.04,-149.8"/>
<text text-anchor="middle" x="245" y="-127.6" font-family="Times,serif" font-size="14.00">ClaimReviewModule</text>
</g>
<!-- SourceModule&#45;&gt;ClaimReviewModule -->
<g id="edge1" class="edge">
<title>SourceModule&#45;&gt;ClaimReviewModule</title>
<path fill="none" stroke="black" d="M411,-84.91C411,-104.14 411,-131.8 411,-131.8 411,-131.8 323.48,-131.8 323.48,-131.8"/>
<polygon fill="black" stroke="black" points="323.48,-128.3 313.48,-131.8 323.48,-135.3 323.48,-128.3"/>
</g>
<!-- ClaimReviewService  -->
<g id="node3" class="node">
<title>ClaimReviewService </title>
<polygon fill="#fb8072" stroke="black" points="314.46,-214.8 175.54,-214.8 175.54,-178.8 314.46,-178.8 314.46,-214.8"/>
<text text-anchor="middle" x="245" y="-192.6" font-family="Times,serif" font-size="14.00">ClaimReviewService </text>
</g>
<!-- ClaimReviewModule&#45;&gt;ClaimReviewService  -->
<g id="edge2" class="edge">
<title>ClaimReviewModule&#45;&gt;ClaimReviewService </title>
<path fill="none" stroke="black" stroke-dasharray="5,2" d="M245,-149.91C245,-149.91 245,-168.79 245,-168.79"/>
<polygon fill="black" stroke="black" points="241.5,-168.79 245,-178.79 248.5,-168.79 241.5,-168.79"/>
</g>
<!-- ClaimReviewService -->
<g id="node4" class="node">
<title>ClaimReviewService</title>
<ellipse fill="#fdb462" stroke="black" cx="245" cy="-66.8" rx="93.19" ry="18"/>
<text text-anchor="middle" x="245" y="-62.6" font-family="Times,serif" font-size="14.00">ClaimReviewService</text>
</g>
<!-- ClaimReviewService&#45;&gt;ClaimReviewModule -->
<g id="edge3" class="edge">
<title>ClaimReviewService&#45;&gt;ClaimReviewModule</title>
<path fill="none" stroke="black" d="M245,-84.91C245,-84.91 245,-103.79 245,-103.79"/>
<polygon fill="black" stroke="black" points="241.5,-103.79 245,-113.79 248.5,-103.79 241.5,-103.79"/>
</g>
<!-- UtilService -->
<g id="node5" class="node">
<title>UtilService</title>
<ellipse fill="#fdb462" stroke="black" cx="79" cy="-66.8" rx="55.03" ry="18"/>
<text text-anchor="middle" x="79" y="-62.6" font-family="Times,serif" font-size="14.00">UtilService</text>
</g>
<!-- UtilService&#45;&gt;ClaimReviewModule -->
<g id="edge4" class="edge">
<title>UtilService&#45;&gt;ClaimReviewModule</title>
<path fill="none" stroke="black" d="M79,-84.91C79,-104.14 79,-131.8 79,-131.8 79,-131.8 166.52,-131.8 166.52,-131.8"/>
<polygon fill="black" stroke="black" points="166.52,-135.3 176.52,-131.8 166.52,-128.3 166.52,-135.3"/>
</g>
</g>
</svg>
