<?xml version="1.0" encoding="UTF-8" standalone="no"?>
<!DOCTYPE svg PUBLIC "-//W3C//DTD SVG 1.1//EN"
 "http://www.w3.org/Graphics/SVG/1.1/DTD/svg11.dtd">
<!-- Generated by graphviz version 2.47.3 (20210619.1520)
 -->
<!-- Title: dependencies Pages: 1 -->
<svg width="492pt" height="247pt"
 viewBox="0.00 0.00 492.00 246.80" xmlns="http://www.w3.org/2000/svg" xmlns:xlink="http://www.w3.org/1999/xlink">
<g id="graph0" class="graph" transform="scale(1 1) rotate(0) translate(4 242.8)">
<title>dependencies</title>
<polygon fill="white" stroke="transparent" points="-4,4 -4,-242.8 488,-242.8 488,4 -4,4"/>
<text text-anchor="middle" x="242" y="-8.2" font-family="sans-serif" font-size="14.00">dependencies</text>
<g id="clust1" class="cluster">
<title>cluster_ClaimReviewModule</title>
<polygon fill="none" stroke="black" stroke-dasharray="1,5" points="8,-32.8 8,-230.8 476,-230.8 476,-32.8 8,-32.8"/>
</g>
<g id="clust6" class="cluster">
<title>cluster_ClaimReviewModule_providers</title>
<polygon fill="none" stroke="black" points="138,-40.8 138,-92.8 468,-92.8 468,-40.8 138,-40.8"/>
</g>
<g id="clust3" class="cluster">
<title>cluster_ClaimReviewModule_imports</title>
<polygon fill="none" stroke="black" points="16,-40.8 16,-92.8 130,-92.8 130,-40.8 16,-40.8"/>
</g>
<g id="clust4" class="cluster">
<title>cluster_ClaimReviewModule_exports</title>
<polygon fill="none" stroke="black" points="124,-170.8 124,-222.8 278,-222.8 278,-170.8 124,-170.8"/>
</g>
<!-- SourceModule -->
<g id="node1" class="node">
<title>SourceModule</title>
<polygon fill="#8dd3c7" stroke="black" points="122.42,-84.8 119.42,-88.8 98.42,-88.8 95.42,-84.8 23.58,-84.8 23.58,-48.8 122.42,-48.8 122.42,-84.8"/>
<text text-anchor="middle" x="73" y="-62.6" font-family="Times,serif" font-size="14.00">SourceModule</text>
</g>
<!-- ClaimReviewModule -->
<g id="node2" class="node">
<title>ClaimReviewModule</title>
<polygon fill="#8dd3c7" stroke="black" points="269.04,-149.8 266.04,-153.8 245.04,-153.8 242.04,-149.8 132.96,-149.8 132.96,-113.8 269.04,-113.8 269.04,-149.8"/>
<text text-anchor="middle" x="201" y="-127.6" font-family="Times,serif" font-size="14.00">ClaimReviewModule</text>
</g>
<!-- SourceModule&#45;&gt;ClaimReviewModule -->
<g id="edge1" class="edge">
<title>SourceModule&#45;&gt;ClaimReviewModule</title>
<path fill="none" stroke="black" d="M122.27,-66.8C132.04,-66.8 139.36,-66.8 139.36,-66.8 139.36,-66.8 139.36,-103.69 139.36,-103.69"/>
<polygon fill="black" stroke="black" points="135.86,-103.69 139.36,-113.69 142.86,-103.69 135.86,-103.69"/>
</g>
<!-- ClaimReviewService  -->
<g id="node3" class="node">
<title>ClaimReviewService </title>
<polygon fill="#fb8072" stroke="black" points="270.46,-214.8 131.54,-214.8 131.54,-178.8 270.46,-178.8 270.46,-214.8"/>
<text text-anchor="middle" x="201" y="-192.6" font-family="Times,serif" font-size="14.00">ClaimReviewService </text>
</g>
<!-- ClaimReviewModule&#45;&gt;ClaimReviewService  -->
<g id="edge2" class="edge">
<title>ClaimReviewModule&#45;&gt;ClaimReviewService </title>
<path fill="none" stroke="black" stroke-dasharray="5,2" d="M201,-149.91C201,-149.91 201,-168.79 201,-168.79"/>
<polygon fill="black" stroke="black" points="197.5,-168.79 201,-178.79 204.5,-168.79 197.5,-168.79"/>
</g>
<!-- ClaimReviewService -->
<g id="node4" class="node">
<title>ClaimReviewService</title>
<ellipse fill="#fdb462" stroke="black" cx="367" cy="-66.8" rx="93.19" ry="18"/>
<text text-anchor="middle" x="367" y="-62.6" font-family="Times,serif" font-size="14.00">ClaimReviewService</text>
</g>
<!-- ClaimReviewService&#45;&gt;ClaimReviewModule -->
<g id="edge3" class="edge">
<title>ClaimReviewService&#45;&gt;ClaimReviewModule</title>
<path fill="none" stroke="black" d="M273.81,-66.8C266.95,-66.8 262.64,-66.8 262.64,-66.8 262.64,-66.8 262.64,-103.69 262.64,-103.69"/>
<polygon fill="black" stroke="black" points="259.14,-103.69 262.64,-113.69 266.14,-103.69 259.14,-103.69"/>
</g>
<!-- UtilService -->
<g id="node5" class="node">
<title>UtilService</title>
<ellipse fill="#fdb462" stroke="black" cx="201" cy="-66.8" rx="55.03" ry="18"/>
<text text-anchor="middle" x="201" y="-62.6" font-family="Times,serif" font-size="14.00">UtilService</text>
</g>
<!-- UtilService&#45;&gt;ClaimReviewModule -->
<g id="edge4" class="edge">
<title>UtilService&#45;&gt;ClaimReviewModule</title>
<path fill="none" stroke="black" d="M201,-84.91C201,-84.91 201,-103.79 201,-103.79"/>
<polygon fill="black" stroke="black" points="197.5,-103.79 201,-113.79 204.5,-103.79 197.5,-103.79"/>
</g>
</g>
</svg>
