<?xml version="1.0" encoding="UTF-8" standalone="no"?>
<!DOCTYPE svg PUBLIC "-//W3C//DTD SVG 1.1//EN"
 "http://www.w3.org/Graphics/SVG/1.1/DTD/svg11.dtd">
<!-- Generated by graphviz version 2.47.3 (20210619.1520)
 -->
<!-- Title: dependencies Pages: 1 -->
<svg width="570pt" height="247pt"
 viewBox="0.00 0.00 570.00 246.80" xmlns="http://www.w3.org/2000/svg" xmlns:xlink="http://www.w3.org/1999/xlink">
<g id="graph0" class="graph" transform="scale(1 1) rotate(0) translate(4 242.8)">
<title>dependencies</title>
<polygon fill="white" stroke="transparent" points="-4,4 -4,-242.8 566,-242.8 566,4 -4,4"/>
<text text-anchor="middle" x="281" y="-8.2" font-family="sans-serif" font-size="14.00">dependencies</text>
<g id="clust1" class="cluster">
<title>cluster_ParserModule</title>
<polygon fill="none" stroke="black" stroke-dasharray="1,5" points="8,-32.8 8,-230.8 554,-230.8 554,-32.8 8,-32.8"/>
</g>
<g id="clust6" class="cluster">
<title>cluster_ParserModule_providers</title>
<polygon fill="none" stroke="black" points="402,-40.8 402,-92.8 546,-92.8 546,-40.8 402,-40.8"/>
</g>
<g id="clust3" class="cluster">
<title>cluster_ParserModule_imports</title>
<polygon fill="none" stroke="black" points="16,-40.8 16,-92.8 394,-92.8 394,-40.8 16,-40.8"/>
</g>
<g id="clust4" class="cluster">
<title>cluster_ParserModule_exports</title>
<polygon fill="none" stroke="black" points="206,-170.8 206,-222.8 318,-222.8 318,-170.8 206,-170.8"/>
</g>
<!-- ParagraphModule -->
<g id="node1" class="node">
<title>ParagraphModule</title>
<polygon fill="#8dd3c7" stroke="black" points="386.3,-84.8 383.3,-88.8 362.3,-88.8 359.3,-84.8 269.7,-84.8 269.7,-48.8 386.3,-48.8 386.3,-84.8"/>
<text text-anchor="middle" x="328" y="-62.6" font-family="Times,serif" font-size="14.00">ParagraphModule</text>
</g>
<!-- ParserModule -->
<g id="node4" class="node">
<title>ParserModule</title>
<polygon fill="#8dd3c7" stroke="black" points="309.03,-149.8 306.03,-153.8 285.03,-153.8 282.03,-149.8 214.97,-149.8 214.97,-113.8 309.03,-113.8 309.03,-149.8"/>
<text text-anchor="middle" x="262" y="-127.6" font-family="Times,serif" font-size="14.00">ParserModule</text>
</g>
<!-- ParagraphModule&#45;&gt;ParserModule -->
<g id="edge1" class="edge">
<title>ParagraphModule&#45;&gt;ParserModule</title>
<path fill="none" stroke="black" d="M289.56,-84.91C289.56,-84.91 289.56,-103.79 289.56,-103.79"/>
<polygon fill="black" stroke="black" points="286.06,-103.79 289.56,-113.79 293.06,-103.79 286.06,-103.79"/>
</g>
<!-- SentenceModule -->
<g id="node2" class="node">
<title>SentenceModule</title>
<polygon fill="#8dd3c7" stroke="black" points="252.08,-84.8 249.08,-88.8 228.08,-88.8 225.08,-84.8 141.92,-84.8 141.92,-48.8 252.08,-48.8 252.08,-84.8"/>
<text text-anchor="middle" x="197" y="-62.6" font-family="Times,serif" font-size="14.00">SentenceModule</text>
</g>
<!-- SentenceModule&#45;&gt;ParserModule -->
<g id="edge2" class="edge">
<title>SentenceModule&#45;&gt;ParserModule</title>
<path fill="none" stroke="black" d="M233.39,-84.91C233.39,-84.91 233.39,-103.79 233.39,-103.79"/>
<polygon fill="black" stroke="black" points="229.89,-103.79 233.39,-113.79 236.89,-103.79 229.89,-103.79"/>
</g>
<!-- SpeechModule -->
<g id="node3" class="node">
<title>SpeechModule</title>
<polygon fill="#8dd3c7" stroke="black" points="123.98,-84.8 120.98,-88.8 99.98,-88.8 96.98,-84.8 24.02,-84.8 24.02,-48.8 123.98,-48.8 123.98,-84.8"/>
<text text-anchor="middle" x="74" y="-62.6" font-family="Times,serif" font-size="14.00">SpeechModule</text>
</g>
<!-- SpeechModule&#45;&gt;ParserModule -->
<g id="edge3" class="edge">
<title>SpeechModule&#45;&gt;ParserModule</title>
<path fill="none" stroke="black" d="M74,-84.91C74,-104.14 74,-131.8 74,-131.8 74,-131.8 204.56,-131.8 204.56,-131.8"/>
<polygon fill="black" stroke="black" points="204.56,-135.3 214.56,-131.8 204.56,-128.3 204.56,-135.3"/>
</g>
<!-- ParserService  -->
<g id="node5" class="node">
<title>ParserService </title>
<polygon fill="#fb8072" stroke="black" points="310.46,-214.8 213.54,-214.8 213.54,-178.8 310.46,-178.8 310.46,-214.8"/>
<text text-anchor="middle" x="262" y="-192.6" font-family="Times,serif" font-size="14.00">ParserService </text>
</g>
<!-- ParserModule&#45;&gt;ParserService  -->
<g id="edge4" class="edge">
<title>ParserModule&#45;&gt;ParserService </title>
<path fill="none" stroke="black" stroke-dasharray="5,2" d="M262,-149.91C262,-149.91 262,-168.79 262,-168.79"/>
<polygon fill="black" stroke="black" points="258.5,-168.79 262,-178.79 265.5,-168.79 258.5,-168.79"/>
</g>
<!-- ParserService -->
<g id="node6" class="node">
<title>ParserService</title>
<ellipse fill="#fdb462" stroke="black" cx="474" cy="-66.8" rx="64.24" ry="18"/>
<text text-anchor="middle" x="474" y="-62.6" font-family="Times,serif" font-size="14.00">ParserService</text>
</g>
<!-- ParserService&#45;&gt;ParserModule -->
<g id="edge5" class="edge">
<title>ParserService&#45;&gt;ParserModule</title>
<path fill="none" stroke="black" d="M474,-84.91C474,-104.14 474,-131.8 474,-131.8 474,-131.8 319.05,-131.8 319.05,-131.8"/>
<polygon fill="black" stroke="black" points="319.05,-128.3 309.05,-131.8 319.05,-135.3 319.05,-128.3"/>
</g>
</g>
</svg>
