<?xml version="1.0" encoding="UTF-8" standalone="no"?>
<!DOCTYPE svg PUBLIC "-//W3C//DTD SVG 1.1//EN"
 "http://www.w3.org/Graphics/SVG/1.1/DTD/svg11.dtd">
<!-- Generated by graphviz version 2.47.3 (20210619.1520)
 -->
<!-- Title: dependencies Pages: 1 -->
<svg width="822pt" height="247pt"
 viewBox="0.00 0.00 822.00 246.80" xmlns="http://www.w3.org/2000/svg" xmlns:xlink="http://www.w3.org/1999/xlink">
<g id="graph0" class="graph" transform="scale(1 1) rotate(0) translate(4 242.8)">
<title>dependencies</title>
<polygon fill="white" stroke="transparent" points="-4,4 -4,-242.8 818,-242.8 818,4 -4,4"/>
<text text-anchor="middle" x="407" y="-8.2" font-family="sans-serif" font-size="14.00">dependencies</text>
<g id="clust1" class="cluster">
<title>cluster_ClaimModule</title>
<polygon fill="none" stroke="black" stroke-dasharray="1,5" points="8,-32.8 8,-230.8 806,-230.8 806,-32.8 8,-32.8"/>
</g>
<g id="clust3" class="cluster">
<title>cluster_ClaimModule_imports</title>
<polygon fill="none" stroke="black" points="168,-40.8 168,-92.8 798,-92.8 798,-40.8 168,-40.8"/>
</g>
<g id="clust6" class="cluster">
<title>cluster_ClaimModule_providers</title>
<polygon fill="none" stroke="black" points="16,-40.8 16,-92.8 160,-92.8 160,-40.8 16,-40.8"/>
</g>
<g id="clust4" class="cluster">
<title>cluster_ClaimModule_exports</title>
<polygon fill="none" stroke="black" points="341,-170.8 341,-222.8 453,-222.8 453,-170.8 341,-170.8"/>
</g>
<!-- ClaimReviewModule -->
<g id="node1" class="node">
<title>ClaimReviewModule</title>
<polygon fill="#8dd3c7" stroke="black" points="790.04,-84.8 787.04,-88.8 766.04,-88.8 763.04,-84.8 653.96,-84.8 653.96,-48.8 790.04,-48.8 790.04,-84.8"/>
<text text-anchor="middle" x="722" y="-62.6" font-family="Times,serif" font-size="14.00">ClaimReviewModule</text>
</g>
<!-- ClaimModule -->
<g id="node6" class="node">
<title>ClaimModule</title>
<polygon fill="#8dd3c7" stroke="black" points="443.77,-149.8 440.77,-153.8 419.77,-153.8 416.77,-149.8 350.23,-149.8 350.23,-113.8 443.77,-113.8 443.77,-149.8"/>
<text text-anchor="middle" x="397" y="-127.6" font-family="Times,serif" font-size="14.00">ClaimModule</text>
</g>
<!-- ClaimReviewModule&#45;&gt;ClaimModule -->
<g id="edge1" class="edge">
<title>ClaimReviewModule&#45;&gt;ClaimModule</title>
<path fill="none" stroke="black" d="M722,-85.08C722,-106.12 722,-137.8 722,-137.8 722,-137.8 453.91,-137.8 453.91,-137.8"/>
<polygon fill="black" stroke="black" points="453.91,-134.3 443.91,-137.8 453.91,-141.3 453.91,-134.3"/>
</g>
<!-- ParserModule -->
<g id="node2" class="node">
<title>ParserModule</title>
<polygon fill="#8dd3c7" stroke="black" points="635.03,-84.8 632.03,-88.8 611.03,-88.8 608.03,-84.8 540.97,-84.8 540.97,-48.8 635.03,-48.8 635.03,-84.8"/>
<text text-anchor="middle" x="588" y="-62.6" font-family="Times,serif" font-size="14.00">ParserModule</text>
</g>
<!-- ParserModule&#45;&gt;ClaimModule -->
<g id="edge2" class="edge">
<title>ParserModule&#45;&gt;ClaimModule</title>
<path fill="none" stroke="black" d="M588,-84.82C588,-102.17 588,-125.8 588,-125.8 588,-125.8 454.21,-125.8 454.21,-125.8"/>
<polygon fill="black" stroke="black" points="454.21,-122.3 444.21,-125.8 454.21,-129.3 454.21,-122.3"/>
</g>
<!-- PersonalityModule -->
<g id="node3" class="node">
<title>PersonalityModule</title>
<polygon fill="#8dd3c7" stroke="black" points="522.04,-84.8 519.04,-88.8 498.04,-88.8 495.04,-84.8 399.96,-84.8 399.96,-48.8 522.04,-48.8 522.04,-84.8"/>
<text text-anchor="middle" x="461" y="-62.6" font-family="Times,serif" font-size="14.00">PersonalityModule</text>
</g>
<!-- PersonalityModule&#45;&gt;ClaimModule -->
<g id="edge3" class="edge">
<title>PersonalityModule&#45;&gt;ClaimModule</title>
<path fill="none" stroke="black" d="M421.81,-84.91C421.81,-84.91 421.81,-103.79 421.81,-103.79"/>
<polygon fill="black" stroke="black" points="418.31,-103.79 421.81,-113.79 425.31,-103.79 418.31,-103.79"/>
</g>
<!-- SourceModule -->
<g id="node4" class="node">
<title>SourceModule</title>
<polygon fill="#8dd3c7" stroke="black" points="382.42,-84.8 379.42,-88.8 358.42,-88.8 355.42,-84.8 283.58,-84.8 283.58,-48.8 382.42,-48.8 382.42,-84.8"/>
<text text-anchor="middle" x="333" y="-62.6" font-family="Times,serif" font-size="14.00">SourceModule</text>
</g>
<!-- SourceModule&#45;&gt;ClaimModule -->
<g id="edge4" class="edge">
<title>SourceModule&#45;&gt;ClaimModule</title>
<path fill="none" stroke="black" d="M366.16,-84.91C366.16,-84.91 366.16,-103.79 366.16,-103.79"/>
<polygon fill="black" stroke="black" points="362.66,-103.79 366.16,-113.79 369.66,-103.79 362.66,-103.79"/>
</g>
<!-- ViewModule -->
<g id="node5" class="node">
<title>ViewModule</title>
<polygon fill="#8dd3c7" stroke="black" points="265.87,-84.8 262.87,-88.8 241.87,-88.8 238.87,-84.8 176.13,-84.8 176.13,-48.8 265.87,-48.8 265.87,-84.8"/>
<text text-anchor="middle" x="221" y="-62.6" font-family="Times,serif" font-size="14.00">ViewModule</text>
</g>
<!-- ViewModule&#45;&gt;ClaimModule -->
<g id="edge5" class="edge">
<title>ViewModule&#45;&gt;ClaimModule</title>
<path fill="none" stroke="black" d="M221,-84.82C221,-102.17 221,-125.8 221,-125.8 221,-125.8 339.84,-125.8 339.84,-125.8"/>
<polygon fill="black" stroke="black" points="339.84,-129.3 349.84,-125.8 339.84,-122.3 339.84,-129.3"/>
</g>
<!-- ClaimService  -->
<g id="node7" class="node">
<title>ClaimService </title>
<polygon fill="#fb8072" stroke="black" points="444.7,-214.8 349.3,-214.8 349.3,-178.8 444.7,-178.8 444.7,-214.8"/>
<text text-anchor="middle" x="397" y="-192.6" font-family="Times,serif" font-size="14.00">ClaimService </text>
</g>
<!-- ClaimModule&#45;&gt;ClaimService  -->
<g id="edge6" class="edge">
<title>ClaimModule&#45;&gt;ClaimService </title>
<path fill="none" stroke="black" stroke-dasharray="5,2" d="M397,-149.91C397,-149.91 397,-168.79 397,-168.79"/>
<polygon fill="black" stroke="black" points="393.5,-168.79 397,-178.79 400.5,-168.79 393.5,-168.79"/>
</g>
<!-- ClaimService -->
<g id="node8" class="node">
<title>ClaimService</title>
<ellipse fill="#fdb462" stroke="black" cx="88" cy="-66.8" rx="63.7" ry="18"/>
<text text-anchor="middle" x="88" y="-62.6" font-family="Times,serif" font-size="14.00">ClaimService</text>
</g>
<!-- ClaimService&#45;&gt;ClaimModule -->
<g id="edge7" class="edge">
<title>ClaimService&#45;&gt;ClaimModule</title>
<path fill="none" stroke="black" d="M88,-85.08C88,-106.12 88,-137.8 88,-137.8 88,-137.8 340.07,-137.8 340.07,-137.8"/>
<polygon fill="black" stroke="black" points="340.07,-141.3 350.07,-137.8 340.07,-134.3 340.07,-141.3"/>
</g>
</g>
</svg>
