<?xml version="1.0" encoding="UTF-8" standalone="no"?>
<!DOCTYPE svg PUBLIC "-//W3C//DTD SVG 1.1//EN"
 "http://www.w3.org/Graphics/SVG/1.1/DTD/svg11.dtd">
<!-- Generated by graphviz version 2.47.3 (20210619.1520)
 -->
<!-- Title: dependencies Pages: 1 -->
<svg width="206pt" height="247pt"
 viewBox="0.00 0.00 206.00 246.80" xmlns="http://www.w3.org/2000/svg" xmlns:xlink="http://www.w3.org/1999/xlink">
<g id="graph0" class="graph" transform="scale(1 1) rotate(0) translate(4 242.8)">
<title>dependencies</title>
<polygon fill="white" stroke="transparent" points="-4,4 -4,-242.8 202,-242.8 202,4 -4,4"/>
<text text-anchor="middle" x="99" y="-8.2" font-family="sans-serif" font-size="14.00">dependencies</text>
<g id="clust1" class="cluster">
<title>cluster_WikidataModule</title>
<polygon fill="none" stroke="black" stroke-dasharray="1,5" points="8,-32.8 8,-230.8 190,-230.8 190,-32.8 8,-32.8"/>
</g>
<g id="clust6" class="cluster">
<title>cluster_WikidataModule_providers</title>
<polygon fill="none" stroke="black" points="16,-40.8 16,-92.8 182,-92.8 182,-40.8 16,-40.8"/>
</g>
<g id="clust4" class="cluster">
<title>cluster_WikidataModule_exports</title>
<polygon fill="none" stroke="black" points="35,-170.8 35,-222.8 163,-222.8 163,-170.8 35,-170.8"/>
</g>
<!-- WikidataService  -->
<g id="node1" class="node">
<title>WikidataService </title>
<polygon fill="#fb8072" stroke="black" points="155.29,-214.8 42.71,-214.8 42.71,-178.8 155.29,-178.8 155.29,-214.8"/>
<text text-anchor="middle" x="99" y="-192.6" font-family="Times,serif" font-size="14.00">WikidataService </text>
</g>
<!-- WikidataModule -->
<g id="node2" class="node">
<title>WikidataModule</title>
<polygon fill="#8dd3c7" stroke="black" points="154.37,-149.8 151.37,-153.8 130.37,-153.8 127.37,-149.8 43.63,-149.8 43.63,-113.8 154.37,-113.8 154.37,-149.8"/>
<text text-anchor="middle" x="99" y="-127.6" font-family="Times,serif" font-size="14.00">WikidataModule</text>
</g>
<!-- WikidataModule&#45;&gt;WikidataService  -->
<g id="edge1" class="edge">
<title>WikidataModule&#45;&gt;WikidataService </title>
<path fill="none" stroke="black" stroke-dasharray="5,2" d="M99,-149.91C99,-149.91 99,-168.79 99,-168.79"/>
<polygon fill="black" stroke="black" points="95.5,-168.79 99,-178.79 102.5,-168.79 95.5,-168.79"/>
</g>
<!-- WikidataService -->
<g id="node3" class="node">
<title>WikidataService</title>
<ellipse fill="#fdb462" stroke="black" cx="99" cy="-66.8" rx="75.28" ry="18"/>
<text text-anchor="middle" x="99" y="-62.6" font-family="Times,serif" font-size="14.00">WikidataService</text>
</g>
<!-- WikidataService&#45;&gt;WikidataModule -->
<g id="edge2" class="edge">
<title>WikidataService&#45;&gt;WikidataModule</title>
<path fill="none" stroke="black" d="M99,-84.91C99,-84.91 99,-103.79 99,-103.79"/>
<polygon fill="black" stroke="black" points="95.5,-103.79 99,-113.79 102.5,-103.79 95.5,-103.79"/>
</g>
</g>
</svg>
