<?xml version="1.0" encoding="UTF-8" standalone="no"?>
<!DOCTYPE svg PUBLIC "-//W3C//DTD SVG 1.1//EN"
 "http://www.w3.org/Graphics/SVG/1.1/DTD/svg11.dtd">
<!-- Generated by graphviz version 2.47.3 (20210619.1520)
 -->
<!-- Title: dependencies Pages: 1 -->
<svg width="613pt" height="247pt"
 viewBox="0.00 0.00 613.00 246.80" xmlns="http://www.w3.org/2000/svg" xmlns:xlink="http://www.w3.org/1999/xlink">
<g id="graph0" class="graph" transform="scale(1 1) rotate(0) translate(4 242.8)">
<title>dependencies</title>
<polygon fill="white" stroke="transparent" points="-4,4 -4,-242.8 609,-242.8 609,4 -4,4"/>
<text text-anchor="middle" x="302.5" y="-8.2" font-family="sans-serif" font-size="14.00">dependencies</text>
<g id="clust1" class="cluster">
<title>cluster_SitemapModule</title>
<polygon fill="none" stroke="black" stroke-dasharray="1,5" points="8,-32.8 8,-230.8 597,-230.8 597,-32.8 8,-32.8"/>
</g>
<g id="clust3" class="cluster">
<title>cluster_SitemapModule_imports</title>
<polygon fill="none" stroke="black" points="184,-40.8 184,-92.8 589,-92.8 589,-40.8 184,-40.8"/>
</g>
<g id="clust4" class="cluster">
<title>cluster_SitemapModule_exports</title>
<polygon fill="none" stroke="black" points="265,-170.8 265,-222.8 389,-222.8 389,-170.8 265,-170.8"/>
</g>
<g id="clust6" class="cluster">
<title>cluster_SitemapModule_providers</title>
<polygon fill="none" stroke="black" points="16,-40.8 16,-92.8 176,-92.8 176,-40.8 16,-40.8"/>
</g>
<!-- ClaimModule -->
<g id="node1" class="node">
<title>ClaimModule</title>
<polygon fill="#8dd3c7" stroke="black" points="580.77,-84.8 577.77,-88.8 556.77,-88.8 553.77,-84.8 487.23,-84.8 487.23,-48.8 580.77,-48.8 580.77,-84.8"/>
<text text-anchor="middle" x="534" y="-62.6" font-family="Times,serif" font-size="14.00">ClaimModule</text>
</g>
<!-- SitemapModule -->
<g id="node4" class="node">
<title>SitemapModule</title>
<polygon fill="#8dd3c7" stroke="black" points="379.93,-149.8 376.93,-153.8 355.93,-153.8 352.93,-149.8 274.07,-149.8 274.07,-113.8 379.93,-113.8 379.93,-149.8"/>
<text text-anchor="middle" x="327" y="-127.6" font-family="Times,serif" font-size="14.00">SitemapModule</text>
</g>
<!-- ClaimModule&#45;&gt;SitemapModule -->
<g id="edge1" class="edge">
<title>ClaimModule&#45;&gt;SitemapModule</title>
<path fill="none" stroke="black" d="M534,-84.91C534,-104.14 534,-131.8 534,-131.8 534,-131.8 389.77,-131.8 389.77,-131.8"/>
<polygon fill="black" stroke="black" points="389.77,-128.3 379.77,-131.8 389.77,-135.3 389.77,-128.3"/>
</g>
<!-- ClaimReviewModule -->
<g id="node2" class="node">
<title>ClaimReviewModule</title>
<polygon fill="#8dd3c7" stroke="black" points="469.04,-84.8 466.04,-88.8 445.04,-88.8 442.04,-84.8 332.96,-84.8 332.96,-48.8 469.04,-48.8 469.04,-84.8"/>
<text text-anchor="middle" x="401" y="-62.6" font-family="Times,serif" font-size="14.00">ClaimReviewModule</text>
</g>
<!-- ClaimReviewModule&#45;&gt;SitemapModule -->
<g id="edge2" class="edge">
<title>ClaimReviewModule&#45;&gt;SitemapModule</title>
<path fill="none" stroke="black" d="M356.22,-84.91C356.22,-84.91 356.22,-103.79 356.22,-103.79"/>
<polygon fill="black" stroke="black" points="352.72,-103.79 356.22,-113.79 359.72,-103.79 352.72,-103.79"/>
</g>
<!-- PersonalityModule -->
<g id="node3" class="node">
<title>PersonalityModule</title>
<polygon fill="#8dd3c7" stroke="black" points="314.04,-84.8 311.04,-88.8 290.04,-88.8 287.04,-84.8 191.96,-84.8 191.96,-48.8 314.04,-48.8 314.04,-84.8"/>
<text text-anchor="middle" x="253" y="-62.6" font-family="Times,serif" font-size="14.00">PersonalityModule</text>
</g>
<!-- PersonalityModule&#45;&gt;SitemapModule -->
<g id="edge3" class="edge">
<title>PersonalityModule&#45;&gt;SitemapModule</title>
<path fill="none" stroke="black" d="M294.28,-84.91C294.28,-84.91 294.28,-103.79 294.28,-103.79"/>
<polygon fill="black" stroke="black" points="290.78,-103.79 294.28,-113.79 297.78,-103.79 290.78,-103.79"/>
</g>
<!-- SitemapService  -->
<g id="node5" class="node">
<title>SitemapService </title>
<polygon fill="#fb8072" stroke="black" points="380.86,-214.8 273.14,-214.8 273.14,-178.8 380.86,-178.8 380.86,-214.8"/>
<text text-anchor="middle" x="327" y="-192.6" font-family="Times,serif" font-size="14.00">SitemapService </text>
</g>
<!-- SitemapModule&#45;&gt;SitemapService  -->
<g id="edge4" class="edge">
<title>SitemapModule&#45;&gt;SitemapService </title>
<path fill="none" stroke="black" stroke-dasharray="5,2" d="M327,-149.91C327,-149.91 327,-168.79 327,-168.79"/>
<polygon fill="black" stroke="black" points="323.5,-168.79 327,-178.79 330.5,-168.79 323.5,-168.79"/>
</g>
<!-- SitemapService -->
<g id="node6" class="node">
<title>SitemapService</title>
<ellipse fill="#fdb462" stroke="black" cx="96" cy="-66.8" rx="71.78" ry="18"/>
<text text-anchor="middle" x="96" y="-62.6" font-family="Times,serif" font-size="14.00">SitemapService</text>
</g>
<!-- SitemapService&#45;&gt;SitemapModule -->
<g id="edge5" class="edge">
<title>SitemapService&#45;&gt;SitemapModule</title>
<path fill="none" stroke="black" d="M96,-84.91C96,-104.14 96,-131.8 96,-131.8 96,-131.8 264,-131.8 264,-131.8"/>
<polygon fill="black" stroke="black" points="264,-135.3 274,-131.8 264,-128.3 264,-135.3"/>
</g>
</g>
</svg>
