<?xml version="1.0" encoding="UTF-8" standalone="no"?>
<!DOCTYPE svg PUBLIC "-//W3C//DTD SVG 1.1//EN"
 "http://www.w3.org/Graphics/SVG/1.1/DTD/svg11.dtd">
<!-- Generated by graphviz version 2.47.3 (20210619.1520)
 -->
<!-- Title: dependencies Pages: 1 -->
<svg width="3316pt" height="489pt"
 viewBox="0.00 0.00 3316.00 488.80" xmlns="http://www.w3.org/2000/svg" xmlns:xlink="http://www.w3.org/1999/xlink">
<g id="graph0" class="graph" transform="scale(1 1) rotate(0) translate(4 484.8)">
<title>dependencies</title>
<polygon fill="white" stroke="transparent" points="-4,4 -4,-484.8 3312,-484.8 3312,4 -4,4"/>
<text text-anchor="middle" x="1654" y="-8.2" font-family="sans-serif" font-size="14.00">dependencies</text>
<g id="clust7" class="cluster">
<title>cluster_AuthModule</title>
<polygon fill="none" stroke="black" stroke-dasharray="1,5" points="8,-108.8 8,-244.8 444,-244.8 444,-108.8 8,-108.8"/>
</g>
<g id="clust9" class="cluster">
<title>cluster_AuthModule_imports</title>
<polygon fill="none" stroke="black" points="328,-116.8 328,-168.8 436,-168.8 436,-116.8 328,-116.8"/>
</g>
<g id="clust12" class="cluster">
<title>cluster_AuthModule_providers</title>
<polygon fill="none" stroke="black" points="16,-116.8 16,-168.8 320,-168.8 320,-116.8 16,-116.8"/>
</g>
<g id="clust13" class="cluster">
<title>cluster_ClaimModule</title>
<polygon fill="none" stroke="black" stroke-dasharray="1,5" points="734,-32.8 734,-404.8 1448,-404.8 1448,-32.8 734,-32.8"/>
</g>
<g id="clust15" class="cluster">
<title>cluster_ClaimModule_imports</title>
<polygon fill="none" stroke="black" points="986,-40.8 986,-244.8 1440,-244.8 1440,-40.8 986,-40.8"/>
</g>
<g id="clust16" class="cluster">
<title>cluster_ClaimModule_exports</title>
<polygon fill="none" stroke="black" points="808,-344.8 808,-396.8 920,-396.8 920,-344.8 808,-344.8"/>
</g>
<g id="clust18" class="cluster">
<title>cluster_ClaimModule_providers</title>
<polygon fill="none" stroke="black" points="834,-192.8 834,-244.8 978,-244.8 978,-192.8 834,-192.8"/>
</g>
<g id="clust19" class="cluster">
<title>cluster_ClaimReviewModule</title>
<polygon fill="none" stroke="black" stroke-dasharray="1,5" points="1456,-32.8 1456,-100.8 1964,-100.8 1964,-32.8 1456,-32.8"/>
</g>
<g id="clust22" class="cluster">
<title>cluster_ClaimReviewModule_exports</title>
<polygon fill="none" stroke="black" points="1464,-40.8 1464,-92.8 1618,-92.8 1618,-40.8 1464,-40.8"/>
</g>
<g id="clust24" class="cluster">
<title>cluster_ClaimReviewModule_providers</title>
<polygon fill="none" stroke="black" points="1626,-40.8 1626,-92.8 1956,-92.8 1956,-40.8 1626,-40.8"/>
</g>
<g id="clust25" class="cluster">
<title>cluster_ClaimRevisionModule</title>
<polygon fill="none" stroke="black" stroke-dasharray="1,5" points="2036,-184.8 2036,-252.8 2434,-252.8 2434,-184.8 2036,-184.8"/>
</g>
<g id="clust28" class="cluster">
<title>cluster_ClaimRevisionModule_exports</title>
<polygon fill="none" stroke="black" points="2264,-192.8 2264,-244.8 2426,-244.8 2426,-192.8 2264,-192.8"/>
</g>
<g id="clust30" class="cluster">
<title>cluster_ClaimRevisionModule_providers</title>
<polygon fill="none" stroke="black" points="2044,-192.8 2044,-244.8 2256,-244.8 2256,-192.8 2044,-192.8"/>
</g>
<g id="clust31" class="cluster">
<title>cluster_EmailModule</title>
<polygon fill="none" stroke="black" stroke-dasharray="1,5" points="3142,-32.8 3142,-252.8 3300,-252.8 3300,-32.8 3142,-32.8"/>
</g>
<g id="clust34" class="cluster">
<title>cluster_EmailModule_exports</title>
<polygon fill="none" stroke="black" points="3166,-192.8 3166,-244.8 3276,-244.8 3276,-192.8 3166,-192.8"/>
</g>
<g id="clust36" class="cluster">
<title>cluster_EmailModule_providers</title>
<polygon fill="none" stroke="black" points="3150,-40.8 3150,-92.8 3292,-92.8 3292,-40.8 3150,-40.8"/>
</g>
<g id="clust37" class="cluster">
<title>cluster_HistoryModule</title>
<polygon fill="none" stroke="black" stroke-dasharray="1,5" points="1972,-108.8 1972,-176.8 2270,-176.8 2270,-108.8 1972,-108.8"/>
</g>
<g id="clust40" class="cluster">
<title>cluster_HistoryModule_exports</title>
<polygon fill="none" stroke="black" points="2142,-116.8 2142,-168.8 2262,-168.8 2262,-116.8 2142,-116.8"/>
</g>
<g id="clust42" class="cluster">
<title>cluster_HistoryModule_providers</title>
<polygon fill="none" stroke="black" points="1980,-116.8 1980,-168.8 2134,-168.8 2134,-116.8 1980,-116.8"/>
</g>
<g id="clust43" class="cluster">
<title>cluster_HomeModule</title>
<polygon fill="none" stroke="black" stroke-dasharray="1,5" points="1472,-336.8 1472,-464.8 1590,-464.8 1590,-336.8 1472,-336.8"/>
</g>
<g id="clust45" class="cluster">
<title>cluster_HomeModule_imports</title>
<polygon fill="none" stroke="black" points="1480,-344.8 1480,-396.8 1582,-396.8 1582,-344.8 1480,-344.8"/>
</g>
<g id="clust49" class="cluster">
<title>cluster_ParserModule</title>
<polygon fill="none" stroke="black" stroke-dasharray="1,5" points="2278,-108.8 2278,-176.8 2558,-176.8 2558,-108.8 2278,-108.8"/>
</g>
<g id="clust52" class="cluster">
<title>cluster_ParserModule_exports</title>
<polygon fill="none" stroke="black" points="2438,-116.8 2438,-168.8 2550,-168.8 2550,-116.8 2438,-116.8"/>
</g>
<g id="clust54" class="cluster">
<title>cluster_ParserModule_providers</title>
<polygon fill="none" stroke="black" points="2286,-116.8 2286,-168.8 2430,-168.8 2430,-116.8 2286,-116.8"/>
</g>
<g id="clust55" class="cluster">
<title>cluster_PersonalityModule</title>
<polygon fill="none" stroke="black" stroke-dasharray="1,5" points="1456,-108.8 1456,-176.8 1936,-176.8 1936,-108.8 1456,-108.8"/>
</g>
<g id="clust57" class="cluster">
<title>cluster_PersonalityModule_imports</title>
<polygon fill="none" stroke="black" points="1802,-116.8 1802,-168.8 1928,-168.8 1928,-116.8 1802,-116.8"/>
</g>
<g id="clust58" class="cluster">
<title>cluster_PersonalityModule_exports</title>
<polygon fill="none" stroke="black" points="1654,-116.8 1654,-168.8 1794,-168.8 1794,-116.8 1654,-116.8"/>
</g>
<g id="clust60" class="cluster">
<title>cluster_PersonalityModule_providers</title>
<polygon fill="none" stroke="black" points="1464,-116.8 1464,-168.8 1646,-168.8 1646,-116.8 1464,-116.8"/>
</g>
<g id="clust61" class="cluster">
<title>cluster_SitemapModule</title>
<polygon fill="none" stroke="black" stroke-dasharray="1,5" points="1792,-260.8 1792,-472.8 1968,-472.8 1968,-260.8 1792,-260.8"/>
</g>
<g id="clust64" class="cluster">
<title>cluster_SitemapModule_exports</title>
<polygon fill="none" stroke="black" points="1827,-412.8 1827,-464.8 1951,-464.8 1951,-412.8 1827,-412.8"/>
</g>
<g id="clust66" class="cluster">
<title>cluster_SitemapModule_providers</title>
<polygon fill="none" stroke="black" points="1800,-268.8 1800,-320.8 1960,-320.8 1960,-268.8 1800,-268.8"/>
</g>
<g id="clust67" class="cluster">
<title>cluster_SourceModule</title>
<polygon fill="none" stroke="black" stroke-dasharray="1,5" points="2566,-108.8 2566,-176.8 2856,-176.8 2856,-108.8 2566,-108.8"/>
</g>
<g id="clust70" class="cluster">
<title>cluster_SourceModule_exports</title>
<polygon fill="none" stroke="black" points="2732,-116.8 2732,-168.8 2848,-168.8 2848,-116.8 2732,-116.8"/>
</g>
<g id="clust72" class="cluster">
<title>cluster_SourceModule_providers</title>
<polygon fill="none" stroke="black" points="2574,-116.8 2574,-168.8 2724,-168.8 2724,-116.8 2574,-116.8"/>
</g>
<g id="clust73" class="cluster">
<title>cluster_StatsModule</title>
<polygon fill="none" stroke="black" stroke-dasharray="1,5" points="1456,-260.8 1456,-328.8 1718,-328.8 1718,-260.8 1456,-260.8"/>
</g>
<g id="clust76" class="cluster">
<title>cluster_StatsModule_exports</title>
<polygon fill="none" stroke="black" points="1606,-268.8 1606,-320.8 1710,-320.8 1710,-268.8 1606,-268.8"/>
</g>
<g id="clust78" class="cluster">
<title>cluster_StatsModule_providers</title>
<polygon fill="none" stroke="black" points="1464,-268.8 1464,-320.8 1598,-320.8 1598,-268.8 1464,-268.8"/>
</g>
<g id="clust79" class="cluster">
<title>cluster_UsersModule</title>
<polygon fill="none" stroke="black" stroke-dasharray="1,5" points="452,-184.8 452,-252.8 726,-252.8 726,-184.8 452,-184.8"/>
</g>
<g id="clust82" class="cluster">
<title>cluster_UsersModule_exports</title>
<polygon fill="none" stroke="black" points="608,-192.8 608,-244.8 718,-244.8 718,-192.8 608,-192.8"/>
</g>
<g id="clust84" class="cluster">
<title>cluster_UsersModule_providers</title>
<polygon fill="none" stroke="black" points="460,-192.8 460,-244.8 600,-244.8 600,-192.8 460,-192.8"/>
</g>
<g id="clust85" class="cluster">
<title>cluster_ViewModule</title>
<polygon fill="none" stroke="black" stroke-dasharray="1,5" points="2864,-108.8 2864,-176.8 3134,-176.8 3134,-108.8 2864,-108.8"/>
</g>
<g id="clust88" class="cluster">
<title>cluster_ViewModule_exports</title>
<polygon fill="none" stroke="black" points="3018,-116.8 3018,-168.8 3126,-168.8 3126,-116.8 3018,-116.8"/>
</g>
<g id="clust90" class="cluster">
<title>cluster_ViewModule_providers</title>
<polygon fill="none" stroke="black" points="2872,-116.8 2872,-168.8 3010,-168.8 3010,-116.8 2872,-116.8"/>
</g>
<g id="clust91" class="cluster">
<title>cluster_WikidataModule</title>
<polygon fill="none" stroke="black" stroke-dasharray="1,5" points="1972,-32.8 1972,-100.8 2290,-100.8 2290,-32.8 1972,-32.8"/>
</g>
<g id="clust94" class="cluster">
<title>cluster_WikidataModule_exports</title>
<polygon fill="none" stroke="black" points="2154,-40.8 2154,-92.8 2282,-92.8 2282,-40.8 2154,-40.8"/>
</g>
<g id="clust96" class="cluster">
<title>cluster_WikidataModule_providers</title>
<polygon fill="none" stroke="black" points="1980,-40.8 1980,-92.8 2146,-92.8 2146,-40.8 1980,-40.8"/>
</g>
<!-- UsersModule -->
<g id="node1" class="node">
<title>UsersModule</title>
<polygon fill="#8dd3c7" stroke="black" points="427.92,-160.8 424.92,-164.8 403.92,-164.8 400.92,-160.8 336.08,-160.8 336.08,-124.8 427.92,-124.8 427.92,-160.8"/>
<text text-anchor="middle" x="382" y="-138.6" font-family="Times,serif" font-size="14.00">UsersModule</text>
</g>
<!-- AuthModule -->
<g id="node2" class="node">
<title>AuthModule</title>
<polygon fill="#8dd3c7" stroke="black" points="285.55,-236.8 282.55,-240.8 261.55,-240.8 258.55,-236.8 198.45,-236.8 198.45,-200.8 285.55,-200.8 285.55,-236.8"/>
<text text-anchor="middle" x="242" y="-214.6" font-family="Times,serif" font-size="14.00">AuthModule</text>
</g>
<!-- UsersModule&#45;&gt;AuthModule -->
<g id="edge1" class="edge">
<title>UsersModule&#45;&gt;AuthModule</title>
<path fill="none" stroke="black" d="M366.76,-161C366.76,-185.16 366.76,-224.8 366.76,-224.8 366.76,-224.8 295.64,-224.8 295.64,-224.8"/>
<polygon fill="black" stroke="black" points="295.64,-221.3 285.64,-224.8 295.64,-228.3 295.64,-221.3"/>
</g>
<!-- UsersService  -->
<g id="node39" class="node">
<title>UsersService </title>
<polygon fill="#fb8072" stroke="black" points="709.85,-236.8 616.15,-236.8 616.15,-200.8 709.85,-200.8 709.85,-236.8"/>
<text text-anchor="middle" x="663" y="-214.6" font-family="Times,serif" font-size="14.00">UsersService </text>
</g>
<!-- UsersModule&#45;&gt;UsersService  -->
<g id="edge53" class="edge">
<title>UsersModule&#45;&gt;UsersService </title>
<path fill="none" stroke="black" stroke-dasharray="5,2" d="M427.77,-142.8C507.4,-142.8 663,-142.8 663,-142.8 663,-142.8 663,-190.79 663,-190.79"/>
<polygon fill="black" stroke="black" points="659.5,-190.79 663,-200.79 666.5,-190.79 659.5,-190.79"/>
</g>
<!-- LocalSerializer -->
<g id="node3" class="node">
<title>LocalSerializer</title>
<ellipse fill="#fdb462" stroke="black" cx="242" cy="-142.8" rx="70.03" ry="18"/>
<text text-anchor="middle" x="242" y="-138.6" font-family="Times,serif" font-size="14.00">LocalSerializer</text>
</g>
<!-- LocalSerializer&#45;&gt;AuthModule -->
<g id="edge2" class="edge">
<title>LocalSerializer&#45;&gt;AuthModule</title>
<path fill="none" stroke="black" d="M242,-160.81C242,-160.81 242,-190.65 242,-190.65"/>
<polygon fill="black" stroke="black" points="238.5,-190.65 242,-200.65 245.5,-190.65 238.5,-190.65"/>
</g>
<!-- LocalStrategy -->
<g id="node4" class="node">
<title>LocalStrategy</title>
<ellipse fill="#fdb462" stroke="black" cx="89" cy="-142.8" rx="65.41" ry="18"/>
<text text-anchor="middle" x="89" y="-138.6" font-family="Times,serif" font-size="14.00">LocalStrategy</text>
</g>
<!-- LocalStrategy&#45;&gt;AuthModule -->
<g id="edge3" class="edge">
<title>LocalStrategy&#45;&gt;AuthModule</title>
<path fill="none" stroke="black" d="M89,-160.81C89,-183.29 89,-218.8 89,-218.8 89,-218.8 188.16,-218.8 188.16,-218.8"/>
<polygon fill="black" stroke="black" points="188.16,-222.3 198.16,-218.8 188.16,-215.3 188.16,-222.3"/>
</g>
<!-- ClaimReviewModule -->
<g id="node5" class="node">
<title>ClaimReviewModule</title>
<polygon fill="#8dd3c7" stroke="black" points="1410.04,-160.8 1407.04,-164.8 1386.04,-164.8 1383.04,-160.8 1273.96,-160.8 1273.96,-124.8 1410.04,-124.8 1410.04,-160.8"/>
<text text-anchor="middle" x="1342" y="-138.6" font-family="Times,serif" font-size="14.00">ClaimReviewModule</text>
</g>
<!-- PersonalityModule -->
<g id="node9" class="node">
<title>PersonalityModule</title>
<polygon fill="#8dd3c7" stroke="black" points="1410.04,-236.8 1407.04,-240.8 1386.04,-240.8 1383.04,-236.8 1287.96,-236.8 1287.96,-200.8 1410.04,-200.8 1410.04,-236.8"/>
<text text-anchor="middle" x="1349" y="-214.6" font-family="Times,serif" font-size="14.00">PersonalityModule</text>
</g>
<!-- ClaimReviewModule&#45;&gt;PersonalityModule -->
<g id="edge32" class="edge">
<title>ClaimReviewModule&#45;&gt;PersonalityModule</title>
<path fill="none" stroke="black" d="M1349,-160.81C1349,-160.81 1349,-190.65 1349,-190.65"/>
<polygon fill="black" stroke="black" points="1345.5,-190.65 1349,-200.65 1352.5,-190.65 1345.5,-190.65"/>
</g>
<!-- ClaimModule -->
<g id="node12" class="node">
<title>ClaimModule</title>
<polygon fill="#8dd3c7" stroke="black" points="910.77,-312.8 907.77,-316.8 886.77,-316.8 883.77,-312.8 817.23,-312.8 817.23,-276.8 910.77,-276.8 910.77,-312.8"/>
<text text-anchor="middle" x="864" y="-290.6" font-family="Times,serif" font-size="14.00">ClaimModule</text>
</g>
<!-- ClaimReviewModule&#45;&gt;ClaimModule -->
<g id="edge4" class="edge">
<title>ClaimReviewModule&#45;&gt;ClaimModule</title>
<path fill="none" stroke="black" d="M1277.23,-161.07C1277.23,-201.86 1277.23,-296.8 1277.23,-296.8 1277.23,-296.8 921,-296.8 921,-296.8"/>
<polygon fill="black" stroke="black" points="921,-293.3 911,-296.8 921,-300.3 921,-293.3"/>
</g>
<!-- ClaimReviewService  -->
<g id="node15" class="node">
<title>ClaimReviewService </title>
<polygon fill="#fb8072" stroke="black" points="1610.46,-84.8 1471.54,-84.8 1471.54,-48.8 1610.46,-48.8 1610.46,-84.8"/>
<text text-anchor="middle" x="1541" y="-62.6" font-family="Times,serif" font-size="14.00">ClaimReviewService </text>
</g>
<!-- ClaimReviewModule&#45;&gt;ClaimReviewService  -->
<g id="edge15" class="edge">
<title>ClaimReviewModule&#45;&gt;ClaimReviewService </title>
<path fill="none" stroke="black" stroke-dasharray="5,2" d="M1410.34,-142.8C1432.69,-142.8 1451.89,-142.8 1451.89,-142.8 1451.89,-142.8 1451.89,-66.8 1451.89,-66.8 1451.89,-66.8 1461.66,-66.8 1461.66,-66.8"/>
<polygon fill="black" stroke="black" points="1461.66,-70.3 1471.66,-66.8 1461.66,-63.3 1461.66,-70.3"/>
</g>
<!-- StatsModule -->
<g id="node25" class="node">
<title>StatsModule</title>
<polygon fill="#8dd3c7" stroke="black" points="1574.27,-388.8 1571.27,-392.8 1550.27,-392.8 1547.27,-388.8 1487.73,-388.8 1487.73,-352.8 1574.27,-352.8 1574.27,-388.8"/>
<text text-anchor="middle" x="1531" y="-366.6" font-family="Times,serif" font-size="14.00">StatsModule</text>
</g>
<!-- ClaimReviewModule&#45;&gt;StatsModule -->
<g id="edge48" class="edge">
<title>ClaimReviewModule&#45;&gt;StatsModule</title>
<path fill="none" stroke="black" d="M1280.73,-161.07C1280.73,-215.18 1280.73,-370.8 1280.73,-370.8 1280.73,-370.8 1477.69,-370.8 1477.69,-370.8"/>
<polygon fill="black" stroke="black" points="1477.69,-374.3 1487.69,-370.8 1477.69,-367.3 1477.69,-374.3"/>
</g>
<!-- SitemapModule -->
<g id="node32" class="node">
<title>SitemapModule</title>
<polygon fill="#8dd3c7" stroke="black" points="1941.93,-388.8 1938.93,-392.8 1917.93,-392.8 1914.93,-388.8 1836.07,-388.8 1836.07,-352.8 1941.93,-352.8 1941.93,-388.8"/>
<text text-anchor="middle" x="1889" y="-366.6" font-family="Times,serif" font-size="14.00">SitemapModule</text>
</g>
<!-- ClaimReviewModule&#45;&gt;SitemapModule -->
<g id="edge41" class="edge">
<title>ClaimReviewModule&#45;&gt;SitemapModule</title>
<path fill="none" stroke="black" d="M1284.23,-161.12C1284.23,-207.66 1284.23,-326.8 1284.23,-326.8 1284.23,-326.8 1889,-326.8 1889,-326.8 1889,-326.8 1889,-342.65 1889,-342.65"/>
<polygon fill="black" stroke="black" points="1885.5,-342.65 1889,-352.65 1892.5,-342.65 1885.5,-342.65"/>
</g>
<!-- ClaimRevisionModule -->
<g id="node6" class="node">
<title>ClaimRevisionModule</title>
<polygon fill="#8dd3c7" stroke="black" points="1255.55,-160.8 1252.55,-164.8 1231.55,-164.8 1228.55,-160.8 1112.45,-160.8 1112.45,-124.8 1255.55,-124.8 1255.55,-160.8"/>
<text text-anchor="middle" x="1184" y="-138.6" font-family="Times,serif" font-size="14.00">ClaimRevisionModule</text>
</g>
<!-- ClaimRevisionModule&#45;&gt;PersonalityModule -->
<g id="edge33" class="edge">
<title>ClaimRevisionModule&#45;&gt;PersonalityModule</title>
<path fill="none" stroke="black" d="M1227.06,-161.11C1227.06,-180.95 1227.06,-209.8 1227.06,-209.8 1227.06,-209.8 1277.68,-209.8 1277.68,-209.8"/>
<polygon fill="black" stroke="black" points="1277.68,-213.3 1287.68,-209.8 1277.68,-206.3 1277.68,-213.3"/>
</g>
<!-- ClaimRevisionModule&#45;&gt;ClaimModule -->
<g id="edge5" class="edge">
<title>ClaimRevisionModule&#45;&gt;ClaimModule</title>
<path fill="none" stroke="black" d="M1198.35,-161C1198.35,-200.13 1198.35,-288.8 1198.35,-288.8 1198.35,-288.8 920.84,-288.8 920.84,-288.8"/>
<polygon fill="black" stroke="black" points="920.84,-285.3 910.84,-288.8 920.84,-292.3 920.84,-285.3"/>
</g>
<!-- ClaimRevisionService  -->
<g id="node18" class="node">
<title>ClaimRevisionService </title>
<polygon fill="#fb8072" stroke="black" points="2417.98,-236.8 2272.02,-236.8 2272.02,-200.8 2417.98,-200.8 2417.98,-236.8"/>
<text text-anchor="middle" x="2345" y="-214.6" font-family="Times,serif" font-size="14.00">ClaimRevisionService </text>
</g>
<!-- ClaimRevisionModule&#45;&gt;ClaimRevisionService  -->
<g id="edge21" class="edge">
<title>ClaimRevisionModule&#45;&gt;ClaimRevisionService </title>
<path fill="none" stroke="black" stroke-dasharray="5,2" d="M1140.94,-161.04C1140.94,-168.23 1140.94,-174.8 1140.94,-174.8 1140.94,-174.8 2284.14,-174.8 2284.14,-174.8 2284.14,-174.8 2284.14,-190.65 2284.14,-190.65"/>
<polygon fill="black" stroke="black" points="2280.64,-190.65 2284.14,-200.65 2287.64,-190.65 2280.64,-190.65"/>
</g>
<!-- HistoryModule -->
<g id="node7" class="node">
<title>HistoryModule</title>
<polygon fill="#8dd3c7" stroke="black" points="1203.54,-84.8 1200.54,-88.8 1179.54,-88.8 1176.54,-84.8 1102.46,-84.8 1102.46,-48.8 1203.54,-48.8 1203.54,-84.8"/>
<text text-anchor="middle" x="1153" y="-62.6" font-family="Times,serif" font-size="14.00">HistoryModule</text>
</g>
<!-- HistoryModule&#45;&gt;ClaimReviewModule -->
<g id="edge13" class="edge">
<title>HistoryModule&#45;&gt;ClaimReviewModule</title>
<path fill="none" stroke="black" d="M1158,-84.83C1158,-101.2 1158,-122.8 1158,-122.8 1158,-122.8 1284.37,-122.8 1284.37,-122.8 1284.37,-122.8 1284.37,-122.98 1284.37,-122.98"/>
<polygon fill="black" stroke="black" points="1280.87,-114.65 1284.37,-124.65 1287.87,-114.65 1280.87,-114.65"/>
</g>
<!-- HistoryModule&#45;&gt;PersonalityModule -->
<g id="edge34" class="edge">
<title>HistoryModule&#45;&gt;PersonalityModule</title>
<path fill="none" stroke="black" d="M1108.89,-84.83C1108.89,-125.1 1108.89,-218.8 1108.89,-218.8 1108.89,-218.8 1277.79,-218.8 1277.79,-218.8"/>
<polygon fill="black" stroke="black" points="1277.79,-222.3 1287.79,-218.8 1277.79,-215.3 1277.79,-222.3"/>
</g>
<!-- HistoryModule&#45;&gt;ClaimModule -->
<g id="edge6" class="edge">
<title>HistoryModule&#45;&gt;ClaimModule</title>
<path fill="none" stroke="black" d="M1105.56,-85.01C1105.56,-137.41 1105.56,-284.8 1105.56,-284.8 1105.56,-284.8 920.86,-284.8 920.86,-284.8"/>
<polygon fill="black" stroke="black" points="920.86,-281.3 910.86,-284.8 920.86,-288.3 920.86,-281.3"/>
</g>
<!-- HistoryService  -->
<g id="node23" class="node">
<title>HistoryService </title>
<polygon fill="#fb8072" stroke="black" points="2253.97,-160.8 2150.03,-160.8 2150.03,-124.8 2253.97,-124.8 2253.97,-160.8"/>
<text text-anchor="middle" x="2202" y="-138.6" font-family="Times,serif" font-size="14.00">HistoryService </text>
</g>
<!-- HistoryModule&#45;&gt;HistoryService  -->
<g id="edge25" class="edge">
<title>HistoryModule&#45;&gt;HistoryService </title>
<path fill="none" stroke="black" stroke-dasharray="5,2" d="M1180.88,-84.91C1180.88,-94.7 1180.88,-104.8 1180.88,-104.8 1180.88,-104.8 2155.93,-104.8 2155.93,-104.8 2155.93,-104.8 2155.93,-114.69 2155.93,-114.69"/>
<polygon fill="black" stroke="black" points="2152.43,-114.69 2155.93,-124.69 2159.43,-114.69 2152.43,-114.69"/>
</g>
<!-- ParserModule -->
<g id="node8" class="node">
<title>ParserModule</title>
<polygon fill="#8dd3c7" stroke="black" points="1316.03,-84.8 1313.03,-88.8 1292.03,-88.8 1289.03,-84.8 1221.97,-84.8 1221.97,-48.8 1316.03,-48.8 1316.03,-84.8"/>
<text text-anchor="middle" x="1269" y="-62.6" font-family="Times,serif" font-size="14.00">ParserModule</text>
</g>
<!-- ParserModule&#45;&gt;ClaimRevisionModule -->
<g id="edge18" class="edge">
<title>ParserModule&#45;&gt;ClaimRevisionModule</title>
<path fill="none" stroke="black" d="M1233.08,-84.81C1233.08,-84.81 1233.08,-114.65 1233.08,-114.65"/>
<polygon fill="black" stroke="black" points="1229.58,-114.65 1233.08,-124.65 1236.58,-114.65 1229.58,-114.65"/>
</g>
<!-- ParserModule&#45;&gt;ClaimModule -->
<g id="edge7" class="edge">
<title>ParserModule&#45;&gt;ClaimModule</title>
<path fill="none" stroke="black" d="M1264.75,-84.91C1264.75,-138.54 1264.75,-292.8 1264.75,-292.8 1264.75,-292.8 921.15,-292.8 921.15,-292.8"/>
<polygon fill="black" stroke="black" points="921.15,-289.3 911.15,-292.8 921.15,-296.3 921.15,-289.3"/>
</g>
<!-- ParserService  -->
<g id="node27" class="node">
<title>ParserService </title>
<polygon fill="#fb8072" stroke="black" points="2542.46,-160.8 2445.54,-160.8 2445.54,-124.8 2542.46,-124.8 2542.46,-160.8"/>
<text text-anchor="middle" x="2494" y="-138.6" font-family="Times,serif" font-size="14.00">ParserService </text>
</g>
<!-- ParserModule&#45;&gt;ParserService  -->
<g id="edge30" class="edge">
<title>ParserModule&#45;&gt;ParserService </title>
<path fill="none" stroke="black" stroke-dasharray="5,2" d="M1295,-84.84C1295,-92.55 1295,-99.8 1295,-99.8 1295,-99.8 2494,-99.8 2494,-99.8 2494,-99.8 2494,-114.31 2494,-114.31"/>
<polygon fill="black" stroke="black" points="2490.5,-114.31 2494,-124.31 2497.5,-114.31 2490.5,-114.31"/>
</g>
<!-- PersonalityModule&#45;&gt;ClaimModule -->
<g id="edge8" class="edge">
<title>PersonalityModule&#45;&gt;ClaimModule</title>
<path fill="none" stroke="black" d="M1318.37,-237C1318.37,-261.16 1318.37,-300.8 1318.37,-300.8 1318.37,-300.8 920.91,-300.8 920.91,-300.8"/>
<polygon fill="black" stroke="black" points="920.91,-297.3 910.91,-300.8 920.91,-304.3 920.91,-297.3"/>
</g>
<!-- PersonalityModule&#45;&gt;StatsModule -->
<g id="edge49" class="edge">
<title>PersonalityModule&#45;&gt;StatsModule</title>
<path fill="none" stroke="black" d="M1379.63,-236.91C1379.63,-275.39 1379.63,-361.8 1379.63,-361.8 1379.63,-361.8 1477.62,-361.8 1477.62,-361.8"/>
<polygon fill="black" stroke="black" points="1477.62,-365.3 1487.62,-361.8 1477.62,-358.3 1477.62,-365.3"/>
</g>
<!-- HomeModule -->
<g id="node26" class="node">
<title>HomeModule</title>
<polygon fill="#8dd3c7" stroke="black" points="1581.76,-456.8 1578.76,-460.8 1557.76,-460.8 1554.76,-456.8 1488.24,-456.8 1488.24,-420.8 1581.76,-420.8 1581.76,-456.8"/>
<text text-anchor="middle" x="1535" y="-434.6" font-family="Times,serif" font-size="14.00">HomeModule</text>
</g>
<!-- PersonalityModule&#45;&gt;HomeModule -->
<g id="edge27" class="edge">
<title>PersonalityModule&#45;&gt;HomeModule</title>
<path fill="none" stroke="black" d="M1349,-237.05C1349,-288.8 1349,-432.8 1349,-432.8 1349,-432.8 1478.06,-432.8 1478.06,-432.8"/>
<polygon fill="black" stroke="black" points="1478.06,-436.3 1488.06,-432.8 1478.06,-429.3 1478.06,-436.3"/>
</g>
<!-- PersonalityService  -->
<g id="node30" class="node">
<title>PersonalityService </title>
<polygon fill="#fb8072" stroke="black" points="1786.47,-160.8 1661.53,-160.8 1661.53,-124.8 1786.47,-124.8 1786.47,-160.8"/>
<text text-anchor="middle" x="1724" y="-138.6" font-family="Times,serif" font-size="14.00">PersonalityService </text>
</g>
<!-- PersonalityModule&#45;&gt;PersonalityService  -->
<g id="edge37" class="edge">
<title>PersonalityModule&#45;&gt;PersonalityService </title>
<path fill="none" stroke="black" stroke-dasharray="5,2" d="M1410.09,-212.8C1506.24,-212.8 1682.06,-212.8 1682.06,-212.8 1682.06,-212.8 1682.06,-170.83 1682.06,-170.83"/>
<polygon fill="black" stroke="black" points="1685.56,-170.83 1682.06,-160.83 1678.56,-170.83 1685.56,-170.83"/>
</g>
<!-- PersonalityModule&#45;&gt;SitemapModule -->
<g id="edge42" class="edge">
<title>PersonalityModule&#45;&gt;SitemapModule</title>
<path fill="none" stroke="black" d="M1410.33,-230.8C1521.36,-230.8 1744.29,-230.8 1744.29,-230.8 1744.29,-230.8 1744.29,-364.8 1744.29,-364.8 1744.29,-364.8 1825.94,-364.8 1825.94,-364.8"/>
<polygon fill="black" stroke="black" points="1825.94,-368.3 1835.94,-364.8 1825.94,-361.3 1825.94,-368.3"/>
</g>
<!-- SourceModule -->
<g id="node10" class="node">
<title>SourceModule</title>
<polygon fill="#8dd3c7" stroke="black" points="1432.42,-84.8 1429.42,-88.8 1408.42,-88.8 1405.42,-84.8 1333.58,-84.8 1333.58,-48.8 1432.42,-48.8 1432.42,-84.8"/>
<text text-anchor="middle" x="1383" y="-62.6" font-family="Times,serif" font-size="14.00">SourceModule</text>
</g>
<!-- SourceModule&#45;&gt;ClaimReviewModule -->
<g id="edge14" class="edge">
<title>SourceModule&#45;&gt;ClaimReviewModule</title>
<path fill="none" stroke="black" d="M1364.38,-84.81C1364.38,-84.81 1364.38,-114.65 1364.38,-114.65"/>
<polygon fill="black" stroke="black" points="1360.88,-114.65 1364.38,-124.65 1367.88,-114.65 1360.88,-114.65"/>
</g>
<!-- SourceModule&#45;&gt;ClaimRevisionModule -->
<g id="edge19" class="edge">
<title>SourceModule&#45;&gt;ClaimRevisionModule</title>
<path fill="none" stroke="black" d="M1349.08,-84.95C1349.08,-97.07 1349.08,-110.8 1349.08,-110.8 1349.08,-110.8 1244.43,-110.8 1244.43,-110.8 1244.43,-110.8 1244.43,-114.56 1244.43,-114.56"/>
<polygon fill="black" stroke="black" points="1240.93,-114.56 1244.43,-124.56 1247.93,-114.56 1240.93,-114.56"/>
</g>
<!-- SourceModule&#45;&gt;ClaimModule -->
<g id="edge9" class="edge">
<title>SourceModule&#45;&gt;ClaimModule</title>
<path fill="none" stroke="black" d="M1426.73,-85.08C1426.73,-140.81 1426.73,-304.8 1426.73,-304.8 1426.73,-304.8 921.01,-304.8 921.01,-304.8"/>
<polygon fill="black" stroke="black" points="921.01,-301.3 911.01,-304.8 921.01,-308.3 921.01,-301.3"/>
</g>
<!-- SourceService  -->
<g id="node35" class="node">
<title>SourceService </title>
<polygon fill="#fb8072" stroke="black" points="2840.35,-160.8 2739.65,-160.8 2739.65,-124.8 2840.35,-124.8 2840.35,-160.8"/>
<text text-anchor="middle" x="2790" y="-138.6" font-family="Times,serif" font-size="14.00">SourceService </text>
</g>
<!-- SourceModule&#45;&gt;SourceService  -->
<g id="edge45" class="edge">
<title>SourceModule&#45;&gt;SourceService </title>
<path fill="none" stroke="black" stroke-dasharray="5,2" d="M1415.75,-84.96C1415.75,-89.84 1415.75,-93.8 1415.75,-93.8 1415.75,-93.8 2790,-93.8 2790,-93.8 2790,-93.8 2790,-114.55 2790,-114.55"/>
<polygon fill="black" stroke="black" points="2786.5,-114.55 2790,-124.55 2793.5,-114.55 2786.5,-114.55"/>
</g>
<!-- ViewModule -->
<g id="node11" class="node">
<title>ViewModule</title>
<polygon fill="#8dd3c7" stroke="black" points="1083.87,-84.8 1080.87,-88.8 1059.87,-88.8 1056.87,-84.8 994.13,-84.8 994.13,-48.8 1083.87,-48.8 1083.87,-84.8"/>
<text text-anchor="middle" x="1039" y="-62.6" font-family="Times,serif" font-size="14.00">ViewModule</text>
</g>
<!-- ViewModule&#45;&gt;UsersModule -->
<g id="edge52" class="edge">
<title>ViewModule&#45;&gt;UsersModule</title>
<path fill="none" stroke="black" d="M1027.77,-85.11C1027.77,-104.95 1027.77,-133.8 1027.77,-133.8 1027.77,-133.8 437.92,-133.8 437.92,-133.8"/>
<polygon fill="black" stroke="black" points="437.92,-130.3 427.92,-133.8 437.92,-137.3 437.92,-130.3"/>
</g>
<!-- ViewModule&#45;&gt;ClaimRevisionModule -->
<g id="edge20" class="edge">
<title>ViewModule&#45;&gt;ClaimRevisionModule</title>
<path fill="none" stroke="black" d="M1072.7,-84.83C1072.7,-109.78 1072.7,-151.8 1072.7,-151.8 1072.7,-151.8 1102.25,-151.8 1102.25,-151.8"/>
<polygon fill="black" stroke="black" points="1102.25,-155.3 1112.25,-151.8 1102.25,-148.3 1102.25,-155.3"/>
</g>
<!-- ViewModule&#45;&gt;PersonalityModule -->
<g id="edge35" class="edge">
<title>ViewModule&#45;&gt;PersonalityModule</title>
<path fill="none" stroke="black" d="M1061.47,-84.96C1061.47,-127.06 1061.47,-227.8 1061.47,-227.8 1061.47,-227.8 1277.67,-227.8 1277.67,-227.8"/>
<polygon fill="black" stroke="black" points="1277.67,-231.3 1287.67,-227.8 1277.67,-224.3 1277.67,-231.3"/>
</g>
<!-- ViewModule&#45;&gt;ClaimModule -->
<g id="edge10" class="edge">
<title>ViewModule&#45;&gt;ClaimModule</title>
<path fill="none" stroke="black" d="M1039,-85.05C1039,-136.8 1039,-280.8 1039,-280.8 1039,-280.8 920.9,-280.8 920.9,-280.8"/>
<polygon fill="black" stroke="black" points="920.9,-277.3 910.9,-280.8 920.9,-284.3 920.9,-277.3"/>
</g>
<!-- ViewModule&#45;&gt;HomeModule -->
<g id="edge29" class="edge">
<title>ViewModule&#45;&gt;HomeModule</title>
<path fill="none" stroke="black" d="M1050.23,-85.03C1050.23,-160.54 1050.23,-444.8 1050.23,-444.8 1050.23,-444.8 1478.08,-444.8 1478.08,-444.8"/>
<polygon fill="black" stroke="black" points="1478.08,-448.3 1488.08,-444.8 1478.08,-441.3 1478.08,-448.3"/>
</g>
<!-- ViewService  -->
<g id="node41" class="node">
<title>ViewService </title>
<polygon fill="#fb8072" stroke="black" points="3117.8,-160.8 3026.2,-160.8 3026.2,-124.8 3117.8,-124.8 3117.8,-160.8"/>
<text text-anchor="middle" x="3072" y="-138.6" font-family="Times,serif" font-size="14.00">ViewService </text>
</g>
<!-- ViewModule&#45;&gt;ViewService  -->
<g id="edge55" class="edge">
<title>ViewModule&#45;&gt;ViewService </title>
<path fill="none" stroke="black" stroke-dasharray="5,2" d="M1005.3,-84.88C1005.3,-86.65 1005.3,-87.8 1005.3,-87.8 1005.3,-87.8 3072,-87.8 3072,-87.8 3072,-87.8 3072,-114.79 3072,-114.79"/>
<polygon fill="black" stroke="black" points="3068.5,-114.79 3072,-124.79 3075.5,-114.79 3068.5,-114.79"/>
</g>
<!-- ClaimService  -->
<g id="node13" class="node">
<title>ClaimService </title>
<polygon fill="#fb8072" stroke="black" points="911.7,-388.8 816.3,-388.8 816.3,-352.8 911.7,-352.8 911.7,-388.8"/>
<text text-anchor="middle" x="864" y="-366.6" font-family="Times,serif" font-size="14.00">ClaimService </text>
</g>
<!-- ClaimModule&#45;&gt;ClaimService  -->
<g id="edge11" class="edge">
<title>ClaimModule&#45;&gt;ClaimService </title>
<path fill="none" stroke="black" stroke-dasharray="5,2" d="M848.37,-312.81C848.37,-312.81 848.37,-342.65 848.37,-342.65"/>
<polygon fill="black" stroke="black" points="844.87,-342.65 848.37,-352.65 851.87,-342.65 844.87,-342.65"/>
</g>
<!-- ClaimModule&#45;&gt;StatsModule -->
<g id="edge47" class="edge">
<title>ClaimModule&#45;&gt;StatsModule</title>
<path fill="none" stroke="black" d="M910.84,-308.8C926.81,-308.8 940.72,-308.8 940.72,-308.8 940.72,-308.8 940.72,-379.8 940.72,-379.8 940.72,-379.8 1477.6,-379.8 1477.6,-379.8"/>
<polygon fill="black" stroke="black" points="1477.6,-383.3 1487.6,-379.8 1477.6,-376.3 1477.6,-383.3"/>
</g>
<!-- ClaimModule&#45;&gt;SitemapModule -->
<g id="edge40" class="edge">
<title>ClaimModule&#45;&gt;SitemapModule</title>
<path fill="none" stroke="black" d="M879.63,-312.84C879.63,-325.36 879.63,-339.8 879.63,-339.8 879.63,-339.8 1862.64,-339.8 1862.64,-339.8 1862.64,-339.8 1862.64,-342.77 1862.64,-342.77"/>
<polygon fill="black" stroke="black" points="1859.14,-342.77 1862.64,-352.77 1866.14,-342.77 1859.14,-342.77"/>
</g>
<!-- ClaimService -->
<g id="node14" class="node">
<title>ClaimService</title>
<ellipse fill="#fdb462" stroke="black" cx="906" cy="-218.8" rx="63.7" ry="18"/>
<text text-anchor="middle" x="906" y="-214.6" font-family="Times,serif" font-size="14.00">ClaimService</text>
</g>
<!-- ClaimService&#45;&gt;ClaimModule -->
<g id="edge12" class="edge">
<title>ClaimService&#45;&gt;ClaimModule</title>
<path fill="none" stroke="black" d="M876.64,-234.92C876.64,-234.92 876.64,-266.57 876.64,-266.57"/>
<polygon fill="black" stroke="black" points="873.14,-266.57 876.64,-276.57 880.14,-266.57 873.14,-266.57"/>
</g>
<!-- ClaimReviewService -->
<g id="node16" class="node">
<title>ClaimReviewService</title>
<ellipse fill="#fdb462" stroke="black" cx="1727" cy="-66.8" rx="93.19" ry="18"/>
<text text-anchor="middle" x="1727" y="-62.6" font-family="Times,serif" font-size="14.00">ClaimReviewService</text>
</g>
<!-- ClaimReviewService&#45;&gt;ClaimReviewModule -->
<g id="edge16" class="edge">
<title>ClaimReviewService&#45;&gt;ClaimReviewModule</title>
<path fill="none" stroke="black" d="M1650.1,-77.23C1650.1,-91.08 1650.1,-113.8 1650.1,-113.8 1650.1,-113.8 1379.68,-113.8 1379.68,-113.8 1379.68,-113.8 1379.68,-114.88 1379.68,-114.88"/>
<polygon fill="black" stroke="black" points="1376.18,-114.6 1379.68,-124.6 1383.18,-114.6 1376.18,-114.6"/>
</g>
<!-- UtilService -->
<g id="node17" class="node">
<title>UtilService</title>
<ellipse fill="#fdb462" stroke="black" cx="1893" cy="-66.8" rx="55.03" ry="18"/>
<text text-anchor="middle" x="1893" y="-62.6" font-family="Times,serif" font-size="14.00">UtilService</text>
</g>
<!-- UtilService&#45;&gt;ClaimReviewModule -->
<g id="edge17" class="edge">
<title>UtilService&#45;&gt;ClaimReviewModule</title>
<path fill="none" stroke="black" d="M1865.47,-82.62C1865.47,-97.27 1865.47,-116.8 1865.47,-116.8 1865.47,-116.8 1394.97,-116.8 1394.97,-116.8 1394.97,-116.8 1394.97,-117.59 1394.97,-117.59"/>
<polygon fill="black" stroke="black" points="1391.47,-114.74 1394.97,-124.74 1398.47,-114.74 1391.47,-114.74"/>
</g>
<!-- UtilService&#45;&gt;PersonalityModule -->
<g id="edge39" class="edge">
<title>UtilService&#45;&gt;PersonalityModule</title>
<path fill="none" stroke="black" d="M1934.22,-78.94C1934.22,-115.93 1934.22,-224.8 1934.22,-224.8 1934.22,-224.8 1420.25,-224.8 1420.25,-224.8"/>
<polygon fill="black" stroke="black" points="1420.25,-221.3 1410.25,-224.8 1420.25,-228.3 1420.25,-221.3"/>
</g>
<!-- ClaimRevisionService -->
<g id="node19" class="node">
<title>ClaimRevisionService</title>
<ellipse fill="#fdb462" stroke="black" cx="2150" cy="-218.8" rx="97.87" ry="18"/>
<text text-anchor="middle" x="2150" y="-214.6" font-family="Times,serif" font-size="14.00">ClaimRevisionService</text>
</g>
<!-- ClaimRevisionService&#45;&gt;ClaimRevisionModule -->
<g id="edge22" class="edge">
<title>ClaimRevisionService&#45;&gt;ClaimRevisionModule</title>
<path fill="none" stroke="black" d="M2089.01,-204.39C2089.01,-196.29 2089.01,-187.8 2089.01,-187.8 2089.01,-187.8 1169.65,-187.8 1169.65,-187.8 1169.65,-187.8 1169.65,-170.84 1169.65,-170.84"/>
<polygon fill="black" stroke="black" points="1173.15,-170.84 1169.65,-160.84 1166.15,-170.84 1173.15,-170.84"/>
</g>
<!-- EmailService  -->
<g id="node20" class="node">
<title>EmailService </title>
<polygon fill="#fb8072" stroke="black" points="3268.42,-236.8 3173.58,-236.8 3173.58,-200.8 3268.42,-200.8 3268.42,-236.8"/>
<text text-anchor="middle" x="3221" y="-214.6" font-family="Times,serif" font-size="14.00">EmailService </text>
</g>
<!-- EmailModule -->
<g id="node21" class="node">
<title>EmailModule</title>
<polygon fill="#8dd3c7" stroke="black" points="3267.49,-160.8 3264.49,-164.8 3243.49,-164.8 3240.49,-160.8 3174.51,-160.8 3174.51,-124.8 3267.49,-124.8 3267.49,-160.8"/>
<text text-anchor="middle" x="3221" y="-138.6" font-family="Times,serif" font-size="14.00">EmailModule</text>
</g>
<!-- EmailModule&#45;&gt;EmailService  -->
<g id="edge23" class="edge">
<title>EmailModule&#45;&gt;EmailService </title>
<path fill="none" stroke="black" stroke-dasharray="5,2" d="M3221,-160.81C3221,-160.81 3221,-190.65 3221,-190.65"/>
<polygon fill="black" stroke="black" points="3217.5,-190.65 3221,-200.65 3224.5,-190.65 3217.5,-190.65"/>
</g>
<!-- EmailService -->
<g id="node22" class="node">
<title>EmailService</title>
<ellipse fill="#fdb462" stroke="black" cx="3221" cy="-66.8" rx="63.12" ry="18"/>
<text text-anchor="middle" x="3221" y="-62.6" font-family="Times,serif" font-size="14.00">EmailService</text>
</g>
<!-- EmailService&#45;&gt;EmailModule -->
<g id="edge24" class="edge">
<title>EmailService&#45;&gt;EmailModule</title>
<path fill="none" stroke="black" d="M3221,-84.81C3221,-84.81 3221,-114.65 3221,-114.65"/>
<polygon fill="black" stroke="black" points="3217.5,-114.65 3221,-124.65 3224.5,-114.65 3217.5,-114.65"/>
</g>
<!-- HistoryService -->
<g id="node24" class="node">
<title>HistoryService</title>
<ellipse fill="#fdb462" stroke="black" cx="2057" cy="-142.8" rx="68.92" ry="18"/>
<text text-anchor="middle" x="2057" y="-138.6" font-family="Times,serif" font-size="14.00">HistoryService</text>
</g>
<!-- HistoryService&#45;&gt;HistoryModule -->
<g id="edge26" class="edge">
<title>HistoryService&#45;&gt;HistoryModule</title>
<path fill="none" stroke="black" d="M2057,-124.48C2057,-116.01 2057,-107.8 2057,-107.8 2057,-107.8 1135.11,-107.8 1135.11,-107.8 1135.11,-107.8 1135.11,-94.9 1135.11,-94.9"/>
<polygon fill="black" stroke="black" points="1138.61,-94.9 1135.11,-84.9 1131.61,-94.9 1138.61,-94.9"/>
</g>
<!-- StatsModule&#45;&gt;HomeModule -->
<g id="edge28" class="edge">
<title>StatsModule&#45;&gt;HomeModule</title>
<path fill="none" stroke="black" d="M1531.25,-389.02C1531.25,-389.02 1531.25,-410.53 1531.25,-410.53"/>
<polygon fill="black" stroke="black" points="1527.75,-410.53 1531.25,-420.53 1534.75,-410.53 1527.75,-410.53"/>
</g>
<!-- StatsService  -->
<g id="node37" class="node">
<title>StatsService </title>
<polygon fill="#fb8072" stroke="black" points="1702.2,-312.8 1613.8,-312.8 1613.8,-276.8 1702.2,-276.8 1702.2,-312.8"/>
<text text-anchor="middle" x="1658" y="-290.6" font-family="Times,serif" font-size="14.00">StatsService </text>
</g>
<!-- StatsModule&#45;&gt;StatsService  -->
<g id="edge50" class="edge">
<title>StatsModule&#45;&gt;StatsService </title>
<path fill="none" stroke="black" stroke-dasharray="5,2" d="M1574.35,-376.8C1611.14,-376.8 1658,-376.8 1658,-376.8 1658,-376.8 1658,-323 1658,-323"/>
<polygon fill="black" stroke="black" points="1661.5,-323 1658,-313 1654.5,-323 1661.5,-323"/>
</g>
<!-- ParserService -->
<g id="node28" class="node">
<title>ParserService</title>
<ellipse fill="#fdb462" stroke="black" cx="2358" cy="-142.8" rx="64.24" ry="18"/>
<text text-anchor="middle" x="2358" y="-138.6" font-family="Times,serif" font-size="14.00">ParserService</text>
</g>
<!-- ParserService&#45;&gt;ParserModule -->
<g id="edge31" class="edge">
<title>ParserService&#45;&gt;ParserModule</title>
<path fill="none" stroke="black" d="M2358,-124.67C2358,-114.09 2358,-102.8 2358,-102.8 2358,-102.8 1305.63,-102.8 1305.63,-102.8 1305.63,-102.8 1305.63,-95.22 1305.63,-95.22"/>
<polygon fill="black" stroke="black" points="1309.13,-95.22 1305.63,-85.22 1302.13,-95.22 1309.13,-95.22"/>
</g>
<!-- WikidataModule -->
<g id="node29" class="node">
<title>WikidataModule</title>
<polygon fill="#8dd3c7" stroke="black" points="1920.37,-160.8 1917.37,-164.8 1896.37,-164.8 1893.37,-160.8 1809.63,-160.8 1809.63,-124.8 1920.37,-124.8 1920.37,-160.8"/>
<text text-anchor="middle" x="1865" y="-138.6" font-family="Times,serif" font-size="14.00">WikidataModule</text>
</g>
<!-- WikidataModule&#45;&gt;PersonalityModule -->
<g id="edge36" class="edge">
<title>WikidataModule&#45;&gt;PersonalityModule</title>
<path fill="none" stroke="black" d="M1865,-160.81C1865,-183.29 1865,-218.8 1865,-218.8 1865,-218.8 1420.22,-218.8 1420.22,-218.8"/>
<polygon fill="black" stroke="black" points="1420.22,-215.3 1410.22,-218.8 1420.22,-222.3 1420.22,-215.3"/>
</g>
<!-- WikidataService  -->
<g id="node43" class="node">
<title>WikidataService </title>
<polygon fill="#fb8072" stroke="black" points="2274.29,-84.8 2161.71,-84.8 2161.71,-48.8 2274.29,-48.8 2274.29,-84.8"/>
<text text-anchor="middle" x="2218" y="-62.6" font-family="Times,serif" font-size="14.00">WikidataService </text>
</g>
<!-- WikidataModule&#45;&gt;WikidataService  -->
<g id="edge57" class="edge">
<title>WikidataModule&#45;&gt;WikidataService </title>
<path fill="none" stroke="black" stroke-dasharray="5,2" d="M1892.95,-124.68C1892.95,-121.83 1892.95,-119.8 1892.95,-119.8 1892.95,-119.8 2207.67,-119.8 2207.67,-119.8 2207.67,-119.8 2207.67,-95.04 2207.67,-95.04"/>
<polygon fill="black" stroke="black" points="2211.17,-95.04 2207.67,-85.04 2204.17,-95.04 2211.17,-95.04"/>
</g>
<!-- PersonalityService -->
<g id="node31" class="node">
<title>PersonalityService</title>
<ellipse fill="#fdb462" stroke="black" cx="1555" cy="-142.8" rx="83.38" ry="18"/>
<text text-anchor="middle" x="1555" y="-138.6" font-family="Times,serif" font-size="14.00">PersonalityService</text>
</g>
<!-- PersonalityService&#45;&gt;PersonalityModule -->
<g id="edge38" class="edge">
<title>PersonalityService&#45;&gt;PersonalityModule</title>
<path fill="none" stroke="black" d="M1531,-160.29C1531,-179.24 1531,-206.8 1531,-206.8 1531,-206.8 1420.11,-206.8 1420.11,-206.8"/>
<polygon fill="black" stroke="black" points="1420.11,-203.3 1410.11,-206.8 1420.11,-210.3 1420.11,-203.3"/>
</g>
<!-- SitemapService  -->
<g id="node33" class="node">
<title>SitemapService </title>
<polygon fill="#fb8072" stroke="black" points="1942.86,-456.8 1835.14,-456.8 1835.14,-420.8 1942.86,-420.8 1942.86,-456.8"/>
<text text-anchor="middle" x="1889" y="-434.6" font-family="Times,serif" font-size="14.00">SitemapService </text>
</g>
<!-- SitemapModule&#45;&gt;SitemapService  -->
<g id="edge43" class="edge">
<title>SitemapModule&#45;&gt;SitemapService </title>
<path fill="none" stroke="black" stroke-dasharray="5,2" d="M1889,-389.02C1889,-389.02 1889,-410.53 1889,-410.53"/>
<polygon fill="black" stroke="black" points="1885.5,-410.53 1889,-420.53 1892.5,-410.53 1885.5,-410.53"/>
</g>
<!-- SitemapService -->
<g id="node34" class="node">
<title>SitemapService</title>
<ellipse fill="#fdb462" stroke="black" cx="1880" cy="-294.8" rx="71.78" ry="18"/>
<text text-anchor="middle" x="1880" y="-290.6" font-family="Times,serif" font-size="14.00">SitemapService</text>
</g>
<!-- SitemapService&#45;&gt;SitemapModule -->
<g id="edge44" class="edge">
<title>SitemapService&#45;&gt;SitemapModule</title>
<path fill="none" stroke="black" d="M1915.36,-310.55C1915.36,-310.55 1915.36,-342.67 1915.36,-342.67"/>
<polygon fill="black" stroke="black" points="1911.86,-342.67 1915.36,-352.67 1918.86,-342.67 1911.86,-342.67"/>
</g>
<!-- SourceService -->
<g id="node36" class="node">
<title>SourceService</title>
<ellipse fill="#fdb462" stroke="black" cx="2649" cy="-142.8" rx="66.61" ry="18"/>
<text text-anchor="middle" x="2649" y="-138.6" font-family="Times,serif" font-size="14.00">SourceService</text>
</g>
<!-- SourceService&#45;&gt;SourceModule -->
<g id="edge46" class="edge">
<title>SourceService&#45;&gt;SourceModule</title>
<path fill="none" stroke="black" d="M2649,-124.62C2649,-111.76 2649,-96.8 2649,-96.8 2649,-96.8 1421.24,-96.8 1421.24,-96.8 1421.24,-96.8 1421.24,-94.94 1421.24,-94.94"/>
<polygon fill="black" stroke="black" points="1424.74,-94.94 1421.24,-84.94 1417.74,-94.94 1424.74,-94.94"/>
</g>
<!-- StatsService -->
<g id="node38" class="node">
<title>StatsService</title>
<ellipse fill="#fdb462" stroke="black" cx="1531" cy="-294.8" rx="58.54" ry="18"/>
<text text-anchor="middle" x="1531" y="-290.6" font-family="Times,serif" font-size="14.00">StatsService</text>
</g>
<!-- StatsService&#45;&gt;StatsModule -->
<g id="edge51" class="edge">
<title>StatsService&#45;&gt;StatsModule</title>
<path fill="none" stroke="black" d="M1531,-312.81C1531,-312.81 1531,-342.65 1531,-342.65"/>
<polygon fill="black" stroke="black" points="1527.5,-342.65 1531,-352.65 1534.5,-342.65 1527.5,-342.65"/>
</g>
<!-- UsersService -->
<g id="node40" class="node">
<title>UsersService</title>
<ellipse fill="#fdb462" stroke="black" cx="530" cy="-218.8" rx="61.95" ry="18"/>
<text text-anchor="middle" x="530" y="-214.6" font-family="Times,serif" font-size="14.00">UsersService</text>
</g>
<!-- UsersService&#45;&gt;UsersModule -->
<g id="edge54" class="edge">
<title>UsersService&#45;&gt;UsersModule</title>
<path fill="none" stroke="black" d="M471.38,-212.8C435.82,-212.8 397.24,-212.8 397.24,-212.8 397.24,-212.8 397.24,-170.83 397.24,-170.83"/>
<polygon fill="black" stroke="black" points="400.74,-170.83 397.24,-160.83 393.74,-170.83 400.74,-170.83"/>
</g>
<!-- ViewService -->
<g id="node42" class="node">
<title>ViewService</title>
<ellipse fill="#fdb462" stroke="black" cx="2941" cy="-142.8" rx="60.81" ry="18"/>
<text text-anchor="middle" x="2941" y="-138.6" font-family="Times,serif" font-size="14.00">ViewService</text>
</g>
<!-- ViewService&#45;&gt;ViewModule -->
<g id="edge56" class="edge">
<title>ViewService&#45;&gt;ViewModule</title>
<path fill="none" stroke="black" d="M2941,-124.61C2941,-109.62 2941,-90.8 2941,-90.8 2941,-90.8 1016.53,-90.8 1016.53,-90.8 1016.53,-90.8 1016.53,-90.22 1016.53,-90.22"/>
<polygon fill="black" stroke="black" points="1020.03,-94.99 1016.53,-84.99 1013.03,-94.99 1020.03,-94.99"/>
</g>
<!-- WikidataService -->
<g id="node44" class="node">
<title>WikidataService</title>
<ellipse fill="#fdb462" stroke="black" cx="2063" cy="-66.8" rx="75.28" ry="18"/>
<text text-anchor="middle" x="2063" y="-62.6" font-family="Times,serif" font-size="14.00">WikidataService</text>
</g>
<!-- WikidataService&#45;&gt;WikidataModule -->
<g id="edge58" class="edge">
<title>WikidataService&#45;&gt;WikidataModule</title>
<path fill="none" stroke="black" d="M1987.19,-66.8C1976.81,-66.8 1969.63,-66.8 1969.63,-66.8 1969.63,-66.8 1969.63,-142.8 1969.63,-142.8 1969.63,-142.8 1930.38,-142.8 1930.38,-142.8"/>
<polygon fill="black" stroke="black" points="1930.38,-139.3 1920.38,-142.8 1930.38,-146.3 1930.38,-139.3"/>
</g>
</g>
</svg>
