<?xml version="1.0" encoding="UTF-8" standalone="no"?>
<!DOCTYPE svg PUBLIC "-//W3C//DTD SVG 1.1//EN"
 "http://www.w3.org/Graphics/SVG/1.1/DTD/svg11.dtd">
<!-- Generated by graphviz version 2.47.3 (20210619.1520)
 -->
<!-- Title: dependencies Pages: 1 -->
<svg width="2491pt" height="478pt"
 viewBox="0.00 0.00 2491.00 477.80" xmlns="http://www.w3.org/2000/svg" xmlns:xlink="http://www.w3.org/1999/xlink">
<g id="graph0" class="graph" transform="scale(1 1) rotate(0) translate(4 473.8)">
<title>dependencies</title>
<polygon fill="white" stroke="transparent" points="-4,4 -4,-473.8 2487,-473.8 2487,4 -4,4"/>
<text text-anchor="middle" x="1241.5" y="-8.2" font-family="sans-serif" font-size="14.00">dependencies</text>
<g id="clust7" class="cluster">
<title>cluster_AuthModule</title>
<polygon fill="none" stroke="black" stroke-dasharray="1,5" points="8,-184.8 8,-320.8 444,-320.8 444,-184.8 8,-184.8"/>
</g>
<g id="clust9" class="cluster">
<title>cluster_AuthModule_imports</title>
<polygon fill="none" stroke="black" points="328,-192.8 328,-244.8 436,-244.8 436,-192.8 328,-192.8"/>
</g>
<g id="clust12" class="cluster">
<title>cluster_AuthModule_providers</title>
<polygon fill="none" stroke="black" points="16,-192.8 16,-244.8 320,-244.8 320,-192.8 16,-192.8"/>
</g>
<g id="clust13" class="cluster">
<title>cluster_ClaimModule</title>
<polygon fill="none" stroke="black" stroke-dasharray="1,5" points="1039,-32.8 1039,-404.8 1467,-404.8 1467,-32.8 1039,-32.8"/>
</g>
<g id="clust15" class="cluster">
<title>cluster_ClaimModule_imports</title>
<polygon fill="none" stroke="black" points="1199,-40.8 1199,-244.8 1459,-244.8 1459,-40.8 1199,-40.8"/>
</g>
<g id="clust16" class="cluster">
<title>cluster_ClaimModule_exports</title>
<polygon fill="none" stroke="black" points="1166,-344.8 1166,-396.8 1278,-396.8 1278,-344.8 1166,-344.8"/>
</g>
<g id="clust18" class="cluster">
<title>cluster_ClaimModule_providers</title>
<polygon fill="none" stroke="black" points="1047,-192.8 1047,-244.8 1191,-244.8 1191,-192.8 1047,-192.8"/>
</g>
<g id="clust19" class="cluster">
<title>cluster_ClaimReviewModule</title>
<polygon fill="none" stroke="black" stroke-dasharray="1,5" points="1475,-32.8 1475,-100.8 1983,-100.8 1983,-32.8 1475,-32.8"/>
</g>
<g id="clust22" class="cluster">
<title>cluster_ClaimReviewModule_exports</title>
<polygon fill="none" stroke="black" points="1483,-40.8 1483,-92.8 1637,-92.8 1637,-40.8 1483,-40.8"/>
</g>
<g id="clust24" class="cluster">
<title>cluster_ClaimReviewModule_providers</title>
<polygon fill="none" stroke="black" points="1645,-40.8 1645,-92.8 1975,-92.8 1975,-40.8 1645,-40.8"/>
</g>
<g id="clust25" class="cluster">
<title>cluster_EmailModule</title>
<polygon fill="none" stroke="black" stroke-dasharray="1,5" points="2317,-32.8 2317,-252.8 2475,-252.8 2475,-32.8 2317,-32.8"/>
</g>
<g id="clust28" class="cluster">
<title>cluster_EmailModule_exports</title>
<polygon fill="none" stroke="black" points="2341,-192.8 2341,-244.8 2451,-244.8 2451,-192.8 2341,-192.8"/>
</g>
<g id="clust30" class="cluster">
<title>cluster_EmailModule_providers</title>
<polygon fill="none" stroke="black" points="2325,-40.8 2325,-92.8 2467,-92.8 2467,-40.8 2325,-40.8"/>
</g>
<g id="clust31" class="cluster">
<title>cluster_HomeModule</title>
<polygon fill="none" stroke="black" stroke-dasharray="1,5" points="785,-336.8 785,-461.8 903,-461.8 903,-336.8 785,-336.8"/>
</g>
<g id="clust33" class="cluster">
<title>cluster_HomeModule_imports</title>
<polygon fill="none" stroke="black" points="793,-344.8 793,-396.8 895,-396.8 895,-344.8 793,-344.8"/>
</g>
<g id="clust37" class="cluster">
<title>cluster_ParserModule</title>
<polygon fill="none" stroke="black" stroke-dasharray="1,5" points="453,-108.8 453,-176.8 733,-176.8 733,-108.8 453,-108.8"/>
</g>
<g id="clust40" class="cluster">
<title>cluster_ParserModule_exports</title>
<polygon fill="none" stroke="black" points="613,-116.8 613,-168.8 725,-168.8 725,-116.8 613,-116.8"/>
</g>
<g id="clust42" class="cluster">
<title>cluster_ParserModule_providers</title>
<polygon fill="none" stroke="black" points="461,-116.8 461,-168.8 605,-168.8 605,-116.8 461,-116.8"/>
</g>
<g id="clust43" class="cluster">
<title>cluster_PersonalityModule</title>
<polygon fill="none" stroke="black" stroke-dasharray="1,5" points="1497,-108.8 1497,-176.8 1977,-176.8 1977,-108.8 1497,-108.8"/>
</g>
<g id="clust45" class="cluster">
<title>cluster_PersonalityModule_imports</title>
<polygon fill="none" stroke="black" points="1843,-116.8 1843,-168.8 1969,-168.8 1969,-116.8 1843,-116.8"/>
</g>
<g id="clust46" class="cluster">
<title>cluster_PersonalityModule_exports</title>
<polygon fill="none" stroke="black" points="1695,-116.8 1695,-168.8 1835,-168.8 1835,-116.8 1695,-116.8"/>
</g>
<g id="clust48" class="cluster">
<title>cluster_PersonalityModule_providers</title>
<polygon fill="none" stroke="black" points="1505,-116.8 1505,-168.8 1687,-168.8 1687,-116.8 1505,-116.8"/>
</g>
<g id="clust49" class="cluster">
<title>cluster_SourceModule</title>
<polygon fill="none" stroke="black" stroke-dasharray="1,5" points="741,-108.8 741,-176.8 1031,-176.8 1031,-108.8 741,-108.8"/>
</g>
<g id="clust52" class="cluster">
<title>cluster_SourceModule_exports</title>
<polygon fill="none" stroke="black" points="907,-116.8 907,-168.8 1023,-168.8 1023,-116.8 907,-116.8"/>
</g>
<g id="clust54" class="cluster">
<title>cluster_SourceModule_providers</title>
<polygon fill="none" stroke="black" points="749,-116.8 749,-168.8 899,-168.8 899,-116.8 749,-116.8"/>
</g>
<g id="clust55" class="cluster">
<title>cluster_StatsModule</title>
<polygon fill="none" stroke="black" stroke-dasharray="1,5" points="769,-260.8 769,-328.8 1031,-328.8 1031,-260.8 769,-260.8"/>
</g>
<g id="clust58" class="cluster">
<title>cluster_StatsModule_exports</title>
<polygon fill="none" stroke="black" points="919,-268.8 919,-320.8 1023,-320.8 1023,-268.8 919,-268.8"/>
</g>
<g id="clust60" class="cluster">
<title>cluster_StatsModule_providers</title>
<polygon fill="none" stroke="black" points="777,-268.8 777,-320.8 911,-320.8 911,-268.8 777,-268.8"/>
</g>
<g id="clust61" class="cluster">
<title>cluster_UsersModule</title>
<polygon fill="none" stroke="black" stroke-dasharray="1,5" points="171,-108.8 171,-176.8 445,-176.8 445,-108.8 171,-108.8"/>
</g>
<g id="clust64" class="cluster">
<title>cluster_UsersModule_exports</title>
<polygon fill="none" stroke="black" points="327,-116.8 327,-168.8 437,-168.8 437,-116.8 327,-116.8"/>
</g>
<g id="clust66" class="cluster">
<title>cluster_UsersModule_providers</title>
<polygon fill="none" stroke="black" points="179,-116.8 179,-168.8 319,-168.8 319,-116.8 179,-116.8"/>
</g>
<g id="clust67" class="cluster">
<title>cluster_ViewModule</title>
<polygon fill="none" stroke="black" stroke-dasharray="1,5" points="693,-184.8 693,-252.8 963,-252.8 963,-184.8 693,-184.8"/>
</g>
<g id="clust70" class="cluster">
<title>cluster_ViewModule_exports</title>
<polygon fill="none" stroke="black" points="847,-192.8 847,-244.8 955,-244.8 955,-192.8 847,-192.8"/>
</g>
<g id="clust72" class="cluster">
<title>cluster_ViewModule_providers</title>
<polygon fill="none" stroke="black" points="701,-192.8 701,-244.8 839,-244.8 839,-192.8 701,-192.8"/>
</g>
<g id="clust73" class="cluster">
<title>cluster_WikidataModule</title>
<polygon fill="none" stroke="black" stroke-dasharray="1,5" points="1991,-32.8 1991,-100.8 2309,-100.8 2309,-32.8 1991,-32.8"/>
</g>
<g id="clust76" class="cluster">
<title>cluster_WikidataModule_exports</title>
<polygon fill="none" stroke="black" points="2173,-40.8 2173,-92.8 2301,-92.8 2301,-40.8 2173,-40.8"/>
</g>
<g id="clust78" class="cluster">
<title>cluster_WikidataModule_providers</title>
<polygon fill="none" stroke="black" points="1999,-40.8 1999,-92.8 2165,-92.8 2165,-40.8 1999,-40.8"/>
</g>
<!-- UsersModule -->
<g id="node1" class="node">
<title>UsersModule</title>
<polygon fill="#8dd3c7" stroke="black" points="427.92,-236.8 424.92,-240.8 403.92,-240.8 400.92,-236.8 336.08,-236.8 336.08,-200.8 427.92,-200.8 427.92,-236.8"/>
<text text-anchor="middle" x="382" y="-214.6" font-family="Times,serif" font-size="14.00">UsersModule</text>
</g>
<!-- AuthModule -->
<g id="node2" class="node">
<title>AuthModule</title>
<polygon fill="#8dd3c7" stroke="black" points="285.55,-312.8 282.55,-316.8 261.55,-316.8 258.55,-312.8 198.45,-312.8 198.45,-276.8 285.55,-276.8 285.55,-312.8"/>
<text text-anchor="middle" x="242" y="-290.6" font-family="Times,serif" font-size="14.00">AuthModule</text>
</g>
<!-- UsersModule&#45;&gt;AuthModule -->
<g id="edge1" class="edge">
<title>UsersModule&#45;&gt;AuthModule</title>
<path fill="none" stroke="black" d="M382,-236.81C382,-259.29 382,-294.8 382,-294.8 382,-294.8 295.91,-294.8 295.91,-294.8"/>
<polygon fill="black" stroke="black" points="295.91,-291.3 285.91,-294.8 295.91,-298.3 295.91,-291.3"/>
</g>
<!-- UsersService  -->
<g id="node30" class="node">
<title>UsersService </title>
<polygon fill="#fb8072" stroke="black" points="428.85,-160.8 335.15,-160.8 335.15,-124.8 428.85,-124.8 428.85,-160.8"/>
<text text-anchor="middle" x="382" y="-138.6" font-family="Times,serif" font-size="14.00">UsersService </text>
</g>
<!-- UsersModule&#45;&gt;UsersService  -->
<g id="edge36" class="edge">
<title>UsersModule&#45;&gt;UsersService </title>
<path fill="none" stroke="black" stroke-dasharray="5,2" d="M366.76,-200.79C366.76,-200.79 366.76,-170.95 366.76,-170.95"/>
<polygon fill="black" stroke="black" points="370.26,-170.95 366.76,-160.95 363.26,-170.95 370.26,-170.95"/>
</g>
<!-- LocalSerializer -->
<g id="node3" class="node">
<title>LocalSerializer</title>
<ellipse fill="#fdb462" stroke="black" cx="242" cy="-218.8" rx="70.03" ry="18"/>
<text text-anchor="middle" x="242" y="-214.6" font-family="Times,serif" font-size="14.00">LocalSerializer</text>
</g>
<!-- LocalSerializer&#45;&gt;AuthModule -->
<g id="edge2" class="edge">
<title>LocalSerializer&#45;&gt;AuthModule</title>
<path fill="none" stroke="black" d="M242,-236.81C242,-236.81 242,-266.65 242,-266.65"/>
<polygon fill="black" stroke="black" points="238.5,-266.65 242,-276.65 245.5,-266.65 238.5,-266.65"/>
</g>
<!-- LocalStrategy -->
<g id="node4" class="node">
<title>LocalStrategy</title>
<ellipse fill="#fdb462" stroke="black" cx="89" cy="-218.8" rx="65.41" ry="18"/>
<text text-anchor="middle" x="89" y="-214.6" font-family="Times,serif" font-size="14.00">LocalStrategy</text>
</g>
<!-- LocalStrategy&#45;&gt;AuthModule -->
<g id="edge3" class="edge">
<title>LocalStrategy&#45;&gt;AuthModule</title>
<path fill="none" stroke="black" d="M89,-236.81C89,-259.29 89,-294.8 89,-294.8 89,-294.8 188.16,-294.8 188.16,-294.8"/>
<polygon fill="black" stroke="black" points="188.16,-298.3 198.16,-294.8 188.16,-291.3 188.16,-298.3"/>
</g>
<!-- ClaimReviewModule -->
<g id="node5" class="node">
<title>ClaimReviewModule</title>
<polygon fill="#8dd3c7" stroke="black" points="1451.04,-160.8 1448.04,-164.8 1427.04,-164.8 1424.04,-160.8 1314.96,-160.8 1314.96,-124.8 1451.04,-124.8 1451.04,-160.8"/>
<text text-anchor="middle" x="1383" y="-138.6" font-family="Times,serif" font-size="14.00">ClaimReviewModule</text>
</g>
<!-- PersonalityModule -->
<g id="node7" class="node">
<title>PersonalityModule</title>
<polygon fill="#8dd3c7" stroke="black" points="1444.04,-236.8 1441.04,-240.8 1420.04,-240.8 1417.04,-236.8 1321.96,-236.8 1321.96,-200.8 1444.04,-200.8 1444.04,-236.8"/>
<text text-anchor="middle" x="1383" y="-214.6" font-family="Times,serif" font-size="14.00">PersonalityModule</text>
</g>
<!-- ClaimReviewModule&#45;&gt;PersonalityModule -->
<g id="edge22" class="edge">
<title>ClaimReviewModule&#45;&gt;PersonalityModule</title>
<path fill="none" stroke="black" d="M1383,-160.81C1383,-160.81 1383,-190.65 1383,-190.65"/>
<polygon fill="black" stroke="black" points="1379.5,-190.65 1383,-200.65 1386.5,-190.65 1379.5,-190.65"/>
</g>
<!-- ClaimModule -->
<g id="node10" class="node">
<title>ClaimModule</title>
<polygon fill="#8dd3c7" stroke="black" points="1268.77,-312.8 1265.77,-316.8 1244.77,-316.8 1241.77,-312.8 1175.23,-312.8 1175.23,-276.8 1268.77,-276.8 1268.77,-312.8"/>
<text text-anchor="middle" x="1222" y="-290.6" font-family="Times,serif" font-size="14.00">ClaimModule</text>
</g>
<!-- ClaimReviewModule&#45;&gt;ClaimModule -->
<g id="edge4" class="edge">
<title>ClaimReviewModule&#45;&gt;ClaimModule</title>
<path fill="none" stroke="black" d="M1314.92,-136.8C1310.63,-136.8 1308,-136.8 1308,-136.8 1308,-136.8 1308,-300.8 1308,-300.8 1308,-300.8 1278.77,-300.8 1278.77,-300.8"/>
<polygon fill="black" stroke="black" points="1278.77,-297.3 1268.77,-300.8 1278.77,-304.3 1278.77,-297.3"/>
</g>
<!-- ClaimReviewService  -->
<g id="node13" class="node">
<title>ClaimReviewService </title>
<polygon fill="#fb8072" stroke="black" points="1629.46,-84.8 1490.54,-84.8 1490.54,-48.8 1629.46,-48.8 1629.46,-84.8"/>
<text text-anchor="middle" x="1560" y="-62.6" font-family="Times,serif" font-size="14.00">ClaimReviewService </text>
</g>
<!-- ClaimReviewModule&#45;&gt;ClaimReviewService  -->
<g id="edge12" class="edge">
<title>ClaimReviewModule&#45;&gt;ClaimReviewService </title>
<path fill="none" stroke="black" stroke-dasharray="5,2" d="M1451.34,-142.8C1477.72,-142.8 1501.66,-142.8 1501.66,-142.8 1501.66,-142.8 1501.66,-94.81 1501.66,-94.81"/>
<polygon fill="black" stroke="black" points="1505.16,-94.81 1501.66,-84.81 1498.16,-94.81 1505.16,-94.81"/>
</g>
<!-- StatsModule -->
<g id="node19" class="node">
<title>StatsModule</title>
<polygon fill="#8dd3c7" stroke="black" points="887.27,-388.8 884.27,-392.8 863.27,-392.8 860.27,-388.8 800.73,-388.8 800.73,-352.8 887.27,-352.8 887.27,-388.8"/>
<text text-anchor="middle" x="844" y="-366.6" font-family="Times,serif" font-size="14.00">StatsModule</text>
</g>
<!-- ClaimReviewModule&#45;&gt;StatsModule -->
<g id="edge31" class="edge">
<title>ClaimReviewModule&#45;&gt;StatsModule</title>
<path fill="none" stroke="black" d="M1314.82,-148.8C1312.63,-148.8 1311.37,-148.8 1311.37,-148.8 1311.37,-148.8 1311.37,-326.8 1311.37,-326.8 1311.37,-326.8 844,-326.8 844,-326.8 844,-326.8 844,-342.65 844,-342.65"/>
<polygon fill="black" stroke="black" points="840.5,-342.65 844,-352.65 847.5,-342.65 840.5,-342.65"/>
</g>
<!-- ParserModule -->
<g id="node6" class="node">
<title>ParserModule</title>
<polygon fill="#8dd3c7" stroke="black" points="1301.03,-84.8 1298.03,-88.8 1277.03,-88.8 1274.03,-84.8 1206.97,-84.8 1206.97,-48.8 1301.03,-48.8 1301.03,-84.8"/>
<text text-anchor="middle" x="1254" y="-62.6" font-family="Times,serif" font-size="14.00">ParserModule</text>
</g>
<!-- ParserModule&#45;&gt;ClaimModule -->
<g id="edge5" class="edge">
<title>ParserModule&#45;&gt;ClaimModule</title>
<path fill="none" stroke="black" d="M1206.96,-75.8C1199.76,-75.8 1194.67,-75.8 1194.67,-75.8 1194.67,-75.8 1194.67,-266.5 1194.67,-266.5"/>
<polygon fill="black" stroke="black" points="1191.17,-266.5 1194.67,-276.5 1198.17,-266.5 1191.17,-266.5"/>
</g>
<!-- ParserService  -->
<g id="node21" class="node">
<title>ParserService </title>
<polygon fill="#fb8072" stroke="black" points="717.46,-160.8 620.54,-160.8 620.54,-124.8 717.46,-124.8 717.46,-160.8"/>
<text text-anchor="middle" x="669" y="-138.6" font-family="Times,serif" font-size="14.00">ParserService </text>
</g>
<!-- ParserModule&#45;&gt;ParserService  -->
<g id="edge20" class="edge">
<title>ParserModule&#45;&gt;ParserService </title>
<path fill="none" stroke="black" stroke-dasharray="5,2" d="M1206.62,-66.8C1067.35,-66.8 669,-66.8 669,-66.8 669,-66.8 669,-114.79 669,-114.79"/>
<polygon fill="black" stroke="black" points="665.5,-114.79 669,-124.79 672.5,-114.79 665.5,-114.79"/>
</g>
<!-- PersonalityModule&#45;&gt;ClaimModule -->
<g id="edge6" class="edge">
<title>PersonalityModule&#45;&gt;ClaimModule</title>
<path fill="none" stroke="black" d="M1321.61,-224.8C1289.39,-224.8 1256.52,-224.8 1256.52,-224.8 1256.52,-224.8 1256.52,-266.77 1256.52,-266.77"/>
<polygon fill="black" stroke="black" points="1253.02,-266.77 1256.52,-276.77 1260.02,-266.77 1253.02,-266.77"/>
</g>
<!-- PersonalityModule&#45;&gt;StatsModule -->
<g id="edge32" class="edge">
<title>PersonalityModule&#45;&gt;StatsModule</title>
<path fill="none" stroke="black" d="M1362.58,-236.91C1362.58,-270.67 1362.58,-339.8 1362.58,-339.8 1362.58,-339.8 865.69,-339.8 865.69,-339.8 865.69,-339.8 865.69,-342.77 865.69,-342.77"/>
<polygon fill="black" stroke="black" points="862.19,-342.77 865.69,-352.77 869.19,-342.77 862.19,-342.77"/>
</g>
<!-- HomeModule -->
<g id="node20" class="node">
<title>HomeModule</title>
<polygon fill="#8dd3c7" stroke="black" points="890.76,-453.8 887.76,-457.8 866.76,-457.8 863.76,-453.8 797.24,-453.8 797.24,-417.8 890.76,-417.8 890.76,-453.8"/>
<text text-anchor="middle" x="844" y="-431.6" font-family="Times,serif" font-size="14.00">HomeModule</text>
</g>
<!-- PersonalityModule&#45;&gt;HomeModule -->
<g id="edge17" class="edge">
<title>PersonalityModule&#45;&gt;HomeModule</title>
<path fill="none" stroke="black" d="M1403.42,-237.05C1403.42,-290.31 1403.42,-441.8 1403.42,-441.8 1403.42,-441.8 901.21,-441.8 901.21,-441.8"/>
<polygon fill="black" stroke="black" points="901.21,-438.3 891.21,-441.8 901.21,-445.3 901.21,-438.3"/>
</g>
<!-- PersonalityService  -->
<g id="node24" class="node">
<title>PersonalityService </title>
<polygon fill="#fb8072" stroke="black" points="1827.47,-160.8 1702.53,-160.8 1702.53,-124.8 1827.47,-124.8 1827.47,-160.8"/>
<text text-anchor="middle" x="1765" y="-138.6" font-family="Times,serif" font-size="14.00">PersonalityService </text>
</g>
<!-- PersonalityModule&#45;&gt;PersonalityService  -->
<g id="edge25" class="edge">
<title>PersonalityModule&#45;&gt;PersonalityService </title>
<path fill="none" stroke="black" stroke-dasharray="5,2" d="M1444.37,-215.8C1552.36,-215.8 1765,-215.8 1765,-215.8 1765,-215.8 1765,-170.84 1765,-170.84"/>
<polygon fill="black" stroke="black" points="1768.5,-170.84 1765,-160.84 1761.5,-170.84 1768.5,-170.84"/>
</g>
<!-- SourceModule -->
<g id="node8" class="node">
<title>SourceModule</title>
<polygon fill="#8dd3c7" stroke="black" points="1417.42,-84.8 1414.42,-88.8 1393.42,-88.8 1390.42,-84.8 1318.58,-84.8 1318.58,-48.8 1417.42,-48.8 1417.42,-84.8"/>
<text text-anchor="middle" x="1368" y="-62.6" font-family="Times,serif" font-size="14.00">SourceModule</text>
</g>
<!-- SourceModule&#45;&gt;ClaimReviewModule -->
<g id="edge11" class="edge">
<title>SourceModule&#45;&gt;ClaimReviewModule</title>
<path fill="none" stroke="black" d="M1392.61,-84.81C1392.61,-84.81 1392.61,-114.65 1392.61,-114.65"/>
<polygon fill="black" stroke="black" points="1389.11,-114.65 1392.61,-124.65 1396.11,-114.65 1389.11,-114.65"/>
</g>
<!-- SourceModule&#45;&gt;ClaimModule -->
<g id="edge7" class="edge">
<title>SourceModule&#45;&gt;ClaimModule</title>
<path fill="none" stroke="black" d="M1318.69,-66.8C1310.51,-66.8 1304.63,-66.8 1304.63,-66.8 1304.63,-66.8 1304.63,-288.8 1304.63,-288.8 1304.63,-288.8 1279.11,-288.8 1279.11,-288.8"/>
<polygon fill="black" stroke="black" points="1279.11,-285.3 1269.11,-288.8 1279.11,-292.3 1279.11,-285.3"/>
</g>
<!-- SourceService  -->
<g id="node26" class="node">
<title>SourceService </title>
<polygon fill="#fb8072" stroke="black" points="1015.35,-160.8 914.65,-160.8 914.65,-124.8 1015.35,-124.8 1015.35,-160.8"/>
<text text-anchor="middle" x="965" y="-138.6" font-family="Times,serif" font-size="14.00">SourceService </text>
</g>
<!-- SourceModule&#45;&gt;SourceService  -->
<g id="edge28" class="edge">
<title>SourceModule&#45;&gt;SourceService </title>
<path fill="none" stroke="black" stroke-dasharray="5,2" d="M1368,-84.99C1368,-93.08 1368,-100.8 1368,-100.8 1368,-100.8 965,-100.8 965,-100.8 965,-100.8 965,-114.74 965,-114.74"/>
<polygon fill="black" stroke="black" points="961.5,-114.74 965,-124.74 968.5,-114.74 961.5,-114.74"/>
</g>
<!-- ViewModule -->
<g id="node9" class="node">
<title>ViewModule</title>
<polygon fill="#8dd3c7" stroke="black" points="1296.87,-160.8 1293.87,-164.8 1272.87,-164.8 1269.87,-160.8 1207.13,-160.8 1207.13,-124.8 1296.87,-124.8 1296.87,-160.8"/>
<text text-anchor="middle" x="1252" y="-138.6" font-family="Times,serif" font-size="14.00">ViewModule</text>
</g>
<!-- ViewModule&#45;&gt;UsersModule -->
<g id="edge35" class="edge">
<title>ViewModule&#45;&gt;UsersModule</title>
<path fill="none" stroke="black" d="M1219.43,-161.04C1219.43,-168.23 1219.43,-174.8 1219.43,-174.8 1219.43,-174.8 397.24,-174.8 397.24,-174.8 397.24,-174.8 397.24,-190.65 397.24,-190.65"/>
<polygon fill="black" stroke="black" points="393.74,-190.65 397.24,-200.65 400.74,-190.65 393.74,-190.65"/>
</g>
<!-- ViewModule&#45;&gt;PersonalityModule -->
<g id="edge23" class="edge">
<title>ViewModule&#45;&gt;PersonalityModule</title>
<path fill="none" stroke="black" d="M1287.91,-160.83C1287.91,-181.57 1287.91,-212.8 1287.91,-212.8 1287.91,-212.8 1311.7,-212.8 1311.7,-212.8"/>
<polygon fill="black" stroke="black" points="1311.7,-216.3 1321.7,-212.8 1311.7,-209.3 1311.7,-216.3"/>
</g>
<!-- ViewModule&#45;&gt;ClaimModule -->
<g id="edge8" class="edge">
<title>ViewModule&#45;&gt;ClaimModule</title>
<path fill="none" stroke="black" d="M1244.16,-160.83C1244.16,-160.83 1244.16,-266.79 1244.16,-266.79"/>
<polygon fill="black" stroke="black" points="1240.66,-266.79 1244.16,-276.79 1247.66,-266.79 1240.66,-266.79"/>
</g>
<!-- ViewModule&#45;&gt;HomeModule -->
<g id="edge19" class="edge">
<title>ViewModule&#45;&gt;HomeModule</title>
<path fill="none" stroke="black" d="M1278.88,-161.19C1278.88,-224.53 1278.88,-429.8 1278.88,-429.8 1278.88,-429.8 900.95,-429.8 900.95,-429.8"/>
<polygon fill="black" stroke="black" points="900.95,-426.3 890.95,-429.8 900.95,-433.3 900.95,-426.3"/>
</g>
<!-- ViewService  -->
<g id="node32" class="node">
<title>ViewService </title>
<polygon fill="#fb8072" stroke="black" points="946.8,-236.8 855.2,-236.8 855.2,-200.8 946.8,-200.8 946.8,-236.8"/>
<text text-anchor="middle" x="901" y="-214.6" font-family="Times,serif" font-size="14.00">ViewService </text>
</g>
<!-- ViewModule&#45;&gt;ViewService  -->
<g id="edge38" class="edge">
<title>ViewModule&#45;&gt;ViewService </title>
<path fill="none" stroke="black" stroke-dasharray="5,2" d="M1207.12,-142.8C1143.66,-142.8 1035.38,-142.8 1035.38,-142.8 1035.38,-142.8 1035.38,-218.8 1035.38,-218.8 1035.38,-218.8 956.87,-218.8 956.87,-218.8"/>
<polygon fill="black" stroke="black" points="956.87,-215.3 946.87,-218.8 956.87,-222.3 956.87,-215.3"/>
</g>
<!-- ClaimService  -->
<g id="node11" class="node">
<title>ClaimService </title>
<polygon fill="#fb8072" stroke="black" points="1269.7,-388.8 1174.3,-388.8 1174.3,-352.8 1269.7,-352.8 1269.7,-388.8"/>
<text text-anchor="middle" x="1222" y="-366.6" font-family="Times,serif" font-size="14.00">ClaimService </text>
</g>
<!-- ClaimModule&#45;&gt;ClaimService  -->
<g id="edge9" class="edge">
<title>ClaimModule&#45;&gt;ClaimService </title>
<path fill="none" stroke="black" stroke-dasharray="5,2" d="M1222,-312.81C1222,-312.81 1222,-342.65 1222,-342.65"/>
<polygon fill="black" stroke="black" points="1218.5,-342.65 1222,-352.65 1225.5,-342.65 1218.5,-342.65"/>
</g>
<!-- ClaimModule&#45;&gt;StatsModule -->
<g id="edge30" class="edge">
<title>ClaimModule&#45;&gt;StatsModule</title>
<path fill="none" stroke="black" d="M1174.97,-294.8C1146.16,-294.8 1114.78,-294.8 1114.78,-294.8 1114.78,-294.8 1114.78,-376.8 1114.78,-376.8 1114.78,-376.8 897.5,-376.8 897.5,-376.8"/>
<polygon fill="black" stroke="black" points="897.5,-373.3 887.5,-376.8 897.5,-380.3 897.5,-373.3"/>
</g>
<!-- ClaimService -->
<g id="node12" class="node">
<title>ClaimService</title>
<ellipse fill="#fdb462" stroke="black" cx="1119" cy="-218.8" rx="63.7" ry="18"/>
<text text-anchor="middle" x="1119" y="-214.6" font-family="Times,serif" font-size="14.00">ClaimService</text>
</g>
<!-- ClaimService&#45;&gt;ClaimModule -->
<g id="edge10" class="edge">
<title>ClaimService&#45;&gt;ClaimModule</title>
<path fill="none" stroke="black" d="M1178.86,-225.02C1178.86,-225.02 1178.86,-266.56 1178.86,-266.56"/>
<polygon fill="black" stroke="black" points="1175.36,-266.56 1178.86,-276.56 1182.36,-266.56 1175.36,-266.56"/>
</g>
<!-- ClaimReviewService -->
<g id="node14" class="node">
<title>ClaimReviewService</title>
<ellipse fill="#fdb462" stroke="black" cx="1746" cy="-66.8" rx="93.19" ry="18"/>
<text text-anchor="middle" x="1746" y="-62.6" font-family="Times,serif" font-size="14.00">ClaimReviewService</text>
</g>
<!-- ClaimReviewService&#45;&gt;ClaimReviewModule -->
<g id="edge13" class="edge">
<title>ClaimReviewService&#45;&gt;ClaimReviewModule</title>
<path fill="none" stroke="black" d="M1666.17,-76.12C1666.17,-88.49 1666.17,-108.8 1666.17,-108.8 1666.17,-108.8 1428.56,-108.8 1428.56,-108.8 1428.56,-108.8 1428.56,-114.61 1428.56,-114.61"/>
<polygon fill="black" stroke="black" points="1425.06,-114.61 1428.56,-124.61 1432.06,-114.61 1425.06,-114.61"/>
</g>
<!-- UtilService -->
<g id="node15" class="node">
<title>UtilService</title>
<ellipse fill="#fdb462" stroke="black" cx="1912" cy="-66.8" rx="55.03" ry="18"/>
<text text-anchor="middle" x="1912" y="-62.6" font-family="Times,serif" font-size="14.00">UtilService</text>
</g>
<!-- UtilService&#45;&gt;ClaimReviewModule -->
<g id="edge14" class="edge">
<title>UtilService&#45;&gt;ClaimReviewModule</title>
<path fill="none" stroke="black" d="M1909.21,-84.85C1909.21,-99.17 1909.21,-116.8 1909.21,-116.8 1909.21,-116.8 1439.92,-116.8 1439.92,-116.8 1439.92,-116.8 1439.92,-117.59 1439.92,-117.59"/>
<polygon fill="black" stroke="black" points="1436.42,-114.74 1439.92,-124.74 1443.42,-114.74 1436.42,-114.74"/>
</g>
<!-- UtilService&#45;&gt;PersonalityModule -->
<g id="edge27" class="edge">
<title>UtilService&#45;&gt;PersonalityModule</title>
<path fill="none" stroke="black" d="M1856.84,-66.8C1849.71,-66.8 1844.83,-66.8 1844.83,-66.8 1844.83,-66.8 1844.83,-222.8 1844.83,-222.8 1844.83,-222.8 1454.33,-222.8 1454.33,-222.8"/>
<polygon fill="black" stroke="black" points="1454.33,-219.3 1444.33,-222.8 1454.33,-226.3 1454.33,-219.3"/>
</g>
<!-- EmailService  -->
<g id="node16" class="node">
<title>EmailService </title>
<polygon fill="#fb8072" stroke="black" points="2443.42,-236.8 2348.58,-236.8 2348.58,-200.8 2443.42,-200.8 2443.42,-236.8"/>
<text text-anchor="middle" x="2396" y="-214.6" font-family="Times,serif" font-size="14.00">EmailService </text>
</g>
<!-- EmailModule -->
<g id="node17" class="node">
<title>EmailModule</title>
<polygon fill="#8dd3c7" stroke="black" points="2442.49,-160.8 2439.49,-164.8 2418.49,-164.8 2415.49,-160.8 2349.51,-160.8 2349.51,-124.8 2442.49,-124.8 2442.49,-160.8"/>
<text text-anchor="middle" x="2396" y="-138.6" font-family="Times,serif" font-size="14.00">EmailModule</text>
</g>
<!-- EmailModule&#45;&gt;EmailService  -->
<g id="edge15" class="edge">
<title>EmailModule&#45;&gt;EmailService </title>
<path fill="none" stroke="black" stroke-dasharray="5,2" d="M2396,-160.81C2396,-160.81 2396,-190.65 2396,-190.65"/>
<polygon fill="black" stroke="black" points="2392.5,-190.65 2396,-200.65 2399.5,-190.65 2392.5,-190.65"/>
</g>
<!-- EmailService -->
<g id="node18" class="node">
<title>EmailService</title>
<ellipse fill="#fdb462" stroke="black" cx="2396" cy="-66.8" rx="63.12" ry="18"/>
<text text-anchor="middle" x="2396" y="-62.6" font-family="Times,serif" font-size="14.00">EmailService</text>
</g>
<!-- EmailService&#45;&gt;EmailModule -->
<g id="edge16" class="edge">
<title>EmailService&#45;&gt;EmailModule</title>
<path fill="none" stroke="black" d="M2396,-84.81C2396,-84.81 2396,-114.65 2396,-114.65"/>
<polygon fill="black" stroke="black" points="2392.5,-114.65 2396,-124.65 2399.5,-114.65 2392.5,-114.65"/>
</g>
<!-- StatsModule&#45;&gt;HomeModule -->
<g id="edge18" class="edge">
<title>StatsModule&#45;&gt;HomeModule</title>
<path fill="none" stroke="black" d="M844,-388.91C844,-388.91 844,-407.79 844,-407.79"/>
<polygon fill="black" stroke="black" points="840.5,-407.79 844,-417.79 847.5,-407.79 840.5,-407.79"/>
</g>
<!-- StatsService  -->
<g id="node28" class="node">
<title>StatsService </title>
<polygon fill="#fb8072" stroke="black" points="1015.2,-312.8 926.8,-312.8 926.8,-276.8 1015.2,-276.8 1015.2,-312.8"/>
<text text-anchor="middle" x="971" y="-290.6" font-family="Times,serif" font-size="14.00">StatsService </text>
</g>
<!-- StatsModule&#45;&gt;StatsService  -->
<g id="edge33" class="edge">
<title>StatsModule&#45;&gt;StatsService </title>
<path fill="none" stroke="black" stroke-dasharray="5,2" d="M887.35,-364.8C924.14,-364.8 971,-364.8 971,-364.8 971,-364.8 971,-322.83 971,-322.83"/>
<polygon fill="black" stroke="black" points="974.5,-322.83 971,-312.83 967.5,-322.83 974.5,-322.83"/>
</g>
<!-- ParserService -->
<g id="node22" class="node">
<title>ParserService</title>
<ellipse fill="#fdb462" stroke="black" cx="533" cy="-142.8" rx="64.24" ry="18"/>
<text text-anchor="middle" x="533" y="-138.6" font-family="Times,serif" font-size="14.00">ParserService</text>
</g>
<!-- ParserService&#45;&gt;ParserModule -->
<g id="edge21" class="edge">
<title>ParserService&#45;&gt;ParserModule</title>
<path fill="none" stroke="black" d="M533,-124.77C533,-99.82 533,-57.8 533,-57.8 533,-57.8 1196.97,-57.8 1196.97,-57.8"/>
<polygon fill="black" stroke="black" points="1196.97,-61.3 1206.97,-57.8 1196.97,-54.3 1196.97,-61.3"/>
</g>
<!-- WikidataModule -->
<g id="node23" class="node">
<title>WikidataModule</title>
<polygon fill="#8dd3c7" stroke="black" points="1961.37,-160.8 1958.37,-164.8 1937.37,-164.8 1934.37,-160.8 1850.63,-160.8 1850.63,-124.8 1961.37,-124.8 1961.37,-160.8"/>
<text text-anchor="middle" x="1906" y="-138.6" font-family="Times,serif" font-size="14.00">WikidataModule</text>
</g>
<!-- WikidataModule&#45;&gt;PersonalityModule -->
<g id="edge24" class="edge">
<title>WikidataModule&#45;&gt;PersonalityModule</title>
<path fill="none" stroke="black" d="M1906,-160.83C1906,-186.31 1906,-229.8 1906,-229.8 1906,-229.8 1454.28,-229.8 1454.28,-229.8"/>
<polygon fill="black" stroke="black" points="1454.28,-226.3 1444.28,-229.8 1454.28,-233.3 1454.28,-226.3"/>
</g>
<!-- WikidataService  -->
<g id="node34" class="node">
<title>WikidataService </title>
<polygon fill="#fb8072" stroke="black" points="2293.29,-84.8 2180.71,-84.8 2180.71,-48.8 2293.29,-48.8 2293.29,-84.8"/>
<text text-anchor="middle" x="2237" y="-62.6" font-family="Times,serif" font-size="14.00">WikidataService </text>
</g>
<!-- WikidataModule&#45;&gt;WikidataService  -->
<g id="edge40" class="edge">
<title>WikidataModule&#45;&gt;WikidataService </title>
<path fill="none" stroke="black" stroke-dasharray="5,2" d="M1961.4,-148.8C2055.63,-148.8 2237,-148.8 2237,-148.8 2237,-148.8 2237,-95 2237,-95"/>
<polygon fill="black" stroke="black" points="2240.5,-95 2237,-85 2233.5,-95 2240.5,-95"/>
</g>
<!-- PersonalityService -->
<g id="node25" class="node">
<title>PersonalityService</title>
<ellipse fill="#fdb462" stroke="black" cx="1596" cy="-142.8" rx="83.38" ry="18"/>
<text text-anchor="middle" x="1596" y="-138.6" font-family="Times,serif" font-size="14.00">PersonalityService</text>
</g>
<!-- PersonalityService&#45;&gt;PersonalityModule -->
<g id="edge26" class="edge">
<title>PersonalityService&#45;&gt;PersonalityModule</title>
<path fill="none" stroke="black" d="M1596,-160.83C1596,-180.38 1596,-208.8 1596,-208.8 1596,-208.8 1454.32,-208.8 1454.32,-208.8"/>
<polygon fill="black" stroke="black" points="1454.32,-205.3 1444.32,-208.8 1454.32,-212.3 1454.32,-205.3"/>
</g>
<!-- SourceService -->
<g id="node27" class="node">
<title>SourceService</title>
<ellipse fill="#fdb462" stroke="black" cx="824" cy="-142.8" rx="66.61" ry="18"/>
<text text-anchor="middle" x="824" y="-138.6" font-family="Times,serif" font-size="14.00">SourceService</text>
</g>
<!-- SourceService&#45;&gt;SourceModule -->
<g id="edge29" class="edge">
<title>SourceService&#45;&gt;SourceModule</title>
<path fill="none" stroke="black" d="M824,-124.75C824,-110.43 824,-92.8 824,-92.8 824,-92.8 1343.39,-92.8 1343.39,-92.8 1343.39,-92.8 1343.39,-92.01 1343.39,-92.01"/>
<polygon fill="black" stroke="black" points="1346.89,-94.86 1343.39,-84.86 1339.89,-94.86 1346.89,-94.86"/>
</g>
<!-- StatsService -->
<g id="node29" class="node">
<title>StatsService</title>
<ellipse fill="#fdb462" stroke="black" cx="844" cy="-294.8" rx="58.54" ry="18"/>
<text text-anchor="middle" x="844" y="-290.6" font-family="Times,serif" font-size="14.00">StatsService</text>
</g>
<!-- StatsService&#45;&gt;StatsModule -->
<g id="edge34" class="edge">
<title>StatsService&#45;&gt;StatsModule</title>
<path fill="none" stroke="black" d="M822.31,-311.67C822.31,-311.67 822.31,-342.65 822.31,-342.65"/>
<polygon fill="black" stroke="black" points="818.81,-342.65 822.31,-352.65 825.81,-342.65 818.81,-342.65"/>
</g>
<!-- UsersService -->
<g id="node31" class="node">
<title>UsersService</title>
<ellipse fill="#fdb462" stroke="black" cx="249" cy="-142.8" rx="61.95" ry="18"/>
<text text-anchor="middle" x="249" y="-138.6" font-family="Times,serif" font-size="14.00">UsersService</text>
</g>
<!-- UsersService&#45;&gt;UsersModule -->
<g id="edge37" class="edge">
<title>UsersService&#45;&gt;UsersModule</title>
<path fill="none" stroke="black" d="M311,-142.8C318.56,-142.8 323.67,-142.8 323.67,-142.8 323.67,-142.8 323.67,-218.8 323.67,-218.8 323.67,-218.8 326.04,-218.8 326.04,-218.8"/>
<polygon fill="black" stroke="black" points="326.04,-222.3 336.04,-218.8 326.04,-215.3 326.04,-222.3"/>
</g>
<!-- ViewService -->
<g id="node33" class="node">
<title>ViewService</title>
<ellipse fill="#fdb462" stroke="black" cx="770" cy="-218.8" rx="60.81" ry="18"/>
<text text-anchor="middle" x="770" y="-214.6" font-family="Times,serif" font-size="14.00">ViewService</text>
</g>
<!-- ViewService&#45;&gt;ViewModule -->
<g id="edge39" class="edge">
<title>ViewService&#45;&gt;ViewModule</title>
<path fill="none" stroke="black" d="M794.05,-202.21C794.05,-194.84 794.05,-187.8 794.05,-187.8 794.05,-187.8 1231.79,-187.8 1231.79,-187.8 1231.79,-187.8 1231.79,-170.84 1231.79,-170.84"/>
<polygon fill="black" stroke="black" points="1235.29,-170.84 1231.79,-160.84 1228.29,-170.84 1235.29,-170.84"/>
</g>
<!-- WikidataService -->
<g id="node35" class="node">
<title>WikidataService</title>
<ellipse fill="#fdb462" stroke="black" cx="2082" cy="-66.8" rx="75.28" ry="18"/>
<text text-anchor="middle" x="2082" y="-62.6" font-family="Times,serif" font-size="14.00">WikidataService</text>
</g>
<!-- WikidataService&#45;&gt;WikidataModule -->
<g id="edge41" class="edge">
<title>WikidataService&#45;&gt;WikidataModule</title>
<path fill="none" stroke="black" d="M2082,-84.83C2082,-105.57 2082,-136.8 2082,-136.8 2082,-136.8 1971.69,-136.8 1971.69,-136.8"/>
<polygon fill="black" stroke="black" points="1971.69,-133.3 1961.69,-136.8 1971.69,-140.3 1971.69,-133.3"/>
</g>
</g>
</svg>
