<?xml version="1.0" encoding="UTF-8" standalone="no"?>
<!DOCTYPE svg PUBLIC "-//W3C//DTD SVG 1.1//EN"
 "http://www.w3.org/Graphics/SVG/1.1/DTD/svg11.dtd">
<!-- Generated by graphviz version 2.47.3 (20210619.1520)
 -->
<!-- Title: dependencies Pages: 1 -->
<svg width="613pt" height="247pt"
 viewBox="0.00 0.00 613.00 246.80" xmlns="http://www.w3.org/2000/svg" xmlns:xlink="http://www.w3.org/1999/xlink">
<g id="graph0" class="graph" transform="scale(1 1) rotate(0) translate(4 242.8)">
<title>dependencies</title>
<polygon fill="white" stroke="transparent" points="-4,4 -4,-242.8 609,-242.8 609,4 -4,4"/>
<text text-anchor="middle" x="302.5" y="-8.2" font-family="sans-serif" font-size="14.00">dependencies</text>
<g id="clust1" class="cluster">
<title>cluster_SitemapModule</title>
<polygon fill="none" stroke="black" stroke-dasharray="1,5" points="8,-32.8 8,-230.8 597,-230.8 597,-32.8 8,-32.8"/>
</g>
<g id="clust4" class="cluster">
<title>cluster_SitemapModule_exports</title>
<polygon fill="none" stroke="black" points="237,-170.8 237,-222.8 361,-222.8 361,-170.8 237,-170.8"/>
</g>
<g id="clust6" class="cluster">
<title>cluster_SitemapModule_providers</title>
<polygon fill="none" stroke="black" points="429,-40.8 429,-92.8 589,-92.8 589,-40.8 429,-40.8"/>
</g>
<g id="clust3" class="cluster">
<title>cluster_SitemapModule_imports</title>
<polygon fill="none" stroke="black" points="16,-40.8 16,-92.8 421,-92.8 421,-40.8 16,-40.8"/>
</g>
<!-- ClaimModule -->
<g id="node1" class="node">
<title>ClaimModule</title>
<polygon fill="#8dd3c7" stroke="black" points="412.77,-84.8 409.77,-88.8 388.77,-88.8 385.77,-84.8 319.23,-84.8 319.23,-48.8 412.77,-48.8 412.77,-84.8"/>
<text text-anchor="middle" x="366" y="-62.6" font-family="Times,serif" font-size="14.00">ClaimModule</text>
</g>
<!-- SitemapModule -->
<g id="node4" class="node">
<title>SitemapModule</title>
<polygon fill="#8dd3c7" stroke="black" points="351.93,-149.8 348.93,-153.8 327.93,-153.8 324.93,-149.8 246.07,-149.8 246.07,-113.8 351.93,-113.8 351.93,-149.8"/>
<text text-anchor="middle" x="299" y="-127.6" font-family="Times,serif" font-size="14.00">SitemapModule</text>
</g>
<!-- ClaimModule&#45;&gt;SitemapModule -->
<g id="edge1" class="edge">
<title>ClaimModule&#45;&gt;SitemapModule</title>
<path fill="none" stroke="black" d="M335.42,-84.91C335.42,-84.91 335.42,-103.79 335.42,-103.79"/>
<polygon fill="black" stroke="black" points="331.92,-103.79 335.42,-113.79 338.92,-103.79 331.92,-103.79"/>
</g>
<!-- ClaimReviewModule -->
<g id="node2" class="node">
<title>ClaimReviewModule</title>
<polygon fill="#8dd3c7" stroke="black" points="301.04,-84.8 298.04,-88.8 277.04,-88.8 274.04,-84.8 164.96,-84.8 164.96,-48.8 301.04,-48.8 301.04,-84.8"/>
<text text-anchor="middle" x="233" y="-62.6" font-family="Times,serif" font-size="14.00">ClaimReviewModule</text>
</g>
<!-- ClaimReviewModule&#45;&gt;SitemapModule -->
<g id="edge2" class="edge">
<title>ClaimReviewModule&#45;&gt;SitemapModule</title>
<path fill="none" stroke="black" d="M273.78,-84.91C273.78,-84.91 273.78,-103.79 273.78,-103.79"/>
<polygon fill="black" stroke="black" points="270.28,-103.79 273.78,-113.79 277.28,-103.79 270.28,-103.79"/>
</g>
<!-- PersonalityModule -->
<g id="node3" class="node">
<title>PersonalityModule</title>
<polygon fill="#8dd3c7" stroke="black" points="146.04,-84.8 143.04,-88.8 122.04,-88.8 119.04,-84.8 23.96,-84.8 23.96,-48.8 146.04,-48.8 146.04,-84.8"/>
<text text-anchor="middle" x="85" y="-62.6" font-family="Times,serif" font-size="14.00">PersonalityModule</text>
</g>
<!-- PersonalityModule&#45;&gt;SitemapModule -->
<g id="edge3" class="edge">
<title>PersonalityModule&#45;&gt;SitemapModule</title>
<path fill="none" stroke="black" d="M85,-84.91C85,-104.14 85,-131.8 85,-131.8 85,-131.8 236.1,-131.8 236.1,-131.8"/>
<polygon fill="black" stroke="black" points="236.1,-135.3 246.1,-131.8 236.1,-128.3 236.1,-135.3"/>
</g>
<!-- SitemapService  -->
<g id="node5" class="node">
<title>SitemapService </title>
<polygon fill="#fb8072" stroke="black" points="352.86,-214.8 245.14,-214.8 245.14,-178.8 352.86,-178.8 352.86,-214.8"/>
<text text-anchor="middle" x="299" y="-192.6" font-family="Times,serif" font-size="14.00">SitemapService </text>
</g>
<!-- SitemapModule&#45;&gt;SitemapService  -->
<g id="edge4" class="edge">
<title>SitemapModule&#45;&gt;SitemapService </title>
<path fill="none" stroke="black" stroke-dasharray="5,2" d="M299,-149.91C299,-149.91 299,-168.79 299,-168.79"/>
<polygon fill="black" stroke="black" points="295.5,-168.79 299,-178.79 302.5,-168.79 295.5,-168.79"/>
</g>
<!-- SitemapService -->
<g id="node6" class="node">
<title>SitemapService</title>
<ellipse fill="#fdb462" stroke="black" cx="509" cy="-66.8" rx="71.78" ry="18"/>
<text text-anchor="middle" x="509" y="-62.6" font-family="Times,serif" font-size="14.00">SitemapService</text>
</g>
<!-- SitemapService&#45;&gt;SitemapModule -->
<g id="edge5" class="edge">
<title>SitemapService&#45;&gt;SitemapModule</title>
<path fill="none" stroke="black" d="M509,-84.91C509,-104.14 509,-131.8 509,-131.8 509,-131.8 361.72,-131.8 361.72,-131.8"/>
<polygon fill="black" stroke="black" points="361.72,-128.3 351.72,-131.8 361.72,-135.3 361.72,-128.3"/>
</g>
</g>
</svg>
