<?xml version="1.0" encoding="UTF-8" standalone="no"?>
<!DOCTYPE svg PUBLIC "-//W3C//DTD SVG 1.1//EN"
 "http://www.w3.org/Graphics/SVG/1.1/DTD/svg11.dtd">
<!-- Generated by graphviz version 2.47.3 (20210619.1520)
 -->
<!-- Title: dependencies Pages: 1 -->
<svg width="194pt" height="247pt"
 viewBox="0.00 0.00 194.00 246.80" xmlns="http://www.w3.org/2000/svg" xmlns:xlink="http://www.w3.org/1999/xlink">
<g id="graph0" class="graph" transform="scale(1 1) rotate(0) translate(4 242.8)">
<title>dependencies</title>
<polygon fill="white" stroke="transparent" points="-4,4 -4,-242.8 190,-242.8 190,4 -4,4"/>
<text text-anchor="middle" x="93" y="-8.2" font-family="sans-serif" font-size="14.00">dependencies</text>
<g id="clust1" class="cluster">
<title>cluster_HistoryModule</title>
<polygon fill="none" stroke="black" stroke-dasharray="1,5" points="8,-32.8 8,-230.8 178,-230.8 178,-32.8 8,-32.8"/>
</g>
<g id="clust6" class="cluster">
<title>cluster_HistoryModule_providers</title>
<polygon fill="none" stroke="black" points="16,-40.8 16,-92.8 170,-92.8 170,-40.8 16,-40.8"/>
</g>
<g id="clust4" class="cluster">
<title>cluster_HistoryModule_exports</title>
<polygon fill="none" stroke="black" points="33,-170.8 33,-222.8 153,-222.8 153,-170.8 33,-170.8"/>
</g>
<!-- HistoryService  -->
<g id="node1" class="node">
<title>HistoryService </title>
<polygon fill="#fb8072" stroke="black" points="144.97,-214.8 41.03,-214.8 41.03,-178.8 144.97,-178.8 144.97,-214.8"/>
<text text-anchor="middle" x="93" y="-192.6" font-family="Times,serif" font-size="14.00">HistoryService </text>
</g>
<!-- HistoryModule -->
<g id="node2" class="node">
<title>HistoryModule</title>
<polygon fill="#8dd3c7" stroke="black" points="143.54,-149.8 140.54,-153.8 119.54,-153.8 116.54,-149.8 42.46,-149.8 42.46,-113.8 143.54,-113.8 143.54,-149.8"/>
<text text-anchor="middle" x="93" y="-127.6" font-family="Times,serif" font-size="14.00">HistoryModule</text>
</g>
<!-- HistoryModule&#45;&gt;HistoryService  -->
<g id="edge1" class="edge">
<title>HistoryModule&#45;&gt;HistoryService </title>
<path fill="none" stroke="black" stroke-dasharray="5,2" d="M93,-149.91C93,-149.91 93,-168.79 93,-168.79"/>
<polygon fill="black" stroke="black" points="89.5,-168.79 93,-178.79 96.5,-168.79 89.5,-168.79"/>
</g>
<!-- HistoryService -->
<g id="node3" class="node">
<title>HistoryService</title>
<ellipse fill="#fdb462" stroke="black" cx="93" cy="-66.8" rx="68.92" ry="18"/>
<text text-anchor="middle" x="93" y="-62.6" font-family="Times,serif" font-size="14.00">HistoryService</text>
</g>
<!-- HistoryService&#45;&gt;HistoryModule -->
<g id="edge2" class="edge">
<title>HistoryService&#45;&gt;HistoryModule</title>
<path fill="none" stroke="black" d="M93,-84.91C93,-84.91 93,-103.79 93,-103.79"/>
<polygon fill="black" stroke="black" points="89.5,-103.79 93,-113.79 96.5,-103.79 89.5,-103.79"/>
</g>
</g>
</svg>
