<svg xmlns="http://www.w3.org/2000/svg" viewBox="0 0 466.82 164.07"><defs><style>.cls-1{fill:#36a9e1;}.cls-2{fill:#fcea10;}.cls-3{fill:#fff;}</style></defs><g id="Camada_2" data-name="Camada 2"><g id="Layer_1" data-name="Layer 1"><rect class="cls-1" x="96.05" y="55.07" width="18.66" height="18.66"></rect><polygon class="cls-2" points="162.76 1.88 162.76 51.07 120.71 0 114.71 0 96.05 0 96.05 35.33 114.71 35.33 114.71 22.66 156.76 73.73 162.76 73.73 181.42 73.73 181.42 1.88 162.76 1.88"></polygon><rect class="cls-1" y="55.07" width="18.66" height="18.66"></rect><path class="cls-2" d="M18.07,35.09,55.91,73.82H81.77L62,53.59h6.17A17.83,17.83,0,0,0,86,35.78V17.89A17.83,17.83,0,0,0,68.18.08H0v18.5H67.49V35.09Z"></path><path class="cls-3" d="M246.48,28.21l-3.64-11.76a.16.16,0,0,0-.16-.12H240a.14.14,0,0,0-.16.16V28.13a.34.34,0,0,1-.39.39h-3a.34.34,0,0,1-.39-.39V1.43a.34.34,0,0,1,.39-.39h7a6.27,6.27,0,0,1,5.9,3.74,9.3,9.3,0,0,1,.85,4.06,8.52,8.52,0,0,1-1,4.29,6,6,0,0,1-2.8,2.61.22.22,0,0,0-.08.24l4,12.11,0,.15c0,.19-.11.28-.35.28H247A.46.46,0,0,1,246.48,28.21ZM239.82,4.45v8.78a.14.14,0,0,0,.16.16h2.9a3.11,3.11,0,0,0,2.58-1.24,5.06,5.06,0,0,0,1-3.27,5.2,5.2,0,0,0-1-3.35,3.14,3.14,0,0,0-2.58-1.24H240A.14.14,0,0,0,239.82,4.45Z"></path><path class="cls-3" d="M267.34,4.33h-8.82a.14.14,0,0,0-.16.16V13c0,.1.05.15.16.15h5.41a.35.35,0,0,1,.39.4V16a.35.35,0,0,1-.39.4h-5.41c-.11,0-.16.05-.16.15v8.55a.14.14,0,0,0,.16.16h8.82a.34.34,0,0,1,.39.39v2.47a.34.34,0,0,1-.39.39H255a.34.34,0,0,1-.39-.39V1.47a.34.34,0,0,1,.39-.39h12.35a.34.34,0,0,1,.39.39V3.94A.34.34,0,0,1,267.34,4.33Z"></path><path class="cls-3" d="M272.32,28.13V1.47a.34.34,0,0,1,.39-.39h6.43a6.85,6.85,0,0,1,5.17,2,7.47,7.47,0,0,1,1.92,5.41V21.11a7.48,7.48,0,0,1-1.92,5.41,6.85,6.85,0,0,1-5.17,2h-6.43A.34.34,0,0,1,272.32,28.13Zm3.92-2.86,2.86,0a2.89,2.89,0,0,0,2.39-1.16,5.21,5.21,0,0,0,.94-3.16V8.68a5.08,5.08,0,0,0-.9-3.17,2.91,2.91,0,0,0-2.43-1.18h-2.86a.14.14,0,0,0-.16.16V25.11A.14.14,0,0,0,276.24,25.27Z"></path><path class="cls-3" d="M304,4.33h-8.82a.14.14,0,0,0-.16.16V13c0,.1.05.15.16.15h5.41a.35.35,0,0,1,.39.4V16a.35.35,0,0,1-.39.4h-5.41c-.11,0-.16.05-.16.15v8.55a.14.14,0,0,0,.16.16H304a.34.34,0,0,1,.39.39v2.47a.34.34,0,0,1-.39.39H291.64a.34.34,0,0,1-.39-.39V1.47a.34.34,0,0,1,.39-.39H304a.34.34,0,0,1,.39.39V3.94A.34.34,0,0,1,304,4.33Z"></path><path class="cls-3" d="M236.1,70.89V44.24a.35.35,0,0,1,.39-.4h3a.44.44,0,0,1,.43.32l7,17.29c0,.07.07.11.12.09s.08,0,.08-.13V44.24a.35.35,0,0,1,.39-.4h2.94a.35.35,0,0,1,.39.4V70.89a.35.35,0,0,1-.39.4h-3.06A.44.44,0,0,1,247,71l-7-17.29c0-.07-.07-.11-.12-.11s-.08,0-.08.11l0,17.21a.35.35,0,0,1-.39.4h-2.94A.35.35,0,0,1,236.1,70.89Z"></path><path class="cls-3" d="M267.49,70.93l-.86-4.51a.11.11,0,0,0-.06-.11.2.2,0,0,0-.13,0h-6.32a.2.2,0,0,0-.13,0,.11.11,0,0,0-.06.11l-.9,4.51a.38.38,0,0,1-.43.36h-3a.38.38,0,0,1-.3-.12.41.41,0,0,1-.06-.32l5.85-26.65a.4.4,0,0,1,.43-.36H265a.38.38,0,0,1,.43.36l5.92,26.65v.08a.32.32,0,0,1-.36.36h-3.05A.42.42,0,0,1,267.49,70.93Zm-6.78-7.64h5.18c.08,0,.11,0,.11-.16l-2.58-13.4c0-.08-.06-.12-.08-.12s0,0-.08.12l-2.66,13.4C260.6,63.24,260.63,63.29,260.71,63.29Z"></path><path class="cls-3" d="M276.61,69.66a7,7,0,0,1-1.94-5.16V50.59a6.64,6.64,0,0,1,7.05-7.06,7,7,0,0,1,5.16,1.92,6.91,6.91,0,0,1,1.94,5.14v.62a.35.35,0,0,1-.39.4l-3,.15a.34.34,0,0,1-.39-.39v-1a3.66,3.66,0,0,0-.92-2.59,3.18,3.18,0,0,0-2.42-1,3.1,3.1,0,0,0-2.39,1,3.7,3.7,0,0,0-.9,2.59V64.78a3.7,3.7,0,0,0,.9,2.59,3.1,3.1,0,0,0,2.39,1,3.18,3.18,0,0,0,2.42-1,3.66,3.66,0,0,0,.92-2.59v-1a.34.34,0,0,1,.39-.39l3,.15a.35.35,0,0,1,.39.39v.59a6.67,6.67,0,0,1-7.1,7.1A6.92,6.92,0,0,1,276.61,69.66Z"></path><path class="cls-3" d="M293.72,70.89V44.24a.35.35,0,0,1,.39-.4h3a.35.35,0,0,1,.39.4V70.89a.35.35,0,0,1-.39.4h-3A.35.35,0,0,1,293.72,70.89Z"></path><path class="cls-3" d="M304.54,69.64a7.05,7.05,0,0,1-2-5.22V50.74a7.11,7.11,0,0,1,2-5.23,6.94,6.94,0,0,1,5.17-2,6.81,6.81,0,0,1,7.22,7.21V64.42a7,7,0,0,1-2,5.22,7.12,7.12,0,0,1-5.24,2A7,7,0,0,1,304.54,69.64Zm7.68-2.33a3.91,3.91,0,0,0,.94-2.73v-14a3.91,3.91,0,0,0-.94-2.73,3.22,3.22,0,0,0-2.51-1,3.12,3.12,0,0,0-2.45,1,4,4,0,0,0-.92,2.73v14a4,4,0,0,0,.92,2.73,3.12,3.12,0,0,0,2.45,1A3.22,3.22,0,0,0,312.22,67.31Z"></path><path class="cls-3" d="M322.06,70.89V44.24a.35.35,0,0,1,.39-.4h3a.44.44,0,0,1,.43.32l7,17.29c0,.07.06.11.12.09s.08,0,.08-.13V44.24a.35.35,0,0,1,.39-.4h2.94a.35.35,0,0,1,.39.4V70.89a.35.35,0,0,1-.39.4h-3.06a.44.44,0,0,1-.43-.32l-7-17.29c0-.07-.06-.11-.12-.11s-.07,0-.07.11l0,17.21a.35.35,0,0,1-.39.4h-2.94A.35.35,0,0,1,322.06,70.89Z"></path><path class="cls-3" d="M353.46,70.93l-.86-4.51a.11.11,0,0,0-.06-.11.23.23,0,0,0-.14,0h-6.31a.23.23,0,0,0-.14,0,.11.11,0,0,0-.06.11l-.9,4.51a.37.37,0,0,1-.43.36h-3a.34.34,0,0,1-.35-.44l5.84-26.65a.41.41,0,0,1,.43-.36H351a.37.37,0,0,1,.43.36l5.92,26.65v.08a.32.32,0,0,1-.35.36h-3.06A.41.41,0,0,1,353.46,70.93Zm-6.78-7.64h5.17c.08,0,.12,0,.12-.16l-2.59-13.4c0-.08-.05-.12-.08-.12s-.05,0-.07.12l-2.67,13.4C346.56,63.24,346.6,63.29,346.68,63.29Z"></path><path class="cls-3" d="M361.69,70.89V44.24a.35.35,0,0,1,.39-.4h3a.35.35,0,0,1,.39.4V67.87a.14.14,0,0,0,.16.16h8.78a.34.34,0,0,1,.39.39v2.47a.35.35,0,0,1-.39.4H362.08A.35.35,0,0,1,361.69,70.89Z"></path><path class="cls-3" d="M387.05,70.89V44.24a.35.35,0,0,1,.39-.4h6.43a6.86,6.86,0,0,1,5.18,2A7.5,7.5,0,0,1,401,51.25V63.88a7.5,7.5,0,0,1-1.92,5.41,6.86,6.86,0,0,1-5.18,2h-6.43A.35.35,0,0,1,387.05,70.89ZM391,68l2.87,0a2.89,2.89,0,0,0,2.39-1.15,5.23,5.23,0,0,0,.94-3.16V51.45a5.13,5.13,0,0,0-.9-3.18,2.92,2.92,0,0,0-2.43-1.17H391a.13.13,0,0,0-.15.15V67.87C390.82,68,390.87,68,391,68Z"></path><path class="cls-3" d="M418.73,47.1h-8.82c-.11,0-.16,0-.16.15v8.51a.14.14,0,0,0,.16.16h5.41a.34.34,0,0,1,.39.39v2.47a.34.34,0,0,1-.39.39h-5.41a.14.14,0,0,0-.16.16v8.54a.14.14,0,0,0,.16.16h8.82a.34.34,0,0,1,.39.39v2.47a.35.35,0,0,1-.39.4H406.38a.35.35,0,0,1-.39-.4V44.24a.35.35,0,0,1,.39-.4h12.35a.35.35,0,0,1,.39.4v2.47A.34.34,0,0,1,418.73,47.1Z"></path><path class="cls-3" d="M237.45,112.42a6.93,6.93,0,0,1-1.94-5.15V93.35a6.87,6.87,0,0,1,1.94-5.13,7,7,0,0,1,5.11-1.92,7,7,0,0,1,5.16,1.92,6.91,6.91,0,0,1,1.94,5.13V94a.34.34,0,0,1-.39.39l-3,.16a.34.34,0,0,1-.39-.39v-1a3.61,3.61,0,0,0-.93-2.59,3.15,3.15,0,0,0-2.41-1,3.11,3.11,0,0,0-2.39,1,3.68,3.68,0,0,0-.9,2.59v14.42a3.68,3.68,0,0,0,.9,2.59,3.11,3.11,0,0,0,2.39,1,3.15,3.15,0,0,0,2.41-1,3.61,3.61,0,0,0,.93-2.59v-1a.34.34,0,0,1,.39-.39l3,.16a.34.34,0,0,1,.39.39v.59a6.67,6.67,0,0,1-7.1,7.09A6.88,6.88,0,0,1,237.45,112.42Z"></path><path class="cls-3" d="M256,112.4a7,7,0,0,1-2-5.21V93.51a7.09,7.09,0,0,1,2-5.23,7,7,0,0,1,5.17-2,6.81,6.81,0,0,1,7.22,7.21v13.68a7,7,0,0,1-2,5.21,7.12,7.12,0,0,1-5.24,2A7,7,0,0,1,256,112.4Zm7.68-2.33a3.88,3.88,0,0,0,.94-2.72v-14a3.88,3.88,0,0,0-.94-2.72,3.21,3.21,0,0,0-2.51-1,3.13,3.13,0,0,0-2.45,1,4,4,0,0,0-.92,2.72v14a4,4,0,0,0,.92,2.72,3.13,3.13,0,0,0,2.45,1A3.21,3.21,0,0,0,263.65,110.07Z"></path><path class="cls-3" d="M273.41,113.66V87a.35.35,0,0,1,.4-.39h3a.44.44,0,0,1,.44.31l4,9.53a.13.13,0,0,0,.24,0l4.08-9.53a.43.43,0,0,1,.43-.31h3a.34.34,0,0,1,.39.39v26.66a.34.34,0,0,1-.39.39h-3a.34.34,0,0,1-.39-.39V95.9q0-.12-.06-.12a.23.23,0,0,0-.14.08l-3.65,7.76c-.07.19-.18.28-.31.28a.4.4,0,0,1-.39-.28l-3.65-7.8c-.05,0-.09-.08-.13-.08s-.06,0-.06.12v17.8a.35.35,0,0,1-.4.39h-3A.35.35,0,0,1,273.41,113.66Z"></path><path class="cls-3" d="M307,112.09a7.3,7.3,0,0,1-5.31,2h-6.55a.34.34,0,0,1-.39-.39V87a.34.34,0,0,1,.39-.39h6a8,8,0,0,1,5.59,1.86,7,7,0,0,1,2,5.43q0,4.23-3,5.84c-.14.08-.15.15,0,.2a6.59,6.59,0,0,1,2.45,2.62,8.64,8.64,0,0,1,.88,4A7.38,7.38,0,0,1,307,112.09ZM298.46,90v8.31a.14.14,0,0,0,.16.16h2.51A3.66,3.66,0,0,0,304,97.37a4.44,4.44,0,0,0,1-3.12A4.72,4.72,0,0,0,304,91a3.61,3.61,0,0,0-2.86-1.16h-2.51A.14.14,0,0,0,298.46,90Zm5.71,19.52a5.17,5.17,0,0,0,1-3.45,5.61,5.61,0,0,0-1-3.55,3.44,3.44,0,0,0-2.83-1.27h-2.74a.14.14,0,0,0-.16.16v9.17a.14.14,0,0,0,.16.16h2.7A3.56,3.56,0,0,0,304.17,109.54Z"></path><path class="cls-3" d="M323.55,113.7l-.86-4.51a.14.14,0,0,0-.06-.12.33.33,0,0,0-.14,0h-6.31a.33.33,0,0,0-.14,0,.13.13,0,0,0-.05.12l-.91,4.51c0,.23-.17.35-.43.35h-3a.34.34,0,0,1-.29-.12.33.33,0,0,1-.06-.31L317.16,87a.41.41,0,0,1,.43-.35H321c.26,0,.41.12.43.35l5.92,26.66v.08a.31.31,0,0,1-.35.35H324A.41.41,0,0,1,323.55,113.7Zm-6.78-7.65h5.17q.12,0,.12-.15l-2.59-13.41c0-.08-.05-.12-.07-.12s-.06,0-.08.12l-2.67,13.41Q316.65,106.05,316.77,106.05Z"></path><path class="cls-3" d="M343,87v2.47a.34.34,0,0,1-.39.39h-5.13a.14.14,0,0,0-.16.16v23.64a.34.34,0,0,1-.39.39h-3a.34.34,0,0,1-.39-.39V90a.15.15,0,0,0-.16-.16h-4.86a.34.34,0,0,1-.39-.39V87a.34.34,0,0,1,.39-.39h14.07A.34.34,0,0,1,343,87Z"></path><path class="cls-3" d="M360.16,89.86h-8.82a.14.14,0,0,0-.15.16v8.51a.13.13,0,0,0,.15.15h5.41a.36.36,0,0,1,.4.4v2.47a.35.35,0,0,1-.4.39h-5.41a.13.13,0,0,0-.15.15v8.55a.14.14,0,0,0,.15.16h8.82a.35.35,0,0,1,.4.39v2.47a.35.35,0,0,1-.4.39H347.82a.35.35,0,0,1-.4-.39V87a.35.35,0,0,1,.4-.39h12.34a.35.35,0,0,1,.4.39v2.47A.35.35,0,0,1,360.16,89.86Z"></path><path class="cls-3" d="M384.78,113.7l-.86-4.51a.14.14,0,0,0-.06-.12.29.29,0,0,0-.14,0h-6.31a.33.33,0,0,0-.14,0,.14.14,0,0,0-.06.12l-.9,4.51c0,.23-.17.35-.43.35h-3a.34.34,0,0,1-.29-.12.33.33,0,0,1-.06-.31L378.39,87a.41.41,0,0,1,.43-.35h3.45c.26,0,.41.12.43.35l5.92,26.66v.08a.31.31,0,0,1-.35.35h-3.06A.41.41,0,0,1,384.78,113.7ZM382,83.75c0,.16-.12.23-.36.23h-2.27a.52.52,0,0,1-.47-.23L376,79.48l-.08-.2c0-.18.12-.28.35-.28H379a.59.59,0,0,1,.47.28l2.43,4.23A.72.72,0,0,1,382,83.75Zm-4,22.3h5.17q.12,0,.12-.15L380.7,92.49c0-.08-.05-.12-.07-.12s-.06,0-.08.12l-2.67,13.41Q377.88,106.05,378,106.05Z"></path><path class="cls-3" d="M236.06,156.42V129.77a.35.35,0,0,1,.39-.4h6.43a6.84,6.84,0,0,1,5.17,2,7.5,7.5,0,0,1,1.92,5.41v12.63a7.5,7.5,0,0,1-1.92,5.41,6.84,6.84,0,0,1-5.17,2h-6.43A.35.35,0,0,1,236.06,156.42Zm3.92-2.86,2.86,0a2.88,2.88,0,0,0,2.39-1.15,5.23,5.23,0,0,0,.94-3.16V137a5.13,5.13,0,0,0-.9-3.18,2.91,2.91,0,0,0-2.43-1.17H240a.14.14,0,0,0-.16.16v20.62C239.82,153.51,239.87,153.56,240,153.56Z"></path><path class="cls-3" d="M267.73,132.63h-8.82a.14.14,0,0,0-.16.16v8.5a.14.14,0,0,0,.16.16h5.41a.34.34,0,0,1,.39.39v2.47a.34.34,0,0,1-.39.39h-5.41a.14.14,0,0,0-.16.16v8.55c0,.1.05.15.16.15h8.82a.34.34,0,0,1,.39.39v2.47a.35.35,0,0,1-.39.4H255.38a.35.35,0,0,1-.39-.4V129.77a.35.35,0,0,1,.39-.4h12.35a.35.35,0,0,1,.39.4v2.47A.34.34,0,0,1,267.73,132.63Z"></path><path class="cls-3" d="M273.94,155.19a7,7,0,0,1-1.9-5.08v-1.06a.34.34,0,0,1,.39-.39h2.9a.35.35,0,0,1,.4.39v.87a4.35,4.35,0,0,0,.9,2.88,2.87,2.87,0,0,0,2.31,1.08,3,3,0,0,0,2.33-1,4.43,4.43,0,0,0,.43-4.73,5.7,5.7,0,0,0-1.29-1.55c-.54-.45-1.4-1.13-2.61-2s-2.37-1.85-3.13-2.55a9.49,9.49,0,0,1-1.92-2.55A7.31,7.31,0,0,1,272,136a6.75,6.75,0,0,1,1.89-5,7.35,7.35,0,0,1,9.93.14,7.3,7.3,0,0,1,1.9,5.25v1a.35.35,0,0,1-.39.4h-2.9a.35.35,0,0,1-.39-.4v-1a4.31,4.31,0,0,0-.9-2.85,2.92,2.92,0,0,0-2.36-1.07,2.8,2.8,0,0,0-2.21,1,3.93,3.93,0,0,0-.84,2.68,4.08,4.08,0,0,0,.86,2.65,18.66,18.66,0,0,0,3.29,2.88,44.55,44.55,0,0,1,3.59,2.86,8.15,8.15,0,0,1,1.84,2.41,7,7,0,0,1,.65,3.12,7.22,7.22,0,0,1-1.94,5.27,7.41,7.41,0,0,1-10,0Z"></path><path class="cls-3" d="M290.5,156.42V129.77a.35.35,0,0,1,.4-.4h3a.35.35,0,0,1,.39.4v26.65a.35.35,0,0,1-.39.4h-3A.35.35,0,0,1,290.5,156.42Z"></path><path class="cls-3" d="M300,156.42V129.77a.35.35,0,0,1,.39-.4h3a.44.44,0,0,1,.43.32l7,17.29c0,.07.07.11.12.09s.08-.06.08-.13V129.77a.35.35,0,0,1,.39-.4h2.94a.35.35,0,0,1,.39.4v26.65a.35.35,0,0,1-.39.4h-3.06a.44.44,0,0,1-.43-.32l-7-17.29c0-.07-.06-.11-.12-.11s-.07,0-.07.11l0,17.21a.36.36,0,0,1-.4.4h-2.94A.35.35,0,0,1,300,156.42Z"></path><path class="cls-3" d="M333,132.63h-8.78a.14.14,0,0,0-.16.16v8.5a.14.14,0,0,0,.16.16h5.36a.35.35,0,0,1,.4.39v2.47a.35.35,0,0,1-.4.39h-5.36a.14.14,0,0,0-.16.16v11.56a.35.35,0,0,1-.39.4h-3a.35.35,0,0,1-.39-.4V129.77a.35.35,0,0,1,.39-.4H333a.35.35,0,0,1,.39.4v2.47A.34.34,0,0,1,333,132.63Z"></path><path class="cls-3" d="M338.6,155.17a7,7,0,0,1-2-5.21V136.27a7.11,7.11,0,0,1,2-5.23,7,7,0,0,1,5.18-2,6.8,6.8,0,0,1,7.21,7.21V150a7,7,0,0,1-2,5.21,7.11,7.11,0,0,1-5.23,2A7,7,0,0,1,338.6,155.17Zm7.68-2.33a3.91,3.91,0,0,0,1-2.73v-14a3.91,3.91,0,0,0-1-2.73,3.2,3.2,0,0,0-2.5-1,3.11,3.11,0,0,0-2.45,1,3.94,3.94,0,0,0-.92,2.73v14a3.94,3.94,0,0,0,.92,2.73,3.12,3.12,0,0,0,2.45,1A3.21,3.21,0,0,0,346.28,152.84Z"></path><path class="cls-3" d="M366.51,156.5l-3.64-11.76a.16.16,0,0,0-.16-.12H360a.14.14,0,0,0-.16.16v11.64a.35.35,0,0,1-.39.4h-3a.35.35,0,0,1-.39-.4V129.73a.34.34,0,0,1,.39-.39h7a6.33,6.33,0,0,1,3.53,1,6.42,6.42,0,0,1,2.37,2.76,9.42,9.42,0,0,1,.85,4.06,8.57,8.57,0,0,1-1,4.29,6.1,6.1,0,0,1-2.81,2.61.21.21,0,0,0-.07.23l4,12.11,0,.16c0,.18-.11.28-.35.28H367A.47.47,0,0,1,366.51,156.5Zm-6.66-23.75v8.78c0,.1,0,.15.16.15h2.9a3.13,3.13,0,0,0,2.58-1.23,5.06,5.06,0,0,0,1-3.27,5.23,5.23,0,0,0-1-3.36,3.13,3.13,0,0,0-2.58-1.23H360A.14.14,0,0,0,359.85,132.75Z"></path><path class="cls-3" d="M374.59,156.42V129.77a.35.35,0,0,1,.39-.4h3a.44.44,0,0,1,.43.32l4,9.52a.11.11,0,0,0,.12.08.11.11,0,0,0,.11-.08l4.08-9.52a.44.44,0,0,1,.43-.32h3a.35.35,0,0,1,.39.4v26.65a.35.35,0,0,1-.39.4h-3a.35.35,0,0,1-.39-.4V138.66c0-.07,0-.11-.06-.11s-.08,0-.14.08l-3.64,7.76c-.08.18-.19.27-.32.27a.4.4,0,0,1-.39-.27l-3.64-7.8c-.06-.05-.1-.08-.14-.08s-.06,0-.06.12v17.79a.35.35,0,0,1-.39.4h-3A.35.35,0,0,1,374.59,156.42Z"></path><path class="cls-3" d="M407.55,156.46l-.86-4.51a.11.11,0,0,0-.06-.11.2.2,0,0,0-.13,0h-6.32a.2.2,0,0,0-.13,0,.11.11,0,0,0-.06.11l-.9,4.51a.38.38,0,0,1-.43.36h-3a.36.36,0,0,1-.3-.12.42.42,0,0,1-.06-.32l5.84-26.65a.42.42,0,0,1,.44-.36H405a.38.38,0,0,1,.44.36l5.92,26.65v.08a.32.32,0,0,1-.36.36H408A.42.42,0,0,1,407.55,156.46Zm-6.78-7.64H406c.08,0,.11,0,.11-.16l-2.58-13.41c0-.07-.06-.11-.08-.11s0,0-.08.11l-2.67,13.41C400.65,148.77,400.69,148.82,400.77,148.82Z"></path><path class="cls-3" d="M429,137.14l-3,.15a.35.35,0,0,1-.4-.39v-1a3.58,3.58,0,0,0-.92-2.58,3.11,3.11,0,0,0-2.41-1,3.07,3.07,0,0,0-2.39,1,3.65,3.65,0,0,0-.9,2.58v14.43a3.7,3.7,0,0,0,.9,2.59,3.11,3.11,0,0,0,2.39,1,3.15,3.15,0,0,0,2.41-1,3.62,3.62,0,0,0,.92-2.59v-1a.35.35,0,0,1,.4-.39l3,.15a.35.35,0,0,1,.39.4V150a7.25,7.25,0,0,1-1.51,4.69,6.44,6.44,0,0,1-4.1,2.29c-.13.05-.15.12-.08.2a4.92,4.92,0,0,1,1.57,3.6,3,3,0,0,1-.94,2.53,3.65,3.65,0,0,1-2.31.73,7.61,7.61,0,0,1-1.41-.16.42.42,0,0,1-.32-.47l.2-1.25c0-.24.18-.33.47-.28a1.41,1.41,0,0,0,.39,0,1.35,1.35,0,0,0,.92-.31,1.4,1.4,0,0,0,.45-.94,1.73,1.73,0,0,0,0-.44,3,3,0,0,0-.47-1.58,6.81,6.81,0,0,0-1.25-1.55s-.09-.08-.2-.08a6.4,6.4,0,0,1-4.09-2.31,7.29,7.29,0,0,1-1.51-4.71V136.12a6.64,6.64,0,0,1,7.05-7.06,7,7,0,0,1,5.16,1.92,6.93,6.93,0,0,1,1.94,5.14v.62A.35.35,0,0,1,429,137.14Z"></path><path class="cls-3" d="M445.3,156.46l-.86-4.51a.11.11,0,0,0-.06-.11.21.21,0,0,0-.14,0h-6.31a.2.2,0,0,0-.13,0,.11.11,0,0,0-.06.11l-.9,4.51a.38.38,0,0,1-.44.36h-3a.36.36,0,0,1-.3-.12.42.42,0,0,1-.06-.32l5.84-26.65a.42.42,0,0,1,.44-.36h3.44a.38.38,0,0,1,.44.36l5.91,26.65v.08c0,.24-.11.36-.35.36h-3.06A.41.41,0,0,1,445.3,156.46ZM442.62,126a11.66,11.66,0,0,1-1.16-.59,5.16,5.16,0,0,1-.53-.35,2.8,2.8,0,0,0-.59-.33,1.43,1.43,0,0,0-.56-.1,1.83,1.83,0,0,0-.91.22,2.07,2.07,0,0,0-.74.8.37.37,0,0,1-.24.2.38.38,0,0,1-.31-.08l-1.1-.79a.41.41,0,0,1-.15-.51,4.31,4.31,0,0,1,1.37-1.76,3.05,3.05,0,0,1,1.8-.59,2.93,2.93,0,0,1,1.18.24,6.78,6.78,0,0,1,1.17.66,4,4,0,0,1,.47.32,2.84,2.84,0,0,0,.63.35,1.76,1.76,0,0,0,.63.12,1.69,1.69,0,0,0,.86-.22,2.17,2.17,0,0,0,.75-.8q.15-.36.54-.12l1.06.71a.38.38,0,0,1,.16.35.93.93,0,0,1-.12.39,3.78,3.78,0,0,1-1.49,1.59,3.64,3.64,0,0,1-1.76.49A2.39,2.39,0,0,1,442.62,126Zm-4.1,22.78h5.18c.08,0,.11,0,.11-.16l-2.58-13.41c0-.07-.06-.11-.08-.11s0,0-.08.11l-2.67,13.41C438.4,148.77,438.44,148.82,438.52,148.82Z"></path><path class="cls-3" d="M454.44,155.17a7,7,0,0,1-2-5.21V136.27a7.11,7.11,0,0,1,2-5.23,6.94,6.94,0,0,1,5.17-2,6.79,6.79,0,0,1,7.21,7.21V150a6.76,6.76,0,0,1-7.21,7.17A7,7,0,0,1,454.44,155.17Zm7.68-2.33a3.91,3.91,0,0,0,.94-2.73v-14a3.91,3.91,0,0,0-.94-2.73,3.22,3.22,0,0,0-2.51-1,3.12,3.12,0,0,0-2.45,1,4,4,0,0,0-.92,2.73v14a4,4,0,0,0,.92,2.73,3.13,3.13,0,0,0,2.45,1A3.23,3.23,0,0,0,462.12,152.84Z"></path><path class="cls-2" d="M162.25,83.18h-47v18.6h47a1.25,1.25,0,0,1,1.24,1.24v34.17a1.24,1.24,0,0,1-1.24,1.24h-47.1V120.5H96.55V157h65.7a19.84,19.84,0,0,0,19.84-19.84V103A19.84,19.84,0,0,0,162.25,83.18Z"></path><rect class="cls-1" x="96.55" y="101.84" width="18.66" height="18.66"></rect><rect class="cls-1" x="66.25" y="138.43" width="18.6" height="18.6"></rect><path class="cls-2" d="M66.25,138.43H19.84a1.24,1.24,0,0,1-1.24-1.24V103a1.25,1.25,0,0,1,1.24-1.24H66.25V83.18H19.84A19.84,19.84,0,0,0,0,103v34.17A19.84,19.84,0,0,0,19.84,157H66.25Z"></path></g></g></svg>