<?xml version="1.0" encoding="UTF-8"?>
<svg width="26.144mm" height="9.6278mm" version="1.1" viewBox="0 0 26.144 9.6278" xmlns="http://www.w3.org/2000/svg">
 <g fill="#006eab" stroke-width=".35278">
  <path d="m8.355 6.9625h3.4594c-0.56692-0.64629-1.6824-0.95991-3.4594-1.0834z"/>
  <path d="m4.1781 6.9625h3.4594c-0.56692-0.64629-1.6824-0.95991-3.4594-1.0834z"/>
  <path d="m-0.002382 6.9625h3.4594c-0.56727-0.64629-1.6824-0.95991-3.4594-1.0834z"/>
  <path d="m12.542 6.9625h13.582v-6.9667h-13.582zm4.2154-3.8587c0.07585 0.037747 0.13264 0.056797 0.17039 0.075848 0.30233 0.14252 0.52917 0.31362 0.67099 0.49424 0.14182 0.18062 0.20814 0.38982 0.18909 0.61772-0.01905 0.35172-0.15134 0.62724-0.4064 0.83644-0.24554 0.2092-0.56692 0.31362-0.97332 0.31362-0.28364 0-0.52-0.047625-0.71861-0.14252-0.19862-0.10442-0.34008-0.2473-0.43462-0.42757l0.47272-0.50377c0.04692 0.14252 0.13229 0.24695 0.25506 0.32315 0.11324 0.085373 0.25506 0.12347 0.4064 0.12347 0.18909 0 0.33091-0.047625 0.44415-0.133 0.1136-0.095251 0.17956-0.2092 0.18909-0.36125 0.0095-0.1711-0.16087-0.35172-0.51047-0.52282-0.11324-0.056798-0.20779-0.10442-0.27411-0.14252-0.31186-0.1711-0.52917-0.33267-0.64276-0.49424-0.11324-0.1711-0.17004-0.36125-0.15099-0.58914 0.0092-0.3041 0.15099-0.56092 0.4064-0.75072 0.25506-0.19967 0.57644-0.30445 0.95462-0.30445 0.22684 0 0.4251 0.0381 0.57644 0.12383 0.16087 0.075848 0.30233 0.19932 0.41593 0.37042l-0.49142 0.44697c-0.0568-0.10478-0.12277-0.19015-0.20814-0.23777-0.09455-0.05715-0.20779-0.085373-0.33056-0.085373-0.16087 0-0.29316 0.037748-0.3877 0.12347-0.10407 0.075848-0.16087 0.18062-0.16087 0.3041-0.0187 0.19967 0.17039 0.37994 0.5387 0.54187m4.093-0.81739h-0.90735l-0.17956 3.0604h-0.79411l0.17956-3.0604h-0.90735l0.03775-0.67487h2.6088zm2.7129 0h-1.3991l-0.03775 0.76977h1.3892l-0.03775 0.67487h-1.3988l-0.08502 1.6157h-0.79411l0.20814-3.7352h2.1929z"/>
 </g>
 <path d="m8.355 0.0053063v5.5983c2.533-0.30445 3.6485-1.9202 3.7712-4.4863v-0.95039c-0.0095-0.05715-0.0095-0.10442-0.0095-0.16157zm-4.1776 0v5.5983c2.8826-0.35172 3.9317-2.3954 3.7617-5.5983zm-4.1684 0v5.5983c2.8829-0.35172 3.9226-2.3954 3.7525-5.5983z" fill="#00a8e7" stroke-width=".35278"/>
 <path d="m24.65 9.3099v-0.21872h0.17956l-0.12277-0.41804c-0.0095-0.00953-0.0095-0.028575-0.0095-0.066675-0.0092-0.028222-0.0092-0.066323-0.0187-0.10442-0.0095 0.0381-0.01905 0.0762-0.02858 0.11395v0.00953-0.33267h0.20779l0.42579 1.2926h-0.32174l-0.08502-0.27552zm0.76588 0.27552 0.0755-1.2926h0.27411l-0.06632 1.0552h0.44415l-0.018705 0.23742zm-0.76588-1.2926v0.33267c-0.0095 0.028575-0.0187 0.047625-0.0187 0.05715l-0.16087 0.40852h0.17956v0.21872h-0.27411l-0.10371 0.27552h-0.29316l0.56692-1.2926zm-1.1247 1.0266v-0.48472c0.03775 0 0.0755-0.01905 0.09455-0.028575 0.03775-0.028575 0.05645-0.066675 0.06597-0.12347 0-0.066676-0.0187-0.1143-0.05645-0.14252-0.01905-0.01905-0.0568-0.028575-0.10407-0.028575v-0.21872c0.14182 0 0.25506 0.028575 0.33091 0.085726 0.0755 0.066323 0.10372 0.16157 0.10372 0.27552-0.0095 0.094898-0.03775 0.1711-0.09455 0.22825-0.05645 0.066323-0.13229 0.10442-0.21731 0.11395l0.32139 0.58914h-0.31186zm0-1.0266v0.21872c-0.03775-0.00953-0.06632-0.00953-0.10407-0.00953h-0.04727l-0.0187 0.3422h0.04692c0.04727 0 0.08537 0 0.12312-0.00953v0.48473l-0.17004-0.3422-0.0381 0.60819h-0.27411l0.07585-1.2926h0.38735zm-2.2779 1.2831v-0.23742c0.06597-0.01905 0.13229-0.047625 0.17004-0.085726 0.07585-0.066323 0.11324-0.1711 0.12277-0.31362 0.0095-0.14252-0.0187-0.24695-0.08502-0.31362-0.04727-0.047273-0.11324-0.085373-0.20779-0.094898v-0.23777c0.06597 0.00953 0.11324 0.01905 0.16052 0.028575 0.0755 0.01905 0.15134 0.047625 0.20814 0.094898 0.0755 0.05715 0.12277 0.13335 0.16052 0.21872 0.03775 0.095251 0.04727 0.19015 0.04727 0.3041-0.0095 0.1143-0.03775 0.21872-0.08502 0.3041-0.04727 0.095251-0.10372 0.16157-0.18909 0.21872-0.05644 0.047625-0.13229 0.076201-0.19826 0.095251-0.02858 0.00917-0.06632 0.00917-0.10407 0.018697m0.76553 0.00953 0.07549-1.2926h0.75636l-0.0095 0.22825h-0.48225l-0.0187 0.266h0.48225l-0.0095 0.23777h-0.48225l-0.0187 0.32315h0.4819l-0.019088 0.23742zm-0.76553-1.2926v0.23777h-0.25541l-0.04727 0.81739h0.16087c0.04727 0 0.09455 0 0.14182-0.00953v0.23743c-0.066325 0.0095251-0.1323 0.0095251-0.21732 0.0095251h-0.36866l0.0755-1.2926h0.3496zm-4.7922 1.0171v-0.21872h0.17956l-0.12277-0.41804c0-0.00953 0-0.028575-0.0095-0.066675 0-0.028222-0.0095-0.066323-0.0095-0.10442-0.0095 0.0381-0.0187 0.0762-0.02822 0.11395l-0.0095 0.00953v-0.33268h0.20779l0.42537 1.2926h-0.31186l-0.085373-0.27552zm0.76553 0.27552 0.0755-1.2926h0.27411l-0.05645 1.0552h0.43462l-0.009525 0.23742zm1.446 0 0.06632-1.2926h0.76553l-0.0187 0.22825h-0.48225l-0.0092 0.266h0.4819l-0.01905 0.23777h-0.48186l-0.028575 0.56057zm0.96415 0 0.07585-1.2926h0.75601l-0.0095 0.22825h-0.4819l-0.01905 0.266h0.48225l-0.0095 0.23777h-0.4823l-0.0187 0.32315h0.4819l-0.018695 0.23742zm-3.1757-1.2926v0.33267c0 0.028575-0.0095 0.047625-0.0095 0.05715l-0.17004 0.40852h0.17956v0.21872h-0.26461l-0.10407 0.27552h-0.29281l0.55739-1.2926zm-4.0171 1.2831v-0.20885c0.04727-0.00953 0.07549-0.01905 0.10407-0.047625 0.03775-0.028575 0.05644-0.066675 0.05644-0.133 0.0095-0.047625-0.0092-0.095251-0.03775-0.12383-0.02822-0.018697-0.0755-0.037747-0.12277-0.037747v-0.21872c0.04727-0.00953 0.08502-0.01905 0.10407-0.028575 0.03775-0.028575 0.05644-0.066323 0.06597-0.12347 0-0.05715-0.0187-0.094898-0.04727-0.11395-0.02822-0.01905-0.06597-0.028575-0.12277-0.0381v-0.2092c0.0568 0 0.10407 0.00953 0.13229 0.00953 0.0568 0.00953 0.1136 0.028575 0.15134 0.047625 0.04727 0.0381 0.08502 0.066323 0.10407 0.11395 0.02822 0.047625 0.03775 0.10442 0.03775 0.16157-0.0095 0.076201-0.02858 0.14252-0.07585 0.19015-0.0568 0.047625-0.12277 0.076201-0.20779 0.085373 0.09455 0.01905 0.17956 0.05715 0.22684 0.10478 0.04727 0.056798 0.0755 0.12347 0.06597 0.20885 0 0.066675-0.0187 0.12383-0.05644 0.1711-0.02858 0.05715-0.07585 0.095251-0.13229 0.12383-0.04763 0.028575-0.10407 0.047625-0.17039 0.056798-0.0187 0.00953-0.04727 0.00953-0.07549 0.00953m1.7956-1.2831-0.04727 0.79834c-0.0092 0.18062-0.06597 0.31362-0.16052 0.39935-0.09455 0.085373-0.23636 0.133-0.42545 0.133-0.17956 0-0.31186-0.047625-0.4064-0.133-0.08502-0.085726-0.12277-0.21872-0.11324-0.39935l0.04727-0.79834h0.27411l-0.04727 0.76059c0 0.10442 0.0187 0.1898 0.0568 0.23742 0.04727 0.05715 0.11324 0.085725 0.19826 0.085725 0.09455 0 0.17004-0.028575 0.21731-0.085725 0.0568-0.047625 0.08502-0.133 0.08502-0.23742l0.04763-0.76059zm0.20814 1.2926 0.0755-1.2926h0.28364l0.52952 0.75107c0.0092 0.018697 0.02822 0.047273 0.04692 0.085373 0.01905 0.047625 0.0381 0.085373 0.04727 0.14252v-0.25648l0.0381-0.72249h0.26458l-0.075503 1.2926h-0.26494l-0.5387-0.76977c-0.01905-0.01905-0.03775-0.047625-0.04727-0.085373-0.0187-0.0381-0.03775-0.085726-0.05645-0.14288 0 0.0381 0.0092 0.0762 0.0092 0.1143 0 0.037747 0 0.085373-0.0092 0.14252l-0.038097 0.74119zm-2.0038-1.2926v0.2092h-0.1136l-0.0187 0.3041h0.13229v0.21872h-0.14182l-0.01905 0.3422h0.16087v0.20884c-0.06632 0.00953-0.14182 0.00953-0.24589 0.00953h-0.20779l0.0755-1.2926h0.24589zm-1.6351 1.0266v-0.48472c0.04727 0 0.0755-0.01905 0.10407-0.028575 0.03775-0.028575 0.05645-0.066675 0.05645-0.12347 0.0095-0.066676-0.0095-0.1143-0.04727-0.14252-0.02822-0.01905-0.06597-0.028575-0.11324-0.028575v-0.21872c0.15099 0 0.26458 0.028575 0.33091 0.085726 0.0755 0.066323 0.11324 0.16157 0.10372 0.27552-0.0092 0.094898-0.03775 0.1711-0.09455 0.22825-0.05645 0.066323-0.12277 0.10442-0.20779 0.11395l0.32138 0.58914h-0.32138zm0.61419 0.266 0.07585-1.2926h0.27411l-0.07585 1.2926zm-0.61419-1.2926v0.21872c-0.02858-0.00953-0.06632-0.00953-0.10407-0.00953h-0.03775l-0.01905 0.3422h0.03775c0.04727 0 0.08537 0 0.12312-0.00953v0.48473l-0.17004-0.3422-0.0381 0.60819h-0.27411l0.07585-1.2926h0.39688zm-2.8924 1.3212v-0.23742c0.1136-0.009525 0.19862-0.047625 0.27411-0.12383 0.08502-0.085373 0.12312-0.19015 0.13229-0.31362 0.009525-0.12347-0.028222-0.2279-0.094545-0.3041-0.075495-0.085373-0.17004-0.133-0.28328-0.133-0.00953 0-0.01905 0-0.028575 0.00953v-0.2473h0.047273c0.08502 0 0.17004 0.01905 0.25541 0.047625 0.08502 0.0381 0.15099 0.085725 0.21731 0.15205 0.056798 0.05715 0.10407 0.133 0.13229 0.21872 0.028222 0.075848 0.047273 0.16157 0.037748 0.25647-0.00953 0.095251-0.028222 0.18062-0.06597 0.26635-0.0381 0.075848-0.094545 0.15205-0.16087 0.21837-0.06597 0.05715-0.15134 0.1143-0.23636 0.14252-0.075495 0.028575-0.15099 0.047625-0.22684 0.047625m1.9756-1.0834-0.056798 1.0548h-0.27411l0.056798-1.0548h-0.31186l0.00953-0.23777h0.90735l-0.0095 0.23777zm-1.9756-0.26635v0.2473c-0.10407 0-0.18909 0.0381-0.26458 0.12347-0.08502 0.0762-0.13229 0.18062-0.13229 0.3041-0.00953 0.12347 0.018697 0.22825 0.094545 0.31362 0.06597 0.0762 0.16051 0.12383 0.28364 0.12383h0.018697v0.23742c-0.00953 0-0.018697 0.00953-0.037748 0.00953-0.075495 0-0.15134-0.01905-0.22684-0.047625-0.075494-0.02858-0.14182-0.066328-0.19861-0.11395-0.075495-0.066675-0.13229-0.14252-0.17004-0.22825-0.037748-0.094898-0.056798-0.1898-0.047272-0.29457 0-0.094898 0.028575-0.18062 0.066323-0.25647 0.037748-0.085726 0.094545-0.16157 0.16051-0.21872 0.066323-0.066323 0.14182-0.11395 0.22684-0.15205 0.075495-0.028575 0.15134-0.047625 0.22684-0.047625m-3.894 1.0552v-0.48472c0.037747 0 0.075495-0.01905 0.094192-0.028575 0.0381-0.028575 0.056798-0.066675 0.066323-0.12347 0-0.066676-0.01905-0.1143-0.056798-0.14252-0.018697-0.01905-0.056445-0.028575-0.10372-0.028575v-0.21872c0.14146 0 0.25506 0.028575 0.33055 0.085726 0.075848 0.066323 0.10407 0.16157 0.10407 0.27552-0.00953 0.094898-0.037747 0.1711-0.094545 0.22825-0.056798 0.066323-0.13229 0.10442-0.21731 0.11395l0.32138 0.58914h-0.31186zm0.60466 0.266 0.075848-1.2926h0.75601l-0.00953 0.22825h-0.48189l-0.01905 0.266h0.48225l-0.00953 0.23777h-0.48189l-0.01905 0.32315h0.4819l-0.018697 0.23742zm0.91688 0 0.26458-1.2926h0.29316l0.20779 0.76059c0 0.018697 0 0.037748 0.00953 0.066323 0 0.0381 0.00953 0.066675 0.00953 0.10478 0.00953-0.0381 0.01905-0.0762 0.01905-0.10478 0.00917-0.028575 0.018697-0.05715 0.028222-0.066323l0.2928-0.76059h0.28364l0.12312 1.2926h-0.26494l-0.047272-0.77929c0-0.05715-0.00917-0.10442-0.00917-0.133 0-0.028575 0-0.05715 0.00917-0.085725v-0.047273c-0.00917 0.056798-0.018697 0.094898-0.028222 0.133-0.018697 0.0381-0.018697 0.066323-0.028222 0.085373l-0.32138 0.82692h-0.15134l-0.22684-0.82692c0-0.00953 0-0.028222-0.00953-0.066323-0.00917-0.028575-0.00917-0.085726-0.028222-0.15205v0.0381c0 0.066323-0.00953 0.133-0.028222 0.21837v0.00953l-0.13264 0.77929zm-1.5215-1.2926v0.21872c-0.0381-0.00953-0.066323-0.00953-0.10407-0.00953h-0.047273l-0.01905 0.3422h0.047273c0.047273 0 0.08502 0 0.12312-0.00953v0.48473l-0.17039-0.3422-0.037747 0.60819h-0.27411l0.075848-1.2926h0.38735zm-1.0305 0.79834v-0.2279c0.028575-0.00953 0.047273-0.01905 0.066323-0.0381 0.037748-0.028575 0.056798-0.076201 0.06597-0.14252 0-0.066676-0.018697-0.1143-0.047273-0.14252-0.018697-0.01905-0.047273-0.028575-0.08502-0.0381v-0.2092c0.13229 0.00953 0.23636 0.0381 0.30269 0.095251 0.075495 0.066323 0.11324 0.16157 0.10372 0.3041-0.00953 0.12347-0.056445 0.21837-0.14182 0.29457-0.06597 0.05715-0.16051 0.094898-0.26458 0.10442m-2.9207 0.33267 0.16087-0.18062c0.018697 0.047625 0.047272 0.085725 0.08502 0.1143 0.037748 0.028222 0.08502 0.037748 0.14182 0.037748 0.06597 0 0.11324-0.00953 0.15099-0.037748 0.047272-0.0381 0.066323-0.076201 0.066323-0.12383 0-0.066323-0.056798-0.12347-0.17957-0.1898-0.037748-0.01905-0.066323-0.028575-0.08502-0.047625-0.1136-0.057151-0.18909-0.11395-0.22684-0.1711-0.037747-0.05715-0.056798-0.12347-0.056798-0.19967 0.0095251-0.10442 0.056798-0.19015 0.14182-0.266 0.08502-0.066675 0.19826-0.095251 0.33091-0.095251 0.08502 0 0.15099 0.00953 0.19826 0.0381 0.056798 0.028575 0.10407 0.066675 0.14182 0.12347l-0.17004 0.16157c-0.009525-0.037748-0.037748-0.066323-0.066323-0.085373-0.028222-0.01905-0.075495-0.028575-0.11324-0.028575-0.056798 0-0.10407 0.01905-0.13229 0.0381-0.037748 0.028575-0.056798 0.066675-0.056798 0.11395-0.009525 0.066675 0.056798 0.12347 0.17957 0.18062 0.028222 0.00953 0.047272 0.01905 0.066323 0.028575 0.10372 0.047625 0.17957 0.10442 0.22684 0.1711 0.047272 0.066323 0.075495 0.133 0.06597 0.21872 0 0.11395-0.047272 0.21837-0.14182 0.28505-0.08502 0.075848-0.19826 0.11395-0.33091 0.11395-0.10372 0-0.18874-0.01905-0.25506-0.05715-0.06597-0.028222-0.11324-0.085373-0.14182-0.14252m2.9207-1.131v0.2092c-0.028222 0-0.047273-0.00953-0.075495-0.00953h-0.037748l-0.01905 0.3803h0.037747c0.028575 0 0.066323 0 0.094545-0.00953v0.22791h-0.15099l-0.028575 0.49424h-0.27411l0.075848-1.2926h0.31186zm-0.66146 0-0.047273 0.79834c-0.00953 0.18062-0.066323 0.31362-0.16087 0.39935-0.094545 0.085373-0.23601 0.133-0.4251 0.133s-0.32138-0.047625-0.41593-0.133c-0.085372-0.085726-0.12312-0.21872-0.11359-0.39935l0.047273-0.79834h0.27411l-0.047273 0.76059c0 0.10442 0.01905 0.1898 0.056797 0.23742 0.047273 0.05715 0.11324 0.085725 0.20779 0.085725 0.094545 0 0.17039-0.028575 0.21767-0.085725 0.047273-0.047625 0.08502-0.133 0.08502-0.23742l0.047273-0.76059z" fill="#006eab" stroke-width=".35278"/>
</svg>
