<?xml version="1.0" encoding="utf-8"?>
<!-- Generator: Adobe Illustrator 16.0.0, SVG Export Plug-In . SVG Version: 6.00 Build 0)  -->
<!DOCTYPE svg PUBLIC "-//W3C//DTD SVG 1.1//EN" "http://www.w3.org/Graphics/SVG/1.1/DTD/svg11.dtd">
<svg version="1.1" xmlns="http://www.w3.org/2000/svg" xmlns:xlink="http://www.w3.org/1999/xlink" x="0px" y="0px"
	 width="192.857px" height="90px" viewBox="0 0 192.857 90" enable-background="new 0 0 192.857 90" xml:space="preserve">
<g id="Layer_2" display="none">
	<rect display="inline" fill="#0C2340" width="193" height="90"/>
</g>
<g id="Layer_1">
	<g>
		<g>
			<path fill="#FFFFFF" d="M18.287,62.551V23.798h-7.573v34.475c0,4.38,4.562,7.93,10.746,7.93c0.405,0,0.808-0.016,1.206-0.049
				C20.189,65.891,18.287,64.379,18.287,62.551"/>
			<path fill="#FFFFFF" d="M27.972,12.016v49.905v4.282c4.649-1.247,7.59-5.157,7.59-9.794V12.016H27.972z"/>
			<path fill="#FFFFFF" d="M44.642,23.798c2.34,5.097,2.736,8.716,2.559,11.4c-0.127,1.943-0.34,4.602-0.935,7.557
				c-0.876,4.362-1.133,6.649-1.116,8.137c0.04,1.485,0.38,3.774,1.419,8.131c0.708,2.961,1.021,5.617,1.223,7.56
				c0.274,2.685,0.014,6.301-2.132,11.401h7.596c2.146-5.101,2.406-8.717,2.128-11.401c-0.197-1.942-0.512-4.598-1.217-7.56
				c-1.039-4.356-1.382-6.646-1.421-8.131c-0.016-1.488,0.238-3.775,1.115-8.137c0.597-2.955,0.81-5.614,0.934-7.557
				c0.179-2.685-0.218-6.303-2.557-11.4H44.642z"/>
			<path fill="#FFFFFF" d="M63.676,23.798c0,0,1.665,8.809,1.665,21.204c0,12.394-1.665,21.204-1.665,21.204h7.589
				c0,0,1.662-8.811,1.662-21.204c0-12.396-1.662-21.204-1.662-21.204H63.676z"/>
		</g>
		<g>
			<g>
				<path fill="#FFFFFF" d="M87.98,48.964c-0.536,0-1.428-0.036-2.393-0.036h-1.138v-0.864c0.339-0.081,0.745-0.146,1.138-0.172
					v-6.761c-0.393-0.025-0.798-0.089-1.138-0.169v-0.864h1.099c0.666,0,1.737-0.036,2.795-0.036c1.922,0,2.915,0.781,2.915,2.145
					c0,0.902-0.599,1.699-1.5,2.013v0.026c1.149,0.224,1.682,1.098,1.682,2.015C91.441,47.409,90.686,48.964,87.98,48.964z
					 M88.108,41.201c-0.39,0-0.77,0.01-1.11,0.025v2.615c0.223,0.01,0.471,0.01,0.759,0.01c1.318,0,2.012-0.536,2.012-1.425
					C89.77,41.708,89.379,41.201,88.108,41.201z M87.795,44.913c-0.143,0-0.602,0-0.797,0.012v2.81
					c0.223,0.04,0.574,0.065,1.032,0.065c1.294,0,1.91-0.622,1.91-1.515C89.94,45.275,89.037,44.913,87.795,44.913z"/>
			</g>
			<g>
				<path fill="#FFFFFF" d="M92.167,24.321v4.745c0,2.275-1.176,3.462-3.466,3.462c-2.745,0-3.268-1.528-3.268-3.043v-5.163
					c-0.317-0.028-0.641-0.092-0.93-0.171v-0.561h3.008v0.561c-0.327,0.092-0.703,0.144-1.072,0.171v5.07
					c0,1.269,0.435,2.312,2.327,2.312c1.632,0,2.419-0.679,2.419-2.56v-4.823c-0.367-0.028-0.759-0.079-1.087-0.171v-0.561h2.996
					v0.561C92.806,24.229,92.495,24.293,92.167,24.321z"/>
				<path fill="#FFFFFF" d="M102.714,24.332v8.083h-1.334l-3.701-5.856c-0.39-0.644-0.731-1.233-1.015-1.805
					c0.088,1.58,0.088,4.158,0.088,6.914c0.366,0.027,0.757,0.093,1.088,0.183v0.564h-3.205V31.85
					c0.337-0.078,0.747-0.156,1.137-0.183v-7.345c-0.391-0.028-0.8-0.092-1.137-0.171v-0.561h2.471l3.662,5.79
					c0.377,0.612,0.717,1.203,1.043,1.832c-0.078-1.556-0.09-4.121-0.09-6.879c-0.367-0.023-0.745-0.089-1.06-0.182v-0.561h2.981
					v0.561C103.355,24.229,103.026,24.293,102.714,24.332z"/>
				<path fill="#FFFFFF" d="M104.933,32.414V31.85c0.342-0.078,0.749-0.146,1.14-0.168v-7.36c-0.391-0.028-0.798-0.092-1.14-0.171
					v-0.561h3.268v0.561c-0.337,0.08-0.744,0.144-1.135,0.171v7.36c0.391,0.022,0.797,0.09,1.135,0.168v0.564H104.933z"/>
				<path fill="#FFFFFF" d="M113.2,29.459c0.181,0.519,0.431,1.214,0.616,1.881h0.009c0.172-0.641,0.394-1.283,0.629-1.962
					l1.842-5.058c-0.365-0.028-0.741-0.092-1.069-0.171v-0.561h2.939v0.561c-0.222,0.064-0.575,0.13-0.823,0.158l-3.006,8.106
					h-1.114l-2.914-8.106c-0.249-0.028-0.603-0.094-0.825-0.158v-0.561h3.034v0.561c-0.326,0.08-0.719,0.144-1.087,0.171
					L113.2,29.459z"/>
				<path fill="#FFFFFF" d="M119.305,32.414V31.85c0.339-0.078,0.745-0.146,1.137-0.168v-7.36c-0.393-0.028-0.798-0.092-1.137-0.171
					v-0.561h5.584v1.963h-0.668c-0.081-0.434-0.17-0.865-0.196-1.182h-2.588v3.113h2.049c0.055-0.338,0.12-0.667,0.21-0.953h0.59
					v2.666h-0.59c-0.091-0.285-0.17-0.642-0.21-0.954h-2.049v3.36h2.603c0.038-0.341,0.112-0.772,0.206-1.204h0.666v2.015H119.305z"
					/>
				<path fill="#FFFFFF" d="M131.703,32.414l-2.723-4.08h-0.208v3.347c0.353,0.022,0.731,0.078,1.047,0.168v0.564h-3.177V31.85
					c0.336-0.078,0.743-0.146,1.137-0.168v-7.36c-0.394-0.028-0.801-0.092-1.137-0.171v-0.561h1.004c0.352,0,1.154-0.04,2.21-0.04
					c1.662,0,2.918,0.574,2.918,2.222c0,1.504-1.179,2.367-2.708,2.471c0.223,0.259,0.442,0.575,0.641,0.862l1.766,2.551
					c0.314,0.039,0.692,0.105,1.083,0.182v0.577H131.703z M129.634,24.347c-0.325,0-0.603,0.012-0.862,0.038v3.177
					c0.143,0.013,0.417,0.027,0.811,0.027c1.358,0,2.144-0.695,2.144-1.675C131.727,24.765,130.979,24.347,129.634,24.347z"/>
				<path fill="#FFFFFF" d="M136.93,32.528c-0.674,0-1.319-0.089-1.828-0.233V30.32h0.678c0.078,0.445,0.144,0.853,0.183,1.204
					c0.314,0.079,0.694,0.131,1.02,0.131c1.151,0,2.105-0.458,2.105-1.664c0-2.088-4.104-1.29-4.104-4.077
					c0-1.396,1.123-2.444,3.043-2.444c0.591,0,1.089,0.065,1.635,0.182v1.921h-0.681c-0.078-0.443-0.142-0.847-0.169-1.188
					c-0.21-0.038-0.551-0.077-0.835-0.077c-1.294,0-1.966,0.601-1.966,1.503c0,2.024,4.106,1.293,4.106,4.053
					C140.12,31.419,138.905,32.528,136.93,32.528z"/>
				<path fill="#FFFFFF" d="M141.445,32.414V31.85c0.34-0.078,0.745-0.146,1.136-0.168v-7.36c-0.391-0.028-0.796-0.092-1.136-0.171
					v-0.561h3.272v0.561c-0.342,0.08-0.75,0.144-1.141,0.171v7.36c0.392,0.022,0.799,0.09,1.141,0.168v0.564H141.445z"/>
				<path fill="#FFFFFF" d="M149.357,32.45c-0.875,0-1.615-0.036-2.127-0.036h-1.141V31.85c0.34-0.078,0.747-0.146,1.141-0.168
					v-7.36c-0.394-0.028-0.8-0.092-1.141-0.171v-0.561h1.127c0.693,0,1.646-0.04,2.562-0.04c2.866,0,4.536,1.36,4.536,4.367
					C154.315,30.949,152.262,32.45,149.357,32.45z M149.661,24.359c-0.481,0-1.073,0.026-1.436,0.043v7.133
					c0.363,0.052,0.899,0.092,1.266,0.092c2.236,0,3.779-1.135,3.779-3.647C153.27,25.586,152.051,24.359,149.661,24.359z"/>
				<path fill="#FFFFFF" d="M160.877,32.414V31.85c0.328-0.078,0.718-0.146,1.087-0.168l-0.58-1.557h-3.894l-0.563,1.557
					c0.367,0.022,0.744,0.09,1.073,0.168v0.564h-2.939V31.85c0.22-0.067,0.574-0.129,0.835-0.156l3.019-8.104h1.136l3.023,8.104
					c0.247,0.027,0.598,0.089,0.832,0.156v0.564H160.877z M159.844,25.888c-0.169-0.444-0.288-0.835-0.403-1.291h-0.013
					c-0.105,0.43-0.236,0.847-0.395,1.279l-1.271,3.452h3.35L159.844,25.888z"/>
				<path fill="#FFFFFF" d="M168.407,32.45c-0.876,0-1.62-0.036-2.132-0.036h-1.14V31.85c0.342-0.078,0.753-0.146,1.14-0.168v-7.36
					c-0.387-0.028-0.798-0.092-1.14-0.171v-0.561h1.126c0.695,0,1.647-0.04,2.567-0.04c2.859,0,4.534,1.36,4.534,4.367
					C173.363,30.949,171.312,32.45,168.407,32.45z M168.708,24.359c-0.482,0-1.072,0.026-1.438,0.043v7.133
					c0.366,0.052,0.903,0.092,1.269,0.092c2.236,0,3.777-1.135,3.777-3.647C172.316,25.586,171.1,24.359,168.708,24.359z"/>
				<path fill="#FFFFFF" d="M174.559,32.414V31.85c0.34-0.078,0.747-0.146,1.137-0.168v-7.36c-0.39-0.028-0.797-0.092-1.137-0.171
					v-0.561h5.581v1.963h-0.667c-0.074-0.434-0.165-0.865-0.193-1.182h-2.591v3.113h2.052c0.056-0.338,0.124-0.667,0.21-0.953h0.59
					v2.666h-0.59c-0.087-0.285-0.167-0.642-0.21-0.954h-2.052v3.36h2.601c0.041-0.341,0.122-0.772,0.212-1.204h0.667v2.015H174.559z
					"/>
			</g>
			<g>
				<path fill="#FFFFFF" d="M92.536,48.928v-0.864c0.338-0.081,0.743-0.146,1.136-0.172v-6.761
					c-0.393-0.025-0.798-0.089-1.136-0.169v-0.864h5.844v2.12h-1.037c-0.062-0.366-0.13-0.718-0.155-0.992h-2.105v2.641h1.686
					c0.041-0.289,0.094-0.565,0.174-0.812h0.886v2.668h-0.886c-0.08-0.249-0.146-0.551-0.174-0.811h-1.686v2.861h2.121
					c0.022-0.314,0.089-0.667,0.168-1.047h1.034v2.201H92.536z"/>
				<path fill="#FFFFFF" d="M99.761,48.928v-0.864c0.342-0.081,0.746-0.146,1.138-0.172v-6.761
					c-0.392-0.025-0.796-0.089-1.138-0.169v-0.864h3.688v0.864c-0.34,0.081-0.747,0.145-1.143,0.169v6.761
					c0.396,0.026,0.802,0.091,1.143,0.172v0.864H99.761z"/>
				<path fill="#FFFFFF" d="M109.747,48.928l-2.394-3.82h-0.223v2.784c0.302,0.026,0.614,0.078,0.903,0.157v0.879h-3.45v-0.864
					c0.341-0.081,0.746-0.146,1.139-0.172v-6.761c-0.394-0.025-0.798-0.089-1.139-0.169v-0.864h1.019c0.341,0,1.4-0.049,2.472-0.049
					c1.827,0,3.083,0.64,3.083,2.391c0,1.336-0.968,2.21-2.325,2.42c0.181,0.22,0.364,0.483,0.523,0.731l1.528,2.29
					c0.273,0.037,0.601,0.088,0.943,0.154v0.893H109.747z M107.877,41.21c-0.274,0-0.537,0.016-0.747,0.029v2.793
					c0.131,0.014,0.382,0.028,0.694,0.028c1.148,0,1.843-0.588,1.843-1.463C109.667,41.631,109.066,41.21,107.877,41.21z"/>
				<path fill="#FFFFFF" d="M118.138,48.903v-0.864c0.302-0.069,0.666-0.131,0.995-0.16l-0.457-1.24h-3.491l-0.445,1.24
					c0.325,0.029,0.694,0.09,0.992,0.16v0.864h-3.179v-0.864c0.226-0.069,0.524-0.122,0.761-0.146l2.811-7.82h1.713l2.85,7.82
					c0.232,0.024,0.534,0.077,0.758,0.146v0.864H118.138z M117.327,42.847c-0.169-0.459-0.29-0.874-0.392-1.358h-0.024
					c-0.095,0.455-0.236,0.926-0.406,1.398l-0.953,2.628h2.756L117.327,42.847z"/>
				<path fill="#FFFFFF" d="M125.997,48.928v-0.864c0.338-0.081,0.744-0.146,1.136-0.172v-6.761
					c-0.393-0.025-0.798-0.089-1.136-0.169v-0.864h3.687v0.864c-0.343,0.081-0.747,0.145-1.141,0.169v6.761
					c0.394,0.026,0.797,0.091,1.141,0.172v0.864H125.997z"/>
				<path fill="#FFFFFF" d="M139.452,41.131v7.797h-1.842l-3.084-5.023c-0.407-0.653-0.708-1.282-0.984-1.859
					c0.093,1.44,0.08,3.572,0.08,5.846c0.34,0.026,0.691,0.078,1.003,0.157v0.879h-3.515v-0.864
					c0.342-0.081,0.746-0.146,1.138-0.172v-6.761c-0.393-0.025-0.796-0.089-1.138-0.169v-0.864h2.995l3.048,4.981
					c0.391,0.644,0.676,1.204,1.005,1.847c-0.094-1.416-0.094-3.532-0.094-5.795c-0.326-0.025-0.664-0.079-0.955-0.156v-0.877h3.218
					v0.877C140.055,41.042,139.751,41.106,139.452,41.131z"/>
				<path fill="#FFFFFF" d="M148.439,42.427h-1.02c-0.078-0.458-0.156-0.836-0.184-1.162h-1.596v6.627
					c0.396,0.026,0.799,0.091,1.139,0.172v0.864h-3.697v-0.864c0.339-0.081,0.743-0.146,1.136-0.172v-6.627h-1.608
					c-0.024,0.325-0.091,0.703-0.168,1.162h-1.022v-2.329h7.021V42.427z"/>
				<path fill="#FFFFFF" d="M149.927,48.928v-0.864c0.342-0.081,0.747-0.146,1.135-0.172v-6.761
					c-0.389-0.025-0.793-0.089-1.135-0.169v-0.864h5.846v2.12h-1.038c-0.062-0.366-0.129-0.718-0.154-0.992h-2.104v2.641h1.684
					c0.037-0.289,0.091-0.565,0.173-0.812h0.885v2.668h-0.885c-0.083-0.249-0.145-0.551-0.173-0.811h-1.684v2.861h2.117
					c0.026-0.314,0.089-0.667,0.168-1.047h1.033v2.201H149.927z"/>
				<path fill="#FFFFFF" d="M162.218,48.928l-2.393-3.82h-0.224v2.784c0.298,0.026,0.616,0.078,0.903,0.157v0.879h-3.453v-0.864
					c0.342-0.081,0.746-0.146,1.138-0.172v-6.761c-0.393-0.025-0.796-0.089-1.138-0.169v-0.864h1.021
					c0.337,0,1.399-0.049,2.473-0.049c1.828,0,3.083,0.64,3.083,2.391c0,1.336-0.969,2.21-2.327,2.42
					c0.182,0.22,0.366,0.483,0.526,0.731l1.527,2.29c0.274,0.037,0.601,0.088,0.944,0.154v0.893H162.218z M160.35,41.21
					c-0.277,0-0.538,0.016-0.748,0.029v2.793c0.132,0.014,0.379,0.028,0.694,0.028c1.149,0,1.845-0.588,1.845-1.463
					C162.14,41.631,161.537,41.21,160.35,41.21z"/>
				<path fill="#FFFFFF" d="M165.401,48.928v-0.864c0.337-0.081,0.742-0.146,1.135-0.172v-6.761
					c-0.393-0.025-0.798-0.089-1.135-0.169v-0.864h3.688v0.864c-0.343,0.081-0.75,0.145-1.14,0.169v6.761
					c0.389,0.026,0.797,0.091,1.14,0.172v0.864H165.401z"/>
				<path fill="#FFFFFF" d="M174.407,49.056c-2.681,0-3.978-1.739-3.978-4.445c0-2.93,1.911-4.642,4.238-4.642
					c2.379,0,3.974,1.478,3.974,4.431C178.641,47.332,176.746,49.056,174.407,49.056z M174.537,41.226
					c-1.361,0-2.588,1.097-2.588,3.214c0,2.001,0.821,3.347,2.563,3.347c1.306,0,2.61-1.048,2.61-3.238
					C177.122,42.413,176.186,41.226,174.537,41.226z"/>
				<path fill="#FFFFFF" d="M184.576,48.928l-2.395-3.82h-0.22v2.784c0.297,0.026,0.614,0.078,0.901,0.157v0.879h-3.45v-0.864
					c0.339-0.081,0.746-0.146,1.133-0.172v-6.761c-0.387-0.025-0.793-0.089-1.133-0.169v-0.864h1.018
					c0.343,0,1.403-0.049,2.47-0.049c1.831,0,3.086,0.64,3.086,2.391c0,1.336-0.97,2.21-2.327,2.42
					c0.183,0.22,0.366,0.483,0.52,0.731l1.53,2.29c0.277,0.037,0.602,0.088,0.939,0.154v0.893H184.576z M182.706,41.21
					c-0.276,0-0.539,0.016-0.746,0.029v2.793c0.128,0.014,0.377,0.028,0.689,0.028c1.15,0,1.846-0.588,1.846-1.463
					C184.496,41.631,183.893,41.21,182.706,41.21z"/>
			</g>
		</g>
	</g>
</g>
<g id="Layer_3" display="none">
	<rect y="27" display="inline" fill="#CC0000" width="10" height="11"/>
	<rect x="27" display="inline" fill="#CC0000" width="10" height="12"/>
	<rect x="46" y="78" display="inline" fill="#CC0000" width="10" height="12"/>
	<rect x="74" y="37" display="inline" fill="#CC0000" width="10" height="12"/>
</g>
</svg>
