<?xml version="1.0" encoding="UTF-8"?>
<!DOCTYPE svg PUBLIC "-//W3C//DTD SVG 1.1//EN" "http://www.w3.org/Graphics/SVG/1.1/DTD/svg11.dtd">
<svg xmlns="http://www.w3.org/2000/svg" width="3000px" height="1000px" viewBox="0 0 3000 1000" xmlns:xlink="http://www.w3.org/1999/xlink">
<path id="text" fill="#000000" d="M436.519 327.139l0 461.269 -120.939 0 0 -54.7488c-17.5181,22.2969 -38.0858,39.1098 -61.4079,50.2535 -23.2996,11.1543 -49.5248,16.8 -78.6295,16.8 -50.6858,0 -88.6843,-13.2933 -113.972,-39.8268 -25.3866,-26.6091 -37.95,-66.4724 -37.95,-119.333l0 -314.414 123.533 0 0 278.787c0,32.8594 5.52283,56.1827 16.5165,70.2402 10.9961,14.0469 29.2406,20.9894 54.7382,20.9894 28.8201,0 51.8469,-8.69764 68.9315,-26.0528 17.0846,-17.3811 25.6453,-41.1496 25.6453,-71.1177l0 -272.846 123.534 0zm1480.37 646.636l0 -646.209 117.456 0 0 62.4213c17.8134,-27.2268 37.8012,-46.9169 59.6669,-59.3811 21.8657,-12.4535 47.7945,-18.6791 77.4803,-18.6791 56.7626,0 102.964,22.4457 138.307,67.2024 35.3303,44.8913 53.0079,103.828 53.0079,176.675 0,73.8602 -17.6776,133.822 -53.0079,179.727 -35.3433,45.9047 -80.9516,68.9433 -136.714,68.9433 -29.4012,0 -55.6146,-6.23858 -78.6295,-18.678 -23.0386,-12.4642 -42.2976,-30.574 -57.5055,-54.3177l0 242.296 -120.061 0zm323.237 -412.893c0,-46.3618 -8.81929,-81.828 -26.3492,-106.312 -17.5169,-24.4594 -42.8787,-36.639 -76.3193,-36.639 -32.7236,0 -57.7878,12.1795 -74.8724,36.5031 -17.0846,24.3236 -25.6346,59.8028 -25.6346,106.448 0,43.5827 8.98228,77.3315 26.9315,101.086 17.961,23.7437 43.311,35.615 76.1823,35.615 31.1433,0 55.4539,-12.1559 73.2803,-36.4913 17.8134,-24.3354 26.7815,-57.776 26.7815,-100.209zm-666.781 87.9059c2.86654,18.3437 10.9937,32.4142 24.4843,42.1358 15.8008,11.4024 39.5303,17.2453 71.2417,17.2453 24.052,0 42.6921,-4.11378 55.911,-12.1689 13.1315,-8.01614 19.6913,-19.4067 19.6913,-34.1799 0,-20.8524 -24.6201,-36.7028 -73.8602,-47.0669 -20.1236,-4.24843 -36.0591,-7.97953 -47.9315,-11.0067 -60.0862,-15.3543 -101.642,-33.352 -124.99,-54.3154 -23.2736,-20.8772 -35.0469,-49.2413 -35.0469,-84.8681 0,-47.2004 17.1343,-84.5327 51.1181,-112.094 34.0713,-27.5965 80.2465,-41.4201 138.456,-41.4201 61.6925,0 110.265,13.7256 145.41,41.1366 35.2193,27.4618 53.8618,66.0531 56.1957,115.861l-120.074 0c-0.864567,-19.5555 -8.25236,-34.6394 -22.2969,-45.4724 -13.898,-10.722 -33.4535,-16.0713 -58.3689,-16.0713 -23.4591,0 -40.8283,3.47126 -52.2685,10.5744 -11.4378,7.09016 -17.2453,17.6528 -17.2453,31.8472 0,18.3933 30.6744,34.7858 92.1071,48.8185 14.0091,3.1878 25.2,5.72008 33.4524,7.65945 61.3961,14.4165 103.374,31.7728 125.869,52.1303 22.3961,20.3091 33.737,48.9567 33.737,86.028 0,52.4386 -18.3697,92.3031 -55.3311,119.777 -36.887,27.4122 -90.6484,41.1366 -161.037,41.1366 -63.7181,0 -113.552,-14.3421 -149.451,-42.8776 -34.6512,-27.5232 -52.6122,-65.1768 -53.8476,-112.809l124.076 0zm-475.42 -139.172l181.594 0c-1.16102,-31.1433 -9.33898,-54.8244 -24.7689,-71.1189 -15.4039,-16.2803 -37.6524,-24.3354 -66.4606,-24.3354 -26.8063,0 -47.9799,8.23937 -63.4465,24.6201 -15.3791,16.3441 -24.3236,39.9756 -26.9185,70.8343zm179.865 139.172l123.1 0c-12.4524,48.6591 -37.5543,86.7059 -75.3189,114.267 -37.8248,27.5965 -83.8535,41.4201 -138.158,41.4201 -66.7571,0 -119.717,-22.3961 -158.727,-67.213 -39.0378,-44.8063 -58.5071,-105.572 -58.5071,-182.322 0,-75.4406 19.2224,-135.021 57.6413,-178.566 38.4803,-43.6311 91.0937,-65.3244 157.863,-65.3244 70.8094,0 125.461,21.4098 163.941,64.3122 38.4201,42.828 57.6413,103.828 57.6413,183.05 0,8.84409 0,15.3673 -0.148819,19.8402 -0.134646,4.34764 -0.579921,8.54764 -1.15984,12.463l-308.031 0c1.73031,36.2079 10.5626,63.4346 26.4862,81.8161 15.9354,18.3933 38.9622,27.522 68.9445,27.522 21.2846,0 38.6906,-4.18701 52.1433,-12.4642 13.6122,-8.3622 24.3236,-21.2846 32.2913,-38.8004zm-768.705 139.622l0 -461.269 120.94 0 0 54.75c17.3811,-22.3098 37.6535,-39.1098 61.1114,-50.2654 23.4591,-11.1425 49.6724,-16.8012 78.4925,-16.8012 50.9705,0 89.0799,13.1811 114.417,39.6921 25.337,26.4969 37.937,66.176 37.937,119.479l0 314.414 -123.534 0 0 -278.787c0,-33.1677 -5.65748,-56.7874 -16.8,-70.8201 -11.1543,-14.1933 -29.2524,-21.2965 -54.4535,-21.2965 -29.1165,0 -52.1433,8.69646 -69.0791,26.0764 -16.937,17.3811 -25.4976,41.1248 -25.4976,71.1059l0 273.722 -123.534 0z"/>
<path id="map" fill="#0093DD" d="M2900.07 318.357l76.3039 -132.272 -152.542 0 76.2378 132.272zm-92.2571 -122.987l-76.2378 132.207 152.541 0 -76.3028 -132.207zm0 282.915l76.3028 -132.272 -152.541 0 76.2378 132.272zm-92.2583 -123.052l-76.2378 132.27 152.542 0 -76.3039 -132.27zm-15.9531 -9.21969l-152.542 0 76.3039 132.272 76.2378 -132.272zm-76.2378 -150.644l-76.3039 132.207 152.542 0 -76.2378 -132.207zm15.9531 -9.28465l76.2378 132.272 76.3039 -132.272 -152.542 0zm76.2378 -150.644l-76.2378 132.206 152.542 0 -76.3039 -132.206zm-92.1909 122.987l76.2378 -132.206 -152.542 0 76.3039 132.206zm-92.2583 -122.987l-76.3028 132.206 152.541 0 -76.2378 -132.206zm0 282.915l76.2378 -132.272 -152.541 0 76.3028 132.272zm-92.2571 -122.529l-76.0417 131.748 152.083 0 -76.0417 -131.748z"/>
</svg>
