<?xml version="1.0" encoding="UTF-8" standalone="no"?>
<!DOCTYPE svg PUBLIC "-//W3C//DTD SVG 1.1//EN"
 "http://www.w3.org/Graphics/SVG/1.1/DTD/svg11.dtd">
<!-- Generated by graphviz version 2.47.3 (20210619.1520)
 -->
<!-- Title: dependencies Pages: 1 -->
<svg width="310pt" height="247pt"
 viewBox="0.00 0.00 310.00 246.80" xmlns="http://www.w3.org/2000/svg" xmlns:xlink="http://www.w3.org/1999/xlink">
<g id="graph0" class="graph" transform="scale(1 1) rotate(0) translate(4 242.8)">
<title>dependencies</title>
<polygon fill="white" stroke="transparent" points="-4,4 -4,-242.8 306,-242.8 306,4 -4,4"/>
<text text-anchor="middle" x="151" y="-8.2" font-family="sans-serif" font-size="14.00">dependencies</text>
<g id="clust1" class="cluster">
<title>cluster_ReportModule</title>
<polygon fill="none" stroke="black" stroke-dasharray="1,5" points="8,-32.8 8,-230.8 294,-230.8 294,-32.8 8,-32.8"/>
</g>
<g id="clust3" class="cluster">
<title>cluster_ReportModule_imports</title>
<polygon fill="none" stroke="black" points="172,-40.8 172,-92.8 286,-92.8 286,-40.8 172,-40.8"/>
</g>
<g id="clust4" class="cluster">
<title>cluster_ReportModule_exports</title>
<polygon fill="none" stroke="black" points="101,-170.8 101,-222.8 217,-222.8 217,-170.8 101,-170.8"/>
</g>
<g id="clust6" class="cluster">
<title>cluster_ReportModule_providers</title>
<polygon fill="none" stroke="black" points="16,-40.8 16,-92.8 164,-92.8 164,-40.8 16,-40.8"/>
</g>
<!-- SourceModule -->
<g id="node1" class="node">
<title>SourceModule</title>
<polygon fill="#8dd3c7" stroke="black" points="278.42,-84.8 275.42,-88.8 254.42,-88.8 251.42,-84.8 179.58,-84.8 179.58,-48.8 278.42,-48.8 278.42,-84.8"/>
<text text-anchor="middle" x="229" y="-62.6" font-family="Times,serif" font-size="14.00">SourceModule</text>
</g>
<!-- ReportModule -->
<g id="node2" class="node">
<title>ReportModule</title>
<polygon fill="#8dd3c7" stroke="black" points="207.65,-149.8 204.65,-153.8 183.65,-153.8 180.65,-149.8 110.35,-149.8 110.35,-113.8 207.65,-113.8 207.65,-149.8"/>
<text text-anchor="middle" x="159" y="-127.6" font-family="Times,serif" font-size="14.00">ReportModule</text>
</g>
<!-- SourceModule&#45;&gt;ReportModule -->
<g id="edge1" class="edge">
<title>SourceModule&#45;&gt;ReportModule</title>
<path fill="none" stroke="black" d="M193.81,-84.91C193.81,-84.91 193.81,-103.79 193.81,-103.79"/>
<polygon fill="black" stroke="black" points="190.31,-103.79 193.81,-113.79 197.31,-103.79 190.31,-103.79"/>
</g>
<!-- ReportService  -->
<g id="node3" class="node">
<title>ReportService </title>
<polygon fill="#fb8072" stroke="black" points="208.58,-214.8 109.42,-214.8 109.42,-178.8 208.58,-178.8 208.58,-214.8"/>
<text text-anchor="middle" x="159" y="-192.6" font-family="Times,serif" font-size="14.00">ReportService </text>
</g>
<!-- ReportModule&#45;&gt;ReportService  -->
<g id="edge2" class="edge">
<title>ReportModule&#45;&gt;ReportService </title>
<path fill="none" stroke="black" stroke-dasharray="5,2" d="M159,-149.91C159,-149.91 159,-168.79 159,-168.79"/>
<polygon fill="black" stroke="black" points="155.5,-168.79 159,-178.79 162.5,-168.79 155.5,-168.79"/>
</g>
<!-- ReportService -->
<g id="node4" class="node">
<title>ReportService</title>
<ellipse fill="#fdb462" stroke="black" cx="90" cy="-66.8" rx="66.05" ry="18"/>
<text text-anchor="middle" x="90" y="-62.6" font-family="Times,serif" font-size="14.00">ReportService</text>
</g>
<!-- ReportService&#45;&gt;ReportModule -->
<g id="edge3" class="edge">
<title>ReportService&#45;&gt;ReportModule</title>
<path fill="none" stroke="black" d="M133.22,-80.58C133.22,-80.58 133.22,-103.35 133.22,-103.35"/>
<polygon fill="black" stroke="black" points="129.72,-103.35 133.22,-113.35 136.72,-103.35 129.72,-103.35"/>
</g>
</g>
</svg>
