<?xml version="1.0" encoding="UTF-8" standalone="no"?>
<!DOCTYPE svg PUBLIC "-//W3C//DTD SVG 1.1//EN"
 "http://www.w3.org/Graphics/SVG/1.1/DTD/svg11.dtd">
<!-- Generated by graphviz version 2.47.3 (20210619.1520)
 -->
<!-- Title: dependencies Pages: 1 -->
<svg width="214pt" height="247pt"
 viewBox="0.00 0.00 214.00 246.80" xmlns="http://www.w3.org/2000/svg" xmlns:xlink="http://www.w3.org/1999/xlink">
<g id="graph0" class="graph" transform="scale(1 1) rotate(0) translate(4 242.8)">
<title>dependencies</title>
<polygon fill="white" stroke="transparent" points="-4,4 -4,-242.8 210,-242.8 210,4 -4,4"/>
<text text-anchor="middle" x="103" y="-8.2" font-family="sans-serif" font-size="14.00">dependencies</text>
<g id="clust1" class="cluster">
<title>cluster_ParagraphModule</title>
<polygon fill="none" stroke="black" stroke-dasharray="1,5" points="8,-32.8 8,-230.8 198,-230.8 198,-32.8 8,-32.8"/>
</g>
<g id="clust6" class="cluster">
<title>cluster_ParagraphModule_providers</title>
<polygon fill="none" stroke="black" points="16,-40.8 16,-92.8 190,-92.8 190,-40.8 16,-40.8"/>
</g>
<g id="clust4" class="cluster">
<title>cluster_ParagraphModule_exports</title>
<polygon fill="none" stroke="black" points="36,-170.8 36,-222.8 170,-222.8 170,-170.8 36,-170.8"/>
</g>
<!-- ParagraphService  -->
<g id="node1" class="node">
<title>ParagraphService </title>
<polygon fill="#fb8072" stroke="black" points="162.23,-214.8 43.77,-214.8 43.77,-178.8 162.23,-178.8 162.23,-214.8"/>
<text text-anchor="middle" x="103" y="-192.6" font-family="Times,serif" font-size="14.00">ParagraphService </text>
</g>
<!-- ParagraphModule -->
<g id="node2" class="node">
<title>ParagraphModule</title>
<polygon fill="#8dd3c7" stroke="black" points="161.3,-149.8 158.3,-153.8 137.3,-153.8 134.3,-149.8 44.7,-149.8 44.7,-113.8 161.3,-113.8 161.3,-149.8"/>
<text text-anchor="middle" x="103" y="-127.6" font-family="Times,serif" font-size="14.00">ParagraphModule</text>
</g>
<!-- ParagraphModule&#45;&gt;ParagraphService  -->
<g id="edge1" class="edge">
<title>ParagraphModule&#45;&gt;ParagraphService </title>
<path fill="none" stroke="black" stroke-dasharray="5,2" d="M103,-149.91C103,-149.91 103,-168.79 103,-168.79"/>
<polygon fill="black" stroke="black" points="99.5,-168.79 103,-178.79 106.5,-168.79 99.5,-168.79"/>
</g>
<!-- ParagraphService -->
<g id="node3" class="node">
<title>ParagraphService</title>
<ellipse fill="#fdb462" stroke="black" cx="103" cy="-66.8" rx="79.27" ry="18"/>
<text text-anchor="middle" x="103" y="-62.6" font-family="Times,serif" font-size="14.00">ParagraphService</text>
</g>
<!-- ParagraphService&#45;&gt;ParagraphModule -->
<g id="edge2" class="edge">
<title>ParagraphService&#45;&gt;ParagraphModule</title>
<path fill="none" stroke="black" d="M103,-84.91C103,-84.91 103,-103.79 103,-103.79"/>
<polygon fill="black" stroke="black" points="99.5,-103.79 103,-113.79 106.5,-103.79 99.5,-103.79"/>
</g>
</g>
</svg>
