<?xml version="1.0" encoding="UTF-8" standalone="no"?>
<!DOCTYPE svg PUBLIC "-//W3C//DTD SVG 1.1//EN"
 "http://www.w3.org/Graphics/SVG/1.1/DTD/svg11.dtd">
<!-- Generated by graphviz version 2.47.3 (20210619.1520)
 -->
<!-- Title: dependencies Pages: 1 -->
<svg width="391pt" height="174pt"
 viewBox="0.00 0.00 391.00 173.80" xmlns="http://www.w3.org/2000/svg" xmlns:xlink="http://www.w3.org/1999/xlink">
<g id="graph0" class="graph" transform="scale(1 1) rotate(0) translate(4 169.8)">
<title>dependencies</title>
<polygon fill="white" stroke="transparent" points="-4,4 -4,-169.8 387,-169.8 387,4 -4,4"/>
<text text-anchor="middle" x="191.5" y="-8.2" font-family="sans-serif" font-size="14.00">dependencies</text>
<g id="clust1" class="cluster">
<title>cluster_HomeModule</title>
<polygon fill="none" stroke="black" stroke-dasharray="1,5" points="8,-32.8 8,-157.8 375,-157.8 375,-32.8 8,-32.8"/>
</g>
<g id="clust3" class="cluster">
<title>cluster_HomeModule_imports</title>
<polygon fill="none" stroke="black" points="16,-40.8 16,-92.8 367,-92.8 367,-40.8 16,-40.8"/>
</g>
<!-- PersonalityModule -->
<g id="node1" class="node">
<title>PersonalityModule</title>
<polygon fill="#8dd3c7" stroke="black" points="359.04,-84.8 356.04,-88.8 335.04,-88.8 332.04,-84.8 236.96,-84.8 236.96,-48.8 359.04,-48.8 359.04,-84.8"/>
<text text-anchor="middle" x="298" y="-62.6" font-family="Times,serif" font-size="14.00">PersonalityModule</text>
</g>
<!-- HomeModule -->
<g id="node4" class="node">
<title>HomeModule</title>
<polygon fill="#8dd3c7" stroke="black" points="221.76,-149.8 218.76,-153.8 197.76,-153.8 194.76,-149.8 128.24,-149.8 128.24,-113.8 221.76,-113.8 221.76,-149.8"/>
<text text-anchor="middle" x="175" y="-127.6" font-family="Times,serif" font-size="14.00">HomeModule</text>
</g>
<!-- PersonalityModule&#45;&gt;HomeModule -->
<g id="edge1" class="edge">
<title>PersonalityModule&#45;&gt;HomeModule</title>
<path fill="none" stroke="black" d="M298,-84.91C298,-104.14 298,-131.8 298,-131.8 298,-131.8 231.85,-131.8 231.85,-131.8"/>
<polygon fill="black" stroke="black" points="231.85,-128.3 221.85,-131.8 231.85,-135.3 231.85,-128.3"/>
</g>
<!-- StatsModule -->
<g id="node2" class="node">
<title>StatsModule</title>
<polygon fill="#8dd3c7" stroke="black" points="218.27,-84.8 215.27,-88.8 194.27,-88.8 191.27,-84.8 131.73,-84.8 131.73,-48.8 218.27,-48.8 218.27,-84.8"/>
<text text-anchor="middle" x="175" y="-62.6" font-family="Times,serif" font-size="14.00">StatsModule</text>
</g>
<!-- StatsModule&#45;&gt;HomeModule -->
<g id="edge2" class="edge">
<title>StatsModule&#45;&gt;HomeModule</title>
<path fill="none" stroke="black" d="M175,-84.91C175,-84.91 175,-103.79 175,-103.79"/>
<polygon fill="black" stroke="black" points="171.5,-103.79 175,-113.79 178.5,-103.79 171.5,-103.79"/>
</g>
<!-- ViewModule -->
<g id="node3" class="node">
<title>ViewModule</title>
<polygon fill="#8dd3c7" stroke="black" points="113.87,-84.8 110.87,-88.8 89.87,-88.8 86.87,-84.8 24.13,-84.8 24.13,-48.8 113.87,-48.8 113.87,-84.8"/>
<text text-anchor="middle" x="69" y="-62.6" font-family="Times,serif" font-size="14.00">ViewModule</text>
</g>
<!-- ViewModule&#45;&gt;HomeModule -->
<g id="edge3" class="edge">
<title>ViewModule&#45;&gt;HomeModule</title>
<path fill="none" stroke="black" d="M69,-84.91C69,-104.14 69,-131.8 69,-131.8 69,-131.8 118.2,-131.8 118.2,-131.8"/>
<polygon fill="black" stroke="black" points="118.2,-135.3 128.2,-131.8 118.2,-128.3 118.2,-135.3"/>
</g>
</g>
</svg>
