<?xml version="1.0" encoding="UTF-8" standalone="no"?>
<!DOCTYPE svg PUBLIC "-//W3C//DTD SVG 1.1//EN"
 "http://www.w3.org/Graphics/SVG/1.1/DTD/svg11.dtd">
<!-- Generated by graphviz version 2.47.3 (20210619.1520)
 -->
<!-- Title: dependencies Pages: 1 -->
<svg width="587pt" height="247pt"
 viewBox="0.00 0.00 587.00 246.80" xmlns="http://www.w3.org/2000/svg" xmlns:xlink="http://www.w3.org/1999/xlink">
<g id="graph0" class="graph" transform="scale(1 1) rotate(0) translate(4 242.8)">
<title>dependencies</title>
<polygon fill="white" stroke="transparent" points="-4,4 -4,-242.8 583,-242.8 583,4 -4,4"/>
<text text-anchor="middle" x="289.5" y="-8.2" font-family="sans-serif" font-size="14.00">dependencies</text>
<g id="clust1" class="cluster">
<title>cluster_StatsModule</title>
<polygon fill="none" stroke="black" stroke-dasharray="1,5" points="8,-32.8 8,-230.8 571,-230.8 571,-32.8 8,-32.8"/>
</g>
<g id="clust6" class="cluster">
<title>cluster_StatsModule_providers</title>
<polygon fill="none" stroke="black" points="429,-40.8 429,-92.8 563,-92.8 563,-40.8 429,-40.8"/>
</g>
<g id="clust4" class="cluster">
<title>cluster_StatsModule_exports</title>
<polygon fill="none" stroke="black" points="247,-170.8 247,-222.8 351,-222.8 351,-170.8 247,-170.8"/>
</g>
<g id="clust3" class="cluster">
<title>cluster_StatsModule_imports</title>
<polygon fill="none" stroke="black" points="16,-40.8 16,-92.8 421,-92.8 421,-40.8 16,-40.8"/>
</g>
<!-- ClaimModule -->
<g id="node1" class="node">
<title>ClaimModule</title>
<polygon fill="#8dd3c7" stroke="black" points="412.77,-84.8 409.77,-88.8 388.77,-88.8 385.77,-84.8 319.23,-84.8 319.23,-48.8 412.77,-48.8 412.77,-84.8"/>
<text text-anchor="middle" x="366" y="-62.6" font-family="Times,serif" font-size="14.00">ClaimModule</text>
</g>
<!-- StatsModule -->
<g id="node4" class="node">
<title>StatsModule</title>
<polygon fill="#8dd3c7" stroke="black" points="342.27,-149.8 339.27,-153.8 318.27,-153.8 315.27,-149.8 255.73,-149.8 255.73,-113.8 342.27,-113.8 342.27,-149.8"/>
<text text-anchor="middle" x="299" y="-127.6" font-family="Times,serif" font-size="14.00">StatsModule</text>
</g>
<!-- ClaimModule&#45;&gt;StatsModule -->
<g id="edge1" class="edge">
<title>ClaimModule&#45;&gt;StatsModule</title>
<path fill="none" stroke="black" d="M330.75,-84.91C330.75,-84.91 330.75,-103.79 330.75,-103.79"/>
<polygon fill="black" stroke="black" points="327.25,-103.79 330.75,-113.79 334.25,-103.79 327.25,-103.79"/>
</g>
<!-- ClaimReviewModule -->
<g id="node2" class="node">
<title>ClaimReviewModule</title>
<polygon fill="#8dd3c7" stroke="black" points="301.04,-84.8 298.04,-88.8 277.04,-88.8 274.04,-84.8 164.96,-84.8 164.96,-48.8 301.04,-48.8 301.04,-84.8"/>
<text text-anchor="middle" x="233" y="-62.6" font-family="Times,serif" font-size="14.00">ClaimReviewModule</text>
</g>
<!-- ClaimReviewModule&#45;&gt;StatsModule -->
<g id="edge2" class="edge">
<title>ClaimReviewModule&#45;&gt;StatsModule</title>
<path fill="none" stroke="black" d="M278.44,-84.91C278.44,-84.91 278.44,-103.79 278.44,-103.79"/>
<polygon fill="black" stroke="black" points="274.94,-103.79 278.44,-113.79 281.94,-103.79 274.94,-103.79"/>
</g>
<!-- PersonalityModule -->
<g id="node3" class="node">
<title>PersonalityModule</title>
<polygon fill="#8dd3c7" stroke="black" points="146.04,-84.8 143.04,-88.8 122.04,-88.8 119.04,-84.8 23.96,-84.8 23.96,-48.8 146.04,-48.8 146.04,-84.8"/>
<text text-anchor="middle" x="85" y="-62.6" font-family="Times,serif" font-size="14.00">PersonalityModule</text>
</g>
<!-- PersonalityModule&#45;&gt;StatsModule -->
<g id="edge3" class="edge">
<title>PersonalityModule&#45;&gt;StatsModule</title>
<path fill="none" stroke="black" d="M85,-84.91C85,-104.14 85,-131.8 85,-131.8 85,-131.8 245.69,-131.8 245.69,-131.8"/>
<polygon fill="black" stroke="black" points="245.69,-135.3 255.69,-131.8 245.69,-128.3 245.69,-135.3"/>
</g>
<!-- StatsService  -->
<g id="node5" class="node">
<title>StatsService </title>
<polygon fill="#fb8072" stroke="black" points="343.2,-214.8 254.8,-214.8 254.8,-178.8 343.2,-178.8 343.2,-214.8"/>
<text text-anchor="middle" x="299" y="-192.6" font-family="Times,serif" font-size="14.00">StatsService </text>
</g>
<!-- StatsModule&#45;&gt;StatsService  -->
<g id="edge4" class="edge">
<title>StatsModule&#45;&gt;StatsService </title>
<path fill="none" stroke="black" stroke-dasharray="5,2" d="M299,-149.91C299,-149.91 299,-168.79 299,-168.79"/>
<polygon fill="black" stroke="black" points="295.5,-168.79 299,-178.79 302.5,-168.79 295.5,-168.79"/>
</g>
<!-- StatsService -->
<g id="node6" class="node">
<title>StatsService</title>
<ellipse fill="#fdb462" stroke="black" cx="496" cy="-66.8" rx="58.54" ry="18"/>
<text text-anchor="middle" x="496" y="-62.6" font-family="Times,serif" font-size="14.00">StatsService</text>
</g>
<!-- StatsService&#45;&gt;StatsModule -->
<g id="edge5" class="edge">
<title>StatsService&#45;&gt;StatsModule</title>
<path fill="none" stroke="black" d="M496,-84.91C496,-104.14 496,-131.8 496,-131.8 496,-131.8 352.72,-131.8 352.72,-131.8"/>
<polygon fill="black" stroke="black" points="352.72,-128.3 342.72,-131.8 352.72,-135.3 352.72,-128.3"/>
</g>
</g>
</svg>
