<?xml version="1.0" encoding="UTF-8" standalone="no"?>
<!DOCTYPE svg PUBLIC "-//W3C//DTD SVG 1.1//EN"
 "http://www.w3.org/Graphics/SVG/1.1/DTD/svg11.dtd">
<!-- Generated by graphviz version 2.47.3 (20210619.1520)
 -->
<!-- Title: dependencies Pages: 1 -->
<svg width="587pt" height="247pt"
 viewBox="0.00 0.00 587.00 246.80" xmlns="http://www.w3.org/2000/svg" xmlns:xlink="http://www.w3.org/1999/xlink">
<g id="graph0" class="graph" transform="scale(1 1) rotate(0) translate(4 242.8)">
<title>dependencies</title>
<polygon fill="white" stroke="transparent" points="-4,4 -4,-242.8 583,-242.8 583,4 -4,4"/>
<text text-anchor="middle" x="289.5" y="-8.2" font-family="sans-serif" font-size="14.00">dependencies</text>
<g id="clust1" class="cluster">
<title>cluster_StatsModule</title>
<polygon fill="none" stroke="black" stroke-dasharray="1,5" points="8,-32.8 8,-230.8 571,-230.8 571,-32.8 8,-32.8"/>
</g>
<g id="clust3" class="cluster">
<title>cluster_StatsModule_imports</title>
<polygon fill="none" stroke="black" points="158,-40.8 158,-92.8 563,-92.8 563,-40.8 158,-40.8"/>
</g>
<g id="clust6" class="cluster">
<title>cluster_StatsModule_providers</title>
<polygon fill="none" stroke="black" points="16,-40.8 16,-92.8 150,-92.8 150,-40.8 16,-40.8"/>
</g>
<g id="clust4" class="cluster">
<title>cluster_StatsModule_exports</title>
<polygon fill="none" stroke="black" points="249,-170.8 249,-222.8 353,-222.8 353,-170.8 249,-170.8"/>
</g>
<!-- ClaimModule -->
<g id="node1" class="node">
<title>ClaimModule</title>
<polygon fill="#8dd3c7" stroke="black" points="554.77,-84.8 551.77,-88.8 530.77,-88.8 527.77,-84.8 461.23,-84.8 461.23,-48.8 554.77,-48.8 554.77,-84.8"/>
<text text-anchor="middle" x="508" y="-62.6" font-family="Times,serif" font-size="14.00">ClaimModule</text>
</g>
<!-- StatsModule -->
<g id="node4" class="node">
<title>StatsModule</title>
<polygon fill="#8dd3c7" stroke="black" points="344.27,-149.8 341.27,-153.8 320.27,-153.8 317.27,-149.8 257.73,-149.8 257.73,-113.8 344.27,-113.8 344.27,-149.8"/>
<text text-anchor="middle" x="301" y="-127.6" font-family="Times,serif" font-size="14.00">StatsModule</text>
</g>
<!-- ClaimModule&#45;&gt;StatsModule -->
<g id="edge1" class="edge">
<title>ClaimModule&#45;&gt;StatsModule</title>
<path fill="none" stroke="black" d="M508,-84.91C508,-104.14 508,-131.8 508,-131.8 508,-131.8 354.39,-131.8 354.39,-131.8"/>
<polygon fill="black" stroke="black" points="354.39,-128.3 344.39,-131.8 354.39,-135.3 354.39,-128.3"/>
</g>
<!-- ClaimReviewModule -->
<g id="node2" class="node">
<title>ClaimReviewModule</title>
<polygon fill="#8dd3c7" stroke="black" points="443.04,-84.8 440.04,-88.8 419.04,-88.8 416.04,-84.8 306.96,-84.8 306.96,-48.8 443.04,-48.8 443.04,-84.8"/>
<text text-anchor="middle" x="375" y="-62.6" font-family="Times,serif" font-size="14.00">ClaimReviewModule</text>
</g>
<!-- ClaimReviewModule&#45;&gt;StatsModule -->
<g id="edge2" class="edge">
<title>ClaimReviewModule&#45;&gt;StatsModule</title>
<path fill="none" stroke="black" d="M325.56,-84.91C325.56,-84.91 325.56,-103.79 325.56,-103.79"/>
<polygon fill="black" stroke="black" points="322.06,-103.79 325.56,-113.79 329.06,-103.79 322.06,-103.79"/>
</g>
<!-- PersonalityModule -->
<g id="node3" class="node">
<title>PersonalityModule</title>
<polygon fill="#8dd3c7" stroke="black" points="288.04,-84.8 285.04,-88.8 264.04,-88.8 261.04,-84.8 165.96,-84.8 165.96,-48.8 288.04,-48.8 288.04,-84.8"/>
<text text-anchor="middle" x="227" y="-62.6" font-family="Times,serif" font-size="14.00">PersonalityModule</text>
</g>
<!-- PersonalityModule&#45;&gt;StatsModule -->
<g id="edge3" class="edge">
<title>PersonalityModule&#45;&gt;StatsModule</title>
<path fill="none" stroke="black" d="M272.94,-84.91C272.94,-84.91 272.94,-103.79 272.94,-103.79"/>
<polygon fill="black" stroke="black" points="269.44,-103.79 272.94,-113.79 276.44,-103.79 269.44,-103.79"/>
</g>
<!-- StatsService  -->
<g id="node5" class="node">
<title>StatsService </title>
<polygon fill="#fb8072" stroke="black" points="345.2,-214.8 256.8,-214.8 256.8,-178.8 345.2,-178.8 345.2,-214.8"/>
<text text-anchor="middle" x="301" y="-192.6" font-family="Times,serif" font-size="14.00">StatsService </text>
</g>
<!-- StatsModule&#45;&gt;StatsService  -->
<g id="edge4" class="edge">
<title>StatsModule&#45;&gt;StatsService </title>
<path fill="none" stroke="black" stroke-dasharray="5,2" d="M301,-149.91C301,-149.91 301,-168.79 301,-168.79"/>
<polygon fill="black" stroke="black" points="297.5,-168.79 301,-178.79 304.5,-168.79 297.5,-168.79"/>
</g>
<!-- StatsService -->
<g id="node6" class="node">
<title>StatsService</title>
<ellipse fill="#fdb462" stroke="black" cx="83" cy="-66.8" rx="58.54" ry="18"/>
<text text-anchor="middle" x="83" y="-62.6" font-family="Times,serif" font-size="14.00">StatsService</text>
</g>
<!-- StatsService&#45;&gt;StatsModule -->
<g id="edge5" class="edge">
<title>StatsService&#45;&gt;StatsModule</title>
<path fill="none" stroke="black" d="M83,-84.91C83,-104.14 83,-131.8 83,-131.8 83,-131.8 247.67,-131.8 247.67,-131.8"/>
<polygon fill="black" stroke="black" points="247.67,-135.3 257.67,-131.8 247.67,-128.3 247.67,-135.3"/>
</g>
</g>
</svg>
