<?xml version="1.0" encoding="UTF-8" standalone="no"?>
<!DOCTYPE svg PUBLIC "-//W3C//DTD SVG 1.1//EN"
 "http://www.w3.org/Graphics/SVG/1.1/DTD/svg11.dtd">
<!-- Generated by graphviz version 2.47.3 (20210619.1520)
 -->
<!-- Title: dependencies Pages: 1 -->
<svg width="394pt" height="247pt"
 viewBox="0.00 0.00 394.00 246.80" xmlns="http://www.w3.org/2000/svg" xmlns:xlink="http://www.w3.org/1999/xlink">
<g id="graph0" class="graph" transform="scale(1 1) rotate(0) translate(4 242.8)">
<title>dependencies</title>
<polygon fill="white" stroke="transparent" points="-4,4 -4,-242.8 390,-242.8 390,4 -4,4"/>
<text text-anchor="middle" x="193" y="-8.2" font-family="sans-serif" font-size="14.00">dependencies</text>
<g id="clust1" class="cluster">
<title>cluster_UsersModule</title>
<polygon fill="none" stroke="black" stroke-dasharray="1,5" points="8,-32.8 8,-230.8 378,-230.8 378,-32.8 8,-32.8"/>
</g>
<g id="clust6" class="cluster">
<title>cluster_UsersModule_providers</title>
<polygon fill="none" stroke="black" points="230,-40.8 230,-92.8 370,-92.8 370,-40.8 230,-40.8"/>
</g>
<g id="clust4" class="cluster">
<title>cluster_UsersModule_exports</title>
<polygon fill="none" stroke="black" points="118,-170.8 118,-222.8 228,-222.8 228,-170.8 118,-170.8"/>
</g>
<g id="clust3" class="cluster">
<title>cluster_UsersModule_imports</title>
<polygon fill="none" stroke="black" points="16,-40.8 16,-92.8 222,-92.8 222,-40.8 16,-40.8"/>
</g>
<!-- OryModule -->
<g id="node1" class="node">
<title>OryModule</title>
<polygon fill="#8dd3c7" stroke="black" points="213.82,-84.8 210.82,-88.8 189.82,-88.8 186.82,-84.8 132.18,-84.8 132.18,-48.8 213.82,-48.8 213.82,-84.8"/>
<text text-anchor="middle" x="173" y="-62.6" font-family="Times,serif" font-size="14.00">OryModule</text>
</g>
<!-- UsersModule -->
<g id="node3" class="node">
<title>UsersModule</title>
<polygon fill="#8dd3c7" stroke="black" points="218.92,-149.8 215.92,-153.8 194.92,-153.8 191.92,-149.8 127.08,-149.8 127.08,-113.8 218.92,-113.8 218.92,-149.8"/>
<text text-anchor="middle" x="173" y="-127.6" font-family="Times,serif" font-size="14.00">UsersModule</text>
</g>
<!-- OryModule&#45;&gt;UsersModule -->
<g id="edge1" class="edge">
<title>OryModule&#45;&gt;UsersModule</title>
<path fill="none" stroke="black" d="M173,-84.91C173,-84.91 173,-103.79 173,-103.79"/>
<polygon fill="black" stroke="black" points="169.5,-103.79 173,-113.79 176.5,-103.79 169.5,-103.79"/>
</g>
<!-- ViewModule -->
<g id="node2" class="node">
<title>ViewModule</title>
<polygon fill="#8dd3c7" stroke="black" points="113.87,-84.8 110.87,-88.8 89.87,-88.8 86.87,-84.8 24.13,-84.8 24.13,-48.8 113.87,-48.8 113.87,-84.8"/>
<text text-anchor="middle" x="69" y="-62.6" font-family="Times,serif" font-size="14.00">ViewModule</text>
</g>
<!-- ViewModule&#45;&gt;UsersModule -->
<g id="edge2" class="edge">
<title>ViewModule&#45;&gt;UsersModule</title>
<path fill="none" stroke="black" d="M69,-84.91C69,-104.14 69,-131.8 69,-131.8 69,-131.8 117.08,-131.8 117.08,-131.8"/>
<polygon fill="black" stroke="black" points="117.08,-135.3 127.08,-131.8 117.08,-128.3 117.08,-135.3"/>
</g>
<!-- UsersService  -->
<g id="node4" class="node">
<title>UsersService </title>
<polygon fill="#fb8072" stroke="black" points="219.85,-214.8 126.15,-214.8 126.15,-178.8 219.85,-178.8 219.85,-214.8"/>
<text text-anchor="middle" x="173" y="-192.6" font-family="Times,serif" font-size="14.00">UsersService </text>
</g>
<!-- UsersModule&#45;&gt;UsersService  -->
<g id="edge3" class="edge">
<title>UsersModule&#45;&gt;UsersService </title>
<path fill="none" stroke="black" stroke-dasharray="5,2" d="M173,-149.91C173,-149.91 173,-168.79 173,-168.79"/>
<polygon fill="black" stroke="black" points="169.5,-168.79 173,-178.79 176.5,-168.79 169.5,-168.79"/>
</g>
<!-- UsersService -->
<g id="node5" class="node">
<title>UsersService</title>
<ellipse fill="#fdb462" stroke="black" cx="300" cy="-66.8" rx="61.95" ry="18"/>
<text text-anchor="middle" x="300" y="-62.6" font-family="Times,serif" font-size="14.00">UsersService</text>
</g>
<!-- UsersService&#45;&gt;UsersModule -->
<g id="edge4" class="edge">
<title>UsersService&#45;&gt;UsersModule</title>
<path fill="none" stroke="black" d="M300,-84.91C300,-104.14 300,-131.8 300,-131.8 300,-131.8 228.85,-131.8 228.85,-131.8"/>
<polygon fill="black" stroke="black" points="228.85,-128.3 218.85,-131.8 228.85,-135.3 228.85,-128.3"/>
</g>
</g>
</svg>
