<?xml version="1.0" encoding="UTF-8" standalone="no"?>
<!DOCTYPE svg PUBLIC "-//W3C//DTD SVG 1.1//EN"
 "http://www.w3.org/Graphics/SVG/1.1/DTD/svg11.dtd">
<!-- Generated by graphviz version 2.47.3 (20210619.1520)
 -->
<!-- Title: dependencies Pages: 1 -->
<svg width="394pt" height="247pt"
 viewBox="0.00 0.00 394.00 246.80" xmlns="http://www.w3.org/2000/svg" xmlns:xlink="http://www.w3.org/1999/xlink">
<g id="graph0" class="graph" transform="scale(1 1) rotate(0) translate(4 242.8)">
<title>dependencies</title>
<polygon fill="white" stroke="transparent" points="-4,4 -4,-242.8 390,-242.8 390,4 -4,4"/>
<text text-anchor="middle" x="193" y="-8.2" font-family="sans-serif" font-size="14.00">dependencies</text>
<g id="clust1" class="cluster">
<title>cluster_UsersModule</title>
<polygon fill="none" stroke="black" stroke-dasharray="1,5" points="8,-32.8 8,-230.8 378,-230.8 378,-32.8 8,-32.8"/>
</g>
<g id="clust4" class="cluster">
<title>cluster_UsersModule_exports</title>
<polygon fill="none" stroke="black" points="162,-170.8 162,-222.8 272,-222.8 272,-170.8 162,-170.8"/>
</g>
<g id="clust3" class="cluster">
<title>cluster_UsersModule_imports</title>
<polygon fill="none" stroke="black" points="164,-40.8 164,-92.8 370,-92.8 370,-40.8 164,-40.8"/>
</g>
<g id="clust6" class="cluster">
<title>cluster_UsersModule_providers</title>
<polygon fill="none" stroke="black" points="16,-40.8 16,-92.8 156,-92.8 156,-40.8 16,-40.8"/>
</g>
<!-- OryModule -->
<g id="node1" class="node">
<title>OryModule</title>
<polygon fill="#8dd3c7" stroke="black" points="361.82,-84.8 358.82,-88.8 337.82,-88.8 334.82,-84.8 280.18,-84.8 280.18,-48.8 361.82,-48.8 361.82,-84.8"/>
<text text-anchor="middle" x="321" y="-62.6" font-family="Times,serif" font-size="14.00">OryModule</text>
</g>
<!-- UsersModule -->
<g id="node3" class="node">
<title>UsersModule</title>
<polygon fill="#8dd3c7" stroke="black" points="262.92,-149.8 259.92,-153.8 238.92,-153.8 235.92,-149.8 171.08,-149.8 171.08,-113.8 262.92,-113.8 262.92,-149.8"/>
<text text-anchor="middle" x="217" y="-127.6" font-family="Times,serif" font-size="14.00">UsersModule</text>
</g>
<!-- OryModule&#45;&gt;UsersModule -->
<g id="edge1" class="edge">
<title>OryModule&#45;&gt;UsersModule</title>
<path fill="none" stroke="black" d="M321,-84.91C321,-104.14 321,-131.8 321,-131.8 321,-131.8 272.92,-131.8 272.92,-131.8"/>
<polygon fill="black" stroke="black" points="272.92,-128.3 262.92,-131.8 272.92,-135.3 272.92,-128.3"/>
</g>
<!-- ViewModule -->
<g id="node2" class="node">
<title>ViewModule</title>
<polygon fill="#8dd3c7" stroke="black" points="261.87,-84.8 258.87,-88.8 237.87,-88.8 234.87,-84.8 172.13,-84.8 172.13,-48.8 261.87,-48.8 261.87,-84.8"/>
<text text-anchor="middle" x="217" y="-62.6" font-family="Times,serif" font-size="14.00">ViewModule</text>
</g>
<!-- ViewModule&#45;&gt;UsersModule -->
<g id="edge2" class="edge">
<title>ViewModule&#45;&gt;UsersModule</title>
<path fill="none" stroke="black" d="M217,-84.91C217,-84.91 217,-103.79 217,-103.79"/>
<polygon fill="black" stroke="black" points="213.5,-103.79 217,-113.79 220.5,-103.79 213.5,-103.79"/>
</g>
<!-- UsersService  -->
<g id="node4" class="node">
<title>UsersService </title>
<polygon fill="#fb8072" stroke="black" points="263.85,-214.8 170.15,-214.8 170.15,-178.8 263.85,-178.8 263.85,-214.8"/>
<text text-anchor="middle" x="217" y="-192.6" font-family="Times,serif" font-size="14.00">UsersService </text>
</g>
<!-- UsersModule&#45;&gt;UsersService  -->
<g id="edge3" class="edge">
<title>UsersModule&#45;&gt;UsersService </title>
<path fill="none" stroke="black" stroke-dasharray="5,2" d="M217,-149.91C217,-149.91 217,-168.79 217,-168.79"/>
<polygon fill="black" stroke="black" points="213.5,-168.79 217,-178.79 220.5,-168.79 213.5,-168.79"/>
</g>
<!-- UsersService -->
<g id="node5" class="node">
<title>UsersService</title>
<ellipse fill="#fdb462" stroke="black" cx="86" cy="-66.8" rx="61.95" ry="18"/>
<text text-anchor="middle" x="86" y="-62.6" font-family="Times,serif" font-size="14.00">UsersService</text>
</g>
<!-- UsersService&#45;&gt;UsersModule -->
<g id="edge4" class="edge">
<title>UsersService&#45;&gt;UsersModule</title>
<path fill="none" stroke="black" d="M86,-84.91C86,-104.14 86,-131.8 86,-131.8 86,-131.8 161.18,-131.8 161.18,-131.8"/>
<polygon fill="black" stroke="black" points="161.18,-135.3 171.18,-131.8 161.18,-128.3 161.18,-135.3"/>
</g>
</g>
</svg>
