<?xml version="1.0" encoding="UTF-8" standalone="no"?>
<!DOCTYPE svg PUBLIC "-//W3C//DTD SVG 1.1//EN"
 "http://www.w3.org/Graphics/SVG/1.1/DTD/svg11.dtd">
<!-- Generated by graphviz version 2.47.3 (20210619.1520)
 -->
<!-- Title: dependencies Pages: 1 -->
<svg width="192pt" height="247pt"
 viewBox="0.00 0.00 192.00 246.80" xmlns="http://www.w3.org/2000/svg" xmlns:xlink="http://www.w3.org/1999/xlink">
<g id="graph0" class="graph" transform="scale(1 1) rotate(0) translate(4 242.8)">
<title>dependencies</title>
<polygon fill="white" stroke="transparent" points="-4,4 -4,-242.8 188,-242.8 188,4 -4,4"/>
<text text-anchor="middle" x="92" y="-8.2" font-family="sans-serif" font-size="14.00">dependencies</text>
<g id="clust1" class="cluster">
<title>cluster_SpeechModule</title>
<polygon fill="none" stroke="black" stroke-dasharray="1,5" points="8,-32.8 8,-230.8 176,-230.8 176,-32.8 8,-32.8"/>
</g>
<g id="clust4" class="cluster">
<title>cluster_SpeechModule_exports</title>
<polygon fill="none" stroke="black" points="33,-170.8 33,-222.8 151,-222.8 151,-170.8 33,-170.8"/>
</g>
<g id="clust6" class="cluster">
<title>cluster_SpeechModule_providers</title>
<polygon fill="none" stroke="black" points="16,-40.8 16,-92.8 168,-92.8 168,-40.8 16,-40.8"/>
</g>
<!-- SpeechService  -->
<g id="node1" class="node">
<title>SpeechService </title>
<polygon fill="#fb8072" stroke="black" points="142.9,-214.8 41.1,-214.8 41.1,-178.8 142.9,-178.8 142.9,-214.8"/>
<text text-anchor="middle" x="92" y="-192.6" font-family="Times,serif" font-size="14.00">SpeechService </text>
</g>
<!-- SpeechModule -->
<g id="node2" class="node">
<title>SpeechModule</title>
<polygon fill="#8dd3c7" stroke="black" points="141.98,-149.8 138.98,-153.8 117.98,-153.8 114.98,-149.8 42.02,-149.8 42.02,-113.8 141.98,-113.8 141.98,-149.8"/>
<text text-anchor="middle" x="92" y="-127.6" font-family="Times,serif" font-size="14.00">SpeechModule</text>
</g>
<!-- SpeechModule&#45;&gt;SpeechService  -->
<g id="edge1" class="edge">
<title>SpeechModule&#45;&gt;SpeechService </title>
<path fill="none" stroke="black" stroke-dasharray="5,2" d="M92,-149.91C92,-149.91 92,-168.79 92,-168.79"/>
<polygon fill="black" stroke="black" points="88.5,-168.79 92,-178.79 95.5,-168.79 88.5,-168.79"/>
</g>
<!-- SpeechService -->
<g id="node3" class="node">
<title>SpeechService</title>
<ellipse fill="#fdb462" stroke="black" cx="92" cy="-66.8" rx="67.75" ry="18"/>
<text text-anchor="middle" x="92" y="-62.6" font-family="Times,serif" font-size="14.00">SpeechService</text>
</g>
<!-- SpeechService&#45;&gt;SpeechModule -->
<g id="edge2" class="edge">
<title>SpeechService&#45;&gt;SpeechModule</title>
<path fill="none" stroke="black" d="M92,-84.91C92,-84.91 92,-103.79 92,-103.79"/>
<polygon fill="black" stroke="black" points="88.5,-103.79 92,-113.79 95.5,-103.79 88.5,-103.79"/>
</g>
</g>
</svg>
