<?xml version="1.0" encoding="UTF-8" standalone="no"?>
<!DOCTYPE svg PUBLIC "-//W3C//DTD SVG 1.1//EN"
 "http://www.w3.org/Graphics/SVG/1.1/DTD/svg11.dtd">
<!-- Generated by graphviz version 2.47.3 (20210619.1520)
 -->
<!-- Title: dependencies Pages: 1 -->
<svg width="200pt" height="247pt"
 viewBox="0.00 0.00 200.00 246.80" xmlns="http://www.w3.org/2000/svg" xmlns:xlink="http://www.w3.org/1999/xlink">
<g id="graph0" class="graph" transform="scale(1 1) rotate(0) translate(4 242.8)">
<title>dependencies</title>
<polygon fill="white" stroke="transparent" points="-4,4 -4,-242.8 196,-242.8 196,4 -4,4"/>
<text text-anchor="middle" x="96" y="-8.2" font-family="sans-serif" font-size="14.00">dependencies</text>
<g id="clust1" class="cluster">
<title>cluster_CaptchaModule</title>
<polygon fill="none" stroke="black" stroke-dasharray="1,5" points="8,-32.8 8,-230.8 184,-230.8 184,-32.8 8,-32.8"/>
</g>
<g id="clust4" class="cluster">
<title>cluster_CaptchaModule_exports</title>
<polygon fill="none" stroke="black" points="34,-170.8 34,-222.8 158,-222.8 158,-170.8 34,-170.8"/>
</g>
<g id="clust6" class="cluster">
<title>cluster_CaptchaModule_providers</title>
<polygon fill="none" stroke="black" points="16,-40.8 16,-92.8 176,-92.8 176,-40.8 16,-40.8"/>
</g>
<!-- CaptchaService  -->
<g id="node1" class="node">
<title>CaptchaService </title>
<polygon fill="#fb8072" stroke="black" points="149.85,-214.8 42.15,-214.8 42.15,-178.8 149.85,-178.8 149.85,-214.8"/>
<text text-anchor="middle" x="96" y="-192.6" font-family="Times,serif" font-size="14.00">CaptchaService </text>
</g>
<!-- CaptchaModule -->
<g id="node2" class="node">
<title>CaptchaModule</title>
<polygon fill="#8dd3c7" stroke="black" points="148.92,-149.8 145.92,-153.8 124.92,-153.8 121.92,-149.8 43.08,-149.8 43.08,-113.8 148.92,-113.8 148.92,-149.8"/>
<text text-anchor="middle" x="96" y="-127.6" font-family="Times,serif" font-size="14.00">CaptchaModule</text>
</g>
<!-- CaptchaModule&#45;&gt;CaptchaService  -->
<g id="edge1" class="edge">
<title>CaptchaModule&#45;&gt;CaptchaService </title>
<path fill="none" stroke="black" stroke-dasharray="5,2" d="M96,-149.91C96,-149.91 96,-168.79 96,-168.79"/>
<polygon fill="black" stroke="black" points="92.5,-168.79 96,-178.79 99.5,-168.79 92.5,-168.79"/>
</g>
<!-- CaptchaService -->
<g id="node3" class="node">
<title>CaptchaService</title>
<ellipse fill="#fdb462" stroke="black" cx="96" cy="-66.8" rx="71.77" ry="18"/>
<text text-anchor="middle" x="96" y="-62.6" font-family="Times,serif" font-size="14.00">CaptchaService</text>
</g>
<!-- CaptchaService&#45;&gt;CaptchaModule -->
<g id="edge2" class="edge">
<title>CaptchaService&#45;&gt;CaptchaModule</title>
<path fill="none" stroke="black" d="M96,-84.91C96,-84.91 96,-103.79 96,-103.79"/>
<polygon fill="black" stroke="black" points="92.5,-103.79 96,-113.79 99.5,-103.79 92.5,-103.79"/>
</g>
</g>
</svg>
